SplineFontDB: 3.0
FontName: OpenSans-Light
FullName: Open Sans Light
FamilyName: Open Sans Light
Weight: Light
Copyright: Digitized data copyright (c) 2010-2011, Google Corporation.
Version: 1.10
ItalicAngle: 0
UnderlinePosition: -103
UnderlineWidth: 102
Ascent: 1638
Descent: 410
sfntRevision: 0x0001199a
LayerCount: 2
Layer: 0 1 "Back"  1
Layer: 1 1 "Fore"  0
XUID: [1021 210 879221529 9619907]
FSType: 8
OS2Version: 3
OS2_WeightWidthSlopeOnly: 0
OS2_UseTypoMetrics: 1
CreationTime: 1293706331
ModificationTime: 1398509162
PfmFamily: 17
TTFWeight: 300
TTFWidth: 5
LineGap: 0
VLineGap: 0
Panose: 2 11 3 6 3 5 4 2 2 4
OS2TypoAscent: 1567
OS2TypoAOffset: 0
OS2TypoDescent: -492
OS2TypoDOffset: 0
OS2TypoLinegap: 132
OS2WinAscent: 2189
OS2WinAOffset: 0
OS2WinDescent: 600
OS2WinDOffset: 0
HheadAscent: 2189
HheadAOffset: 0
HheadDescent: -600
HheadDOffset: 0
OS2SubXSize: 1434
OS2SubYSize: 1331
OS2SubXOff: 0
OS2SubYOff: 287
OS2SupXSize: 1434
OS2SupYSize: 1331
OS2SupXOff: 0
OS2SupYOff: 977
OS2StrikeYSize: 102
OS2StrikeYPos: 492
OS2FamilyClass: 2050
OS2Vendor: '1ASC'
OS2CodePages: 2000019f.00000000
OS2UnicodeRanges: e00002ef.4000205b.00000028.00000000
Lookup: 1 0 0 "'ss02' Style Set 2 in Latin lookup 0"  {"'ss02' Style Set 2 in Latin lookup 0 subtable"  } ['salt' ('latn' <'MOL ' 'ROM ' 'dflt' > ) 'ss01' ('latn' <'MOL ' 'ROM ' 'dflt' > ) 'ss02' ('latn' <'MOL ' 'ROM ' 'dflt' > ) ]
Lookup: 1 0 0 "'ss03' Style Set 3 in Latin lookup 1"  {"'ss03' Style Set 3 in Latin lookup 1 subtable"  } ['salt' ('latn' <'MOL ' 'ROM ' 'dflt' > ) 'ss01' ('latn' <'MOL ' 'ROM ' 'dflt' > ) 'ss03' ('latn' <'MOL ' 'ROM ' 'dflt' > ) ]
Lookup: 1 0 0 "'onum' Oldstyle Figures in Latin lookup 2"  {"'onum' Oldstyle Figures in Latin lookup 2 subtable" ("oldstyle" ) } ['onum' ('latn' <'MOL ' 'ROM ' 'dflt' > ) ]
Lookup: 1 0 0 "'onum' Oldstyle Figures in Latin lookup 3"  {"'onum' Oldstyle Figures in Latin lookup 3 subtable" ("oldstyle" ) } ['onum' ('latn' <'MOL ' 'ROM ' 'dflt' > ) ]

StartChar: .notdef
Encoding: 65536 -1 0
Width: 1229
GlyphClass: 2
Flags: W
LayerCount: 2
Fore
SplineSet
193 1462 m 1,0,-1
 1034 1462 l 1,1,-1
 1034 0 l 1,2,-1
 193 0 l 1,3,-1
 193 1462 l 1,0,-1
297 104 m 1,4,-1
 930 104 l 1,5,-1
 930 1358 l 1,6,-1
 297 1358 l 1,7,-1
 297 104 l 1,4,-1
EndSplineSet
EndChar

StartChar: exclam
Encoding: 33 33 4
Width: 492
GlyphClass: 2
Flags: W
LayerCount: 2
Fore
SplineSet
276 377 m 1,0,-1
 215 377 l 1,1,-1
 186 1462 l 1,2,-1
 305 1462 l 1,3,-1
 276 377 l 1,0,-1
164 78 m 256,4,5
 164 176 164 176 244 176 c 0,6,7
 326 176 326 176 326 78 c 256,8,9
 326 -20 326 -20 244 -20 c 0,10,11
 164 -20 164 -20 164 78 c 256,4,5
EndSplineSet
EndChar

StartChar: quotedbl
Encoding: 34 34 5
Width: 723
GlyphClass: 2
Flags: W
LayerCount: 2
Fore
SplineSet
260 1462 m 1,0,-1
 227 934 l 1,1,-1
 166 934 l 1,2,-1
 133 1462 l 1,3,-1
 260 1462 l 1,0,-1
590 1462 m 1,4,-1
 557 934 l 1,5,-1
 496 934 l 1,6,-1
 463 1462 l 1,7,-1
 590 1462 l 1,4,-1
EndSplineSet
EndChar

StartChar: numbersign
Encoding: 35 35 6
Width: 1323
GlyphClass: 2
Flags: W
LayerCount: 2
Fore
SplineSet
967 928 m 1,0,-1
 891 530 l 1,1,-1
 1194 530 l 1,2,-1
 1194 451 l 1,3,-1
 874 451 l 1,4,-1
 788 0 l 1,5,-1
 698 0 l 1,6,-1
 786 451 l 1,7,-1
 426 451 l 1,8,-1
 340 0 l 1,9,-1
 252 0 l 1,10,-1
 338 451 l 1,11,-1
 55 451 l 1,12,-1
 55 530 l 1,13,-1
 354 530 l 1,14,-1
 430 928 l 1,15,-1
 133 928 l 1,16,-1
 133 1008 l 1,17,-1
 444 1008 l 1,18,-1
 530 1462 l 1,19,-1
 621 1462 l 1,20,-1
 532 1008 l 1,21,-1
 897 1008 l 1,22,-1
 985 1462 l 1,23,-1
 1071 1462 l 1,24,-1
 983 1008 l 1,25,-1
 1268 1008 l 1,26,-1
 1268 928 l 1,27,-1
 967 928 l 1,0,-1
440 530 m 1,28,-1
 803 530 l 1,29,-1
 881 928 l 1,30,-1
 518 928 l 1,31,-1
 440 530 l 1,28,-1
EndSplineSet
EndChar

StartChar: dollar
Encoding: 36 36 7
Width: 1169
GlyphClass: 2
Flags: W
LayerCount: 2
Fore
SplineSet
991 440 m 0,0,1
 991 307 991 307 892 223 c 128,-1,2
 793 139 793 139 618 117 c 1,3,-1
 618 -119 l 1,4,-1
 537 -119 l 1,5,-1
 537 113 l 1,6,7
 445 115 445 115 336.5 135.5 c 128,-1,8
 228 156 228 156 164 186 c 1,9,-1
 164 289 l 1,10,11
 239 253 239 253 343.5 228 c 128,-1,12
 448 203 448 203 537 203 c 1,13,-1
 537 711 l 1,14,15
 392 755 392 755 322 799 c 128,-1,16
 252 843 252 843 220 903 c 128,-1,17
 188 963 188 963 188 1049 c 0,18,19
 188 1173 188 1173 282.5 1257.5 c 128,-1,20
 377 1342 377 1342 537 1362 c 1,21,-1
 537 1554 l 1,22,-1
 618 1554 l 1,23,-1
 618 1364 l 1,24,25
 815 1355 815 1355 969 1292 c 1,26,-1
 936 1202 l 1,27,28
 795 1264 795 1264 618 1274 c 1,29,-1
 618 788 l 1,30,31
 831 722 831 722 911 644 c 128,-1,32
 991 566 991 566 991 440 c 0,0,1
881 444 m 0,33,34
 881 529 881 529 818 584.5 c 128,-1,35
 755 640 755 640 618 680 c 1,36,-1
 618 209 l 1,37,38
 740 222 740 222 810.5 284 c 128,-1,39
 881 346 881 346 881 444 c 0,33,34
297 1049 m 0,40,41
 297 963 297 963 354 908 c 128,-1,42
 411 853 411 853 537 815 c 1,43,-1
 537 1268 l 1,44,45
 418 1252 418 1252 357.5 1192 c 128,-1,46
 297 1132 297 1132 297 1049 c 0,40,41
EndSplineSet
EndChar

StartChar: percent
Encoding: 37 37 8
Width: 1653
GlyphClass: 2
Flags: W
LayerCount: 2
Fore
SplineSet
211 1026 m 0,0,1
 211 840 211 840 256 746.5 c 128,-1,2
 301 653 301 653 397 653 c 0,3,4
 590 653 590 653 590 1026 c 0,5,6
 590 1210 590 1210 540.5 1302.5 c 128,-1,7
 491 1395 491 1395 397 1395 c 0,8,9
 301 1395 301 1395 256 1302.5 c 128,-1,10
 211 1210 211 1210 211 1026 c 0,0,1
688 1026 m 0,11,12
 688 800 688 800 613 682.5 c 128,-1,13
 538 565 538 565 397 565 c 0,14,15
 264 565 264 565 188.5 685.5 c 128,-1,16
 113 806 113 806 113 1026 c 0,17,18
 113 1249 113 1249 185 1366 c 128,-1,19
 257 1483 257 1483 397 1483 c 0,20,21
 536 1483 536 1483 612 1362.5 c 128,-1,22
 688 1242 688 1242 688 1026 c 0,11,12
1063 438 m 0,23,24
 1063 253 1063 253 1108 160.5 c 128,-1,25
 1153 68 1153 68 1249 68 c 0,26,27
 1442 68 1442 68 1442 438 c 0,28,29
 1442 807 1442 807 1249 807 c 0,30,31
 1153 807 1153 807 1108 715.5 c 128,-1,32
 1063 624 1063 624 1063 438 c 0,23,24
1540 438 m 0,33,34
 1540 212 1540 212 1466 94.5 c 128,-1,35
 1392 -23 1392 -23 1251 -23 c 0,36,37
 1115 -23 1115 -23 1040 98.5 c 128,-1,38
 965 220 965 220 965 438 c 0,39,40
 965 663 965 663 1038.5 779 c 128,-1,41
 1112 895 1112 895 1251 895 c 0,42,43
 1388 895 1388 895 1464 775 c 128,-1,44
 1540 655 1540 655 1540 438 c 0,33,34
1280 1462 m 1,45,-1
 469 0 l 1,46,-1
 373 0 l 1,47,-1
 1184 1462 l 1,48,-1
 1280 1462 l 1,45,-1
EndSplineSet
EndChar

StartChar: ampersand
Encoding: 38 38 9
Width: 1460
GlyphClass: 2
Flags: W
LayerCount: 2
Fore
SplineSet
123 371 m 0,0,1
 123 509 123 509 196.5 606 c 128,-1,2
 270 703 270 703 471 811 c 1,3,-1
 396 893 l 2,4,5
 330 964 330 964 298 1032 c 128,-1,6
 266 1100 266 1100 266 1174 c 0,7,8
 266 1317 266 1317 361.5 1401 c 128,-1,9
 457 1485 457 1485 618 1485 c 0,10,11
 773 1485 773 1485 863.5 1404 c 128,-1,12
 954 1323 954 1323 954 1180 c 0,13,14
 954 1075 954 1075 884 987.5 c 128,-1,15
 814 900 814 900 631 793 c 1,16,-1
 1083 336 l 1,17,18
 1144 408 1144 408 1187 493 c 128,-1,19
 1230 578 1230 578 1262 694 c 1,20,-1
 1358 694 l 1,21,22
 1295 448 1295 448 1149 268 c 1,23,-1
 1415 0 l 1,24,-1
 1280 0 l 1,25,-1
 1087 197 l 1,26,27
 995 107 995 107 923 65.5 c 128,-1,28
 851 24 851 24 765.5 2 c 128,-1,29
 680 -20 680 -20 571 -20 c 0,30,31
 362 -20 362 -20 242.5 83 c 128,-1,32
 123 186 123 186 123 371 c 0,0,1
578 70 m 0,33,34
 706 70 706 70 812.5 113.5 c 128,-1,35
 919 157 919 157 1022 260 c 1,36,-1
 539 745 l 1,37,38
 403 673 403 673 342.5 622.5 c 128,-1,39
 282 572 282 572 254.5 513 c 128,-1,40
 227 454 227 454 227 375 c 0,41,42
 227 232 227 232 320 151 c 128,-1,43
 413 70 413 70 578 70 c 0,33,34
373 1176 m 0,44,45
 373 1097 373 1097 413 1030 c 128,-1,46
 453 963 453 963 565 856 c 1,47,48
 724 941 724 941 786 1015 c 128,-1,49
 848 1089 848 1089 848 1184 c 0,50,51
 848 1278 848 1278 786 1336.5 c 128,-1,52
 724 1395 724 1395 618 1395 c 0,53,54
 504 1395 504 1395 438.5 1337 c 128,-1,55
 373 1279 373 1279 373 1176 c 0,44,45
EndSplineSet
EndChar

StartChar: quotesingle
Encoding: 39 39 10
Width: 393
GlyphClass: 2
Flags: W
LayerCount: 2
Fore
SplineSet
260 1462 m 1,0,-1
 227 934 l 1,1,-1
 166 934 l 1,2,-1
 133 1462 l 1,3,-1
 260 1462 l 1,0,-1
EndSplineSet
EndChar

StartChar: parenleft
Encoding: 40 40 11
Width: 557
GlyphClass: 2
Flags: W
LayerCount: 2
Fore
SplineSet
82 561 m 0,0,1
 82 826 82 826 159.5 1057 c 128,-1,2
 237 1288 237 1288 383 1462 c 1,3,-1
 496 1462 l 1,4,5
 348 1280 348 1280 269 1049.5 c 128,-1,6
 190 819 190 819 190 563 c 0,7,8
 190 80 190 80 494 -324 c 1,9,-1
 383 -324 l 1,10,11
 236 -154 236 -154 159 73 c 128,-1,12
 82 300 82 300 82 561 c 0,0,1
EndSplineSet
EndChar

StartChar: parenright
Encoding: 41 41 12
Width: 557
GlyphClass: 2
Flags: W
LayerCount: 2
Fore
SplineSet
475 561 m 256,0,1
 475 298 475 298 397.5 71 c 128,-1,2
 320 -156 320 -156 174 -324 c 1,3,-1
 63 -324 l 1,4,5
 367 80 367 80 367 563 c 0,6,7
 367 820 367 820 288 1050.5 c 128,-1,8
 209 1281 209 1281 61 1462 c 1,9,-1
 174 1462 l 1,10,11
 321 1287 321 1287 398 1055.5 c 128,-1,12
 475 824 475 824 475 561 c 256,0,1
EndSplineSet
EndChar

StartChar: asterisk
Encoding: 42 42 13
Width: 1128
GlyphClass: 2
Flags: W
LayerCount: 2
Fore
SplineSet
631 1556 m 1,0,-1
 594 1151 l 1,1,-1
 999 1255 l 1,2,-1
 1020 1124 l 1,3,-1
 625 1085 l 1,4,-1
 872 745 l 1,5,-1
 748 674 l 1,6,-1
 557 1053 l 1,7,-1
 377 674 l 1,8,-1
 252 745 l 1,9,-1
 494 1085 l 1,10,-1
 104 1124 l 1,11,-1
 123 1255 l 1,12,-1
 524 1151 l 1,13,-1
 485 1556 l 1,14,-1
 631 1556 l 1,0,-1
EndSplineSet
EndChar

StartChar: plus
Encoding: 43 43 14
Width: 1169
GlyphClass: 2
Flags: W
LayerCount: 2
Fore
SplineSet
625 764 m 1,0,-1
 1059 764 l 1,1,-1
 1059 682 l 1,2,-1
 625 682 l 1,3,-1
 625 250 l 1,4,-1
 543 250 l 1,5,-1
 543 682 l 1,6,-1
 111 682 l 1,7,-1
 111 764 l 1,8,-1
 543 764 l 1,9,-1
 543 1198 l 1,10,-1
 625 1198 l 1,11,-1
 625 764 l 1,0,-1
EndSplineSet
EndChar

StartChar: comma
Encoding: 44 44 15
Width: 440
GlyphClass: 2
Flags: W
LayerCount: 2
Fore
SplineSet
295 238 m 1,0,-1
 307 217 l 1,1,2
 232 -48 232 -48 133 -264 c 1,3,-1
 68 -264 l 1,4,5
 145 11 145 11 178 238 c 1,6,-1
 295 238 l 1,0,-1
EndSplineSet
EndChar

StartChar: hyphen
Encoding: 45 45 16
Width: 659
GlyphClass: 2
Flags: W
LayerCount: 2
Fore
SplineSet
92 512 m 1,0,-1
 92 594 l 1,1,-1
 567 594 l 1,2,-1
 567 512 l 1,3,-1
 92 512 l 1,0,-1
EndSplineSet
EndChar

StartChar: period
Encoding: 46 46 17
Width: 487
GlyphClass: 2
Flags: W
LayerCount: 2
Fore
SplineSet
162 78 m 256,0,1
 162 176 162 176 242 176 c 0,2,3
 324 176 324 176 324 78 c 256,4,5
 324 -20 324 -20 242 -20 c 0,6,7
 162 -20 162 -20 162 78 c 256,0,1
EndSplineSet
EndChar

StartChar: slash
Encoding: 47 47 18
Width: 698
GlyphClass: 2
Flags: W
LayerCount: 2
Fore
SplineSet
674 1462 m 1,0,-1
 129 0 l 1,1,-1
 25 0 l 1,2,-1
 569 1462 l 1,3,-1
 674 1462 l 1,0,-1
EndSplineSet
EndChar

StartChar: zero
Encoding: 48 48 19
Width: 1169
GlyphClass: 2
Flags: W
LayerCount: 2
Fore
SplineSet
1055 735 m 0,0,1
 1055 350 1055 350 937.5 165 c 128,-1,2
 820 -20 820 -20 582 -20 c 0,3,4
 353 -20 353 -20 234 170.5 c 128,-1,5
 115 361 115 361 115 735 c 0,6,7
 115 1117 115 1117 230.5 1301 c 128,-1,8
 346 1485 346 1485 582 1485 c 0,9,10
 813 1485 813 1485 934 1294.5 c 128,-1,11
 1055 1104 1055 1104 1055 735 c 0,0,1
223 735 m 0,12,13
 223 395 223 395 312 232.5 c 128,-1,14
 401 70 401 70 582 70 c 0,15,16
 771 70 771 70 857.5 238 c 128,-1,17
 944 406 944 406 944 735 c 0,18,19
 944 1059 944 1059 857.5 1227 c 128,-1,20
 771 1395 771 1395 582 1395 c 256,21,22
 393 1395 393 1395 308 1227 c 128,-1,23
 223 1059 223 1059 223 735 c 0,12,13
EndSplineSet
Substitution2: "'onum' Oldstyle Figures in Latin lookup 3 subtable" zero.os
Substitution2: "'onum' Oldstyle Figures in Latin lookup 2 subtable" zero.os
EndChar

StartChar: one
Encoding: 49 49 20
Width: 1169
GlyphClass: 2
Flags: W
LayerCount: 2
Fore
SplineSet
682 0 m 1,0,-1
 584 0 l 1,1,-1
 584 1065 l 2,2,3
 584 1210 584 1210 596 1366 c 1,4,5
 581 1351 581 1351 565 1337 c 128,-1,6
 549 1323 549 1323 256 1094 c 1,7,-1
 199 1165 l 1,8,-1
 596 1462 l 1,9,-1
 682 1462 l 1,10,-1
 682 0 l 1,0,-1
EndSplineSet
Substitution2: "'pnum' Proportional Numbers in Latin lookup 4 subtable" one.pnum
Substitution2: "'onum' Oldstyle Figures in Latin lookup 2 subtable" one.os
EndChar

StartChar: two
Encoding: 50 50 21
Width: 1169
GlyphClass: 2
Flags: W
LayerCount: 2
Fore
SplineSet
1028 0 m 1,0,-1
 113 0 l 1,1,-1
 113 88 l 1,2,-1
 502 494 l 2,3,4
 666 664 666 664 732 754 c 128,-1,5
 798 844 798 844 829 926 c 128,-1,6
 860 1008 860 1008 860 1098 c 0,7,8
 860 1229 860 1229 774 1311 c 128,-1,9
 688 1393 688 1393 551 1393 c 0,10,11
 368 1393 368 1393 201 1260 c 1,12,-1
 147 1329 l 1,13,14
 330 1483 330 1483 553 1483 c 0,15,16
 744 1483 744 1483 853.5 1381 c 128,-1,17
 963 1279 963 1279 963 1100 c 0,18,19
 963 955 963 955 889.5 819.5 c 128,-1,20
 816 684 816 684 621 485 c 2,21,-1
 246 100 l 1,22,-1
 246 96 l 1,23,-1
 1028 96 l 1,24,-1
 1028 0 l 1,0,-1
EndSplineSet
Substitution2: "'onum' Oldstyle Figures in Latin lookup 3 subtable" two.os
Substitution2: "'onum' Oldstyle Figures in Latin lookup 2 subtable" two.os
EndChar

StartChar: three
Encoding: 51 51 22
Width: 1169
GlyphClass: 2
Flags: W
LayerCount: 2
Fore
SplineSet
979 1118 m 0,0,1
 979 982 979 982 893.5 889 c 128,-1,2
 808 796 808 796 664 770 c 1,3,-1
 664 764 l 1,4,5
 840 742 840 742 932 652 c 128,-1,6
 1024 562 1024 562 1024 410 c 0,7,8
 1024 205 1024 205 884.5 92.5 c 128,-1,9
 745 -20 745 -20 483 -20 c 0,10,11
 260 -20 260 -20 94 63 c 1,12,-1
 94 162 l 1,13,14
 178 118 178 118 282.5 93 c 128,-1,15
 387 68 387 68 479 68 c 0,16,17
 700 68 700 68 811 157.5 c 128,-1,18
 922 247 922 247 922 410 c 0,19,20
 922 555 922 555 808.5 633 c 128,-1,21
 695 711 695 711 475 711 c 2,22,-1
 317 711 l 1,23,-1
 317 807 l 1,24,-1
 477 807 l 2,25,26
 659 807 659 807 765.5 893.5 c 128,-1,27
 872 980 872 980 872 1128 c 0,28,29
 872 1250 872 1250 785.5 1323.5 c 128,-1,30
 699 1397 699 1397 559 1397 c 0,31,32
 450 1397 450 1397 360 1366.5 c 128,-1,33
 270 1336 270 1336 158 1262 c 1,34,-1
 109 1329 l 1,35,36
 194 1400 194 1400 314 1441.5 c 128,-1,37
 434 1483 434 1483 557 1483 c 0,38,39
 759 1483 759 1483 869 1387.5 c 128,-1,40
 979 1292 979 1292 979 1118 c 0,0,1
EndSplineSet
Substitution2: "'onum' Oldstyle Figures in Latin lookup 3 subtable" three.os
Substitution2: "'onum' Oldstyle Figures in Latin lookup 2 subtable" three.os
EndChar

StartChar: four
Encoding: 52 52 23
Width: 1169
GlyphClass: 2
Flags: W
LayerCount: 2
Fore
SplineSet
1141 373 m 1,0,-1
 889 373 l 1,1,-1
 889 0 l 1,2,-1
 795 0 l 1,3,-1
 795 373 l 1,4,-1
 43 373 l 1,5,-1
 43 440 l 1,6,-1
 768 1470 l 1,7,-1
 889 1470 l 1,8,-1
 889 459 l 1,9,-1
 1141 459 l 1,10,-1
 1141 373 l 1,0,-1
795 459 m 1,11,-1
 795 877 l 2,12,13
 795 1179 795 1179 809 1384 c 1,14,-1
 801 1384 l 1,15,16
 781 1347 781 1347 678 1196 c 1,17,-1
 162 459 l 1,18,-1
 795 459 l 1,11,-1
EndSplineSet
Substitution2: "'onum' Oldstyle Figures in Latin lookup 3 subtable" four.os
Substitution2: "'onum' Oldstyle Figures in Latin lookup 2 subtable" four.os
EndChar

StartChar: five
Encoding: 53 53 24
Width: 1169
GlyphClass: 2
Flags: W
LayerCount: 2
Fore
SplineSet
537 879 m 0,0,1
 771 879 771 879 905.5 766 c 128,-1,2
 1040 653 1040 653 1040 455 c 0,3,4
 1040 230 1040 230 900 105 c 128,-1,5
 760 -20 760 -20 514 -20 c 0,6,7
 405 -20 405 -20 307 1.5 c 128,-1,8
 209 23 209 23 143 63 c 1,9,-1
 143 166 l 1,10,11
 251 111 251 111 335 89.5 c 128,-1,12
 419 68 419 68 514 68 c 0,13,14
 706 68 706 68 822 169.5 c 128,-1,15
 938 271 938 271 938 444 c 0,16,17
 938 607 938 607 825 700 c 128,-1,18
 712 793 712 793 518 793 c 0,19,20
 388 793 388 793 246 754 c 1,21,-1
 186 793 l 1,22,-1
 244 1462 l 1,23,-1
 948 1462 l 1,24,-1
 948 1366 l 1,25,-1
 338 1366 l 1,26,-1
 293 850 l 1,27,28
 449 879 449 879 537 879 c 0,0,1
EndSplineSet
Substitution2: "'onum' Oldstyle Figures in Latin lookup 3 subtable" five.os
Substitution2: "'onum' Oldstyle Figures in Latin lookup 2 subtable" five.os
EndChar

StartChar: six
Encoding: 54 54 25
Width: 1169
GlyphClass: 2
Flags: W
LayerCount: 2
Fore
SplineSet
131 623 m 0,0,1
 131 908 131 908 208.5 1102.5 c 128,-1,2
 286 1297 286 1297 428.5 1391 c 128,-1,3
 571 1485 571 1485 772 1485 c 0,4,5
 866 1485 866 1485 944 1462 c 1,6,-1
 944 1374 l 1,7,8
 871 1401 871 1401 768 1401 c 0,9,10
 521 1401 521 1401 383.5 1223 c 128,-1,11
 246 1045 246 1045 229 705 c 1,12,-1
 242 705 l 1,13,14
 318 803 318 803 416 853 c 128,-1,15
 514 903 514 903 623 903 c 0,16,17
 828 903 828 903 943.5 786 c 128,-1,18
 1059 669 1059 669 1059 463 c 0,19,20
 1059 239 1059 239 937.5 109.5 c 128,-1,21
 816 -20 816 -20 610 -20 c 0,22,23
 388 -20 388 -20 259.5 149.5 c 128,-1,24
 131 319 131 319 131 623 c 0,0,1
610 68 m 0,25,26
 774 68 774 68 865 171 c 128,-1,27
 956 274 956 274 956 465 c 0,28,29
 956 633 956 633 866 727 c 128,-1,30
 776 821 776 821 621 821 c 0,31,32
 519 821 519 821 431.5 776 c 128,-1,33
 344 731 344 731 292 656.5 c 128,-1,34
 240 582 240 582 240 504 c 0,35,36
 240 393 240 393 289.5 290.5 c 128,-1,37
 339 188 339 188 423.5 128 c 128,-1,38
 508 68 508 68 610 68 c 0,25,26
EndSplineSet
Substitution2: "'onum' Oldstyle Figures in Latin lookup 3 subtable" six.os
Substitution2: "'onum' Oldstyle Figures in Latin lookup 2 subtable" six.os
EndChar

StartChar: seven
Encoding: 55 55 26
Width: 1169
GlyphClass: 2
Flags: W
LayerCount: 2
Fore
SplineSet
334 0 m 1,0,-1
 936 1366 l 1,1,-1
 109 1366 l 1,2,-1
 109 1462 l 1,3,-1
 1055 1462 l 1,4,-1
 1055 1389 l 1,5,-1
 451 0 l 1,6,-1
 334 0 l 1,0,-1
EndSplineSet
Substitution2: "'onum' Oldstyle Figures in Latin lookup 3 subtable" seven.os
Substitution2: "'onum' Oldstyle Figures in Latin lookup 2 subtable" seven.os
EndChar

StartChar: eight
Encoding: 56 56 27
Width: 1169
GlyphClass: 2
Flags: W
LayerCount: 2
Fore
SplineSet
582 1487 m 0,0,1
 768 1487 768 1487 881.5 1392 c 128,-1,2
 995 1297 995 1297 995 1135 c 0,3,4
 995 1023 995 1023 924.5 937 c 128,-1,5
 854 851 854 851 696 778 c 1,6,7
 888 699 888 699 966 605 c 128,-1,8
 1044 511 1044 511 1044 377 c 0,9,10
 1044 196 1044 196 917.5 88 c 128,-1,11
 791 -20 791 -20 578 -20 c 0,12,13
 357 -20 357 -20 239 81 c 128,-1,14
 121 182 121 182 121 375 c 0,15,16
 121 506 121 506 204 605 c 128,-1,17
 287 704 287 704 461 774 c 1,18,19
 300 850 300 850 234 934.5 c 128,-1,20
 168 1019 168 1019 168 1137 c 0,21,22
 168 1242 168 1242 221 1321.5 c 128,-1,23
 274 1401 274 1401 369.5 1444 c 128,-1,24
 465 1487 465 1487 582 1487 c 0,0,1
223 360 m 0,25,26
 223 222 223 222 316.5 146 c 128,-1,27
 410 70 410 70 578 70 c 0,28,29
 742 70 742 70 842 150.5 c 128,-1,30
 942 231 942 231 942 369 c 0,31,32
 942 493 942 493 863.5 570.5 c 128,-1,33
 785 648 785 648 561 733 c 1,34,35
 377 662 377 662 300 576 c 128,-1,36
 223 490 223 490 223 360 c 0,25,26
580 1397 m 0,37,38
 439 1397 439 1397 353.5 1327.5 c 128,-1,39
 268 1258 268 1258 268 1137 c 0,40,41
 268 1067 268 1067 299.5 1013.5 c 128,-1,42
 331 960 331 960 390.5 916.5 c 128,-1,43
 450 873 450 873 590 815 c 1,44,45
 753 878 753 878 824 954 c 128,-1,46
 895 1030 895 1030 895 1137 c 0,47,48
 895 1257 895 1257 810.5 1327 c 128,-1,49
 726 1397 726 1397 580 1397 c 0,37,38
EndSplineSet
Substitution2: "'onum' Oldstyle Figures in Latin lookup 3 subtable" eight.os
Substitution2: "'onum' Oldstyle Figures in Latin lookup 2 subtable" eight.os
EndChar

StartChar: nine
Encoding: 57 57 28
Width: 1169
GlyphClass: 2
Flags: W
LayerCount: 2
Fore
SplineSet
1036 842 m 0,0,1
 1036 554 1036 554 960.5 360 c 128,-1,2
 885 166 885 166 740.5 73 c 128,-1,3
 596 -20 596 -20 391 -20 c 0,4,5
 287 -20 287 -20 199 6 c 1,6,-1
 199 92 l 1,7,8
 242 78 242 78 302.5 70.5 c 128,-1,9
 363 63 363 63 395 63 c 0,10,11
 642 63 642 63 782 241.5 c 128,-1,12
 922 420 922 420 938 762 c 1,13,-1
 926 762 l 1,14,15
 853 666 853 666 752 614.5 c 128,-1,16
 651 563 651 563 541 563 c 0,17,18
 338 563 338 563 224.5 675 c 128,-1,19
 111 787 111 787 111 993 c 0,20,21
 111 1213 111 1213 235.5 1349 c 128,-1,22
 360 1485 360 1485 559 1485 c 0,23,24
 703 1485 703 1485 811 1409.5 c 128,-1,25
 919 1334 919 1334 977.5 1188 c 128,-1,26
 1036 1042 1036 1042 1036 842 c 0,0,1
559 1397 m 0,27,28
 401 1397 401 1397 307 1290.5 c 128,-1,29
 213 1184 213 1184 213 999 c 0,30,31
 213 825 213 825 300 735 c 128,-1,32
 387 645 387 645 549 645 c 0,33,34
 650 645 650 645 737.5 690 c 128,-1,35
 825 735 825 735 876.5 809.5 c 128,-1,36
 928 884 928 884 928 961 c 0,37,38
 928 1078 928 1078 881.5 1180 c 128,-1,39
 835 1282 835 1282 751.5 1339.5 c 128,-1,40
 668 1397 668 1397 559 1397 c 0,27,28
EndSplineSet
Substitution2: "'onum' Oldstyle Figures in Latin lookup 3 subtable" nine.os
Substitution2: "'onum' Oldstyle Figures in Latin lookup 2 subtable" nine.os
EndChar

StartChar: colon
Encoding: 58 58 29
Width: 487
GlyphClass: 2
Flags: W
LayerCount: 2
Fore
SplineSet
162 78 m 256,0,1
 162 176 162 176 242 176 c 0,2,3
 324 176 324 176 324 78 c 256,4,5
 324 -20 324 -20 242 -20 c 0,6,7
 162 -20 162 -20 162 78 c 256,0,1
162 971 m 0,8,9
 162 1069 162 1069 242 1069 c 0,10,11
 324 1069 324 1069 324 971 c 0,12,13
 324 918 324 918 300.5 895 c 128,-1,14
 277 872 277 872 242 872 c 0,15,16
 208 872 208 872 185 895 c 128,-1,17
 162 918 162 918 162 971 c 0,8,9
EndSplineSet
EndChar

StartChar: semicolon
Encoding: 59 59 30
Width: 487
GlyphClass: 2
Flags: W
LayerCount: 2
Fore
SplineSet
303 238 m 1,0,-1
 315 217 l 1,1,2
 240 -48 240 -48 141 -264 c 1,3,-1
 76 -264 l 1,4,5
 105 -167 105 -167 138 -18.5 c 128,-1,6
 171 130 171 130 186 238 c 1,7,-1
 303 238 l 1,0,-1
162 971 m 0,8,9
 162 1069 162 1069 242 1069 c 0,10,11
 324 1069 324 1069 324 971 c 0,12,13
 324 918 324 918 300.5 895 c 128,-1,14
 277 872 277 872 242 872 c 0,15,16
 208 872 208 872 185 895 c 128,-1,17
 162 918 162 918 162 971 c 0,8,9
EndSplineSet
EndChar

StartChar: less
Encoding: 60 60 31
Width: 1169
GlyphClass: 2
Flags: W
LayerCount: 2
Fore
SplineSet
1059 266 m 1,0,-1
 111 682 l 1,1,-1
 111 743 l 1,2,-1
 1059 1217 l 1,3,-1
 1059 1122 l 1,4,-1
 236 717 l 1,5,-1
 1059 362 l 1,6,-1
 1059 266 l 1,0,-1
EndSplineSet
EndChar

StartChar: equal
Encoding: 61 61 32
Width: 1169
GlyphClass: 2
Flags: W
LayerCount: 2
Fore
SplineSet
111 885 m 1,0,-1
 111 967 l 1,1,-1
 1059 967 l 1,2,-1
 1059 885 l 1,3,-1
 111 885 l 1,0,-1
111 477 m 1,4,-1
 111 559 l 1,5,-1
 1059 559 l 1,6,-1
 1059 477 l 1,7,-1
 111 477 l 1,4,-1
EndSplineSet
EndChar

StartChar: greater
Encoding: 62 62 33
Width: 1169
GlyphClass: 2
Flags: W
LayerCount: 2
Fore
SplineSet
111 362 m 1,0,-1
 934 717 l 1,1,-1
 111 1122 l 1,2,-1
 111 1217 l 1,3,-1
 1059 743 l 1,4,-1
 1059 682 l 1,5,-1
 111 266 l 1,6,-1
 111 362 l 1,0,-1
EndSplineSet
EndChar

StartChar: question
Encoding: 63 63 34
Width: 862
GlyphClass: 2
Flags: W
LayerCount: 2
Fore
SplineSet
293 377 m 1,0,-1
 293 414 l 2,1,2
 293 537 293 537 330.5 615 c 128,-1,3
 368 693 368 693 469 782 c 2,4,-1
 560 861 l 1,5,6
 632 922 632 922 663 982 c 128,-1,7
 694 1042 694 1042 694 1120 c 0,8,9
 694 1247 694 1247 610.5 1322 c 128,-1,10
 527 1397 527 1397 391 1397 c 0,11,12
 312 1397 312 1397 243 1379.5 c 128,-1,13
 174 1362 174 1362 94 1323 c 1,14,-1
 57 1403 l 1,15,16
 167 1451 167 1451 241.5 1467 c 128,-1,17
 316 1483 316 1483 395 1483 c 0,18,19
 578 1483 578 1483 683 1384.5 c 128,-1,20
 788 1286 788 1286 788 1114 c 0,21,22
 788 1046 788 1046 770 995 c 128,-1,23
 752 944 752 944 719.5 900.5 c 128,-1,24
 687 857 687 857 641 816.5 c 128,-1,25
 595 776 595 776 539 729 c 0,26,27
 475 675 475 675 440.5 630.5 c 128,-1,28
 406 586 406 586 390.5 537 c 128,-1,29
 375 488 375 488 375 391 c 2,30,-1
 375 377 l 1,31,-1
 293 377 l 1,0,-1
260 78 m 256,32,33
 260 176 260 176 340 176 c 0,34,35
 422 176 422 176 422 78 c 256,36,37
 422 -20 422 -20 340 -20 c 0,38,39
 260 -20 260 -20 260 78 c 256,32,33
EndSplineSet
EndChar

StartChar: at
Encoding: 64 64 35
Width: 1815
GlyphClass: 2
Flags: W
LayerCount: 2
Fore
SplineSet
1702 725 m 0,0,1
 1702 497 1702 497 1611.5 359 c 128,-1,2
 1521 221 1521 221 1366 221 c 0,3,4
 1277 221 1277 221 1221.5 275 c 128,-1,5
 1166 329 1166 329 1157 422 c 1,6,-1
 1153 422 l 1,7,8
 1110 322 1110 322 1029 271.5 c 128,-1,9
 948 221 948 221 840 221 c 0,10,11
 692 221 692 221 611 317.5 c 128,-1,12
 530 414 530 414 530 588 c 0,13,14
 530 790 530 790 650.5 918.5 c 128,-1,15
 771 1047 771 1047 965 1047 c 0,16,17
 1103 1047 1103 1047 1251 1006 c 1,18,-1
 1229 542 l 1,19,-1
 1229 512 l 2,20,21
 1229 408 1229 408 1264 355.5 c 128,-1,22
 1299 303 1299 303 1380 303 c 0,23,24
 1483 303 1483 303 1548.5 419.5 c 128,-1,25
 1614 536 1614 536 1614 723 c 0,26,27
 1614 917 1614 917 1535 1063 c 128,-1,28
 1456 1209 1456 1209 1309.5 1287.5 c 128,-1,29
 1163 1366 1163 1366 975 1366 c 0,30,31
 745 1366 745 1366 569.5 1266.5 c 128,-1,32
 394 1167 394 1167 299.5 985 c 128,-1,33
 205 803 205 803 205 567 c 0,34,35
 205 245 205 245 372 69.5 c 128,-1,36
 539 -106 539 -106 846 -106 c 0,37,38
 939 -106 939 -106 1034.5 -88 c 128,-1,39
 1130 -70 1130 -70 1266 -18 c 1,40,-1
 1266 -117 l 1,41,42
 1063 -197 1063 -197 852 -197 c 0,43,44
 503 -197 503 -197 308 3.5 c 128,-1,45
 113 204 113 204 113 561 c 0,46,47
 113 817 113 817 221.5 1021.5 c 128,-1,48
 330 1226 330 1226 528.5 1339 c 128,-1,49
 727 1452 727 1452 977 1452 c 0,50,51
 1192 1452 1192 1452 1357.5 1363 c 128,-1,52
 1523 1274 1523 1274 1612.5 1108.5 c 128,-1,53
 1702 943 1702 943 1702 725 c 0,0,1
633 590 m 0,54,55
 633 447 633 447 688 375 c 128,-1,56
 743 303 743 303 862 303 c 0,57,58
 1117 303 1117 303 1135 649 c 1,59,-1
 1151 940 l 1,60,61
 1072 967 1072 967 958 967 c 0,62,63
 809 967 809 967 721 864.5 c 128,-1,64
 633 762 633 762 633 590 c 0,54,55
EndSplineSet
EndChar

StartChar: A
Encoding: 65 65 36
Width: 1229
GlyphClass: 2
Flags: W
LayerCount: 2
Fore
SplineSet
911 516 m 1,0,-1
 317 516 l 1,1,-1
 113 0 l 1,2,-1
 0 0 l 1,3,-1
 588 1468 l 1,4,-1
 653 1468 l 1,5,-1
 1229 0 l 1,6,-1
 1114 0 l 1,7,-1
 911 516 l 1,0,-1
354 608 m 1,8,-1
 877 608 l 1,9,-1
 678 1135 l 1,10,11
 653 1197 653 1197 618 1307 c 1,12,13
 591 1211 591 1211 559 1133 c 1,14,-1
 354 608 l 1,8,-1
EndSplineSet
EndChar

StartChar: B
Encoding: 66 66 37
Width: 1284
GlyphClass: 2
Flags: W
LayerCount: 2
Fore
SplineSet
207 1462 m 1,0,-1
 608 1462 l 2,1,2
 879 1462 879 1462 1006 1370 c 128,-1,3
 1133 1278 1133 1278 1133 1092 c 0,4,5
 1133 965 1133 965 1055.5 880.5 c 128,-1,6
 978 796 978 796 829 772 c 1,7,-1
 829 766 l 1,8,9
 1004 740 1004 740 1086.5 655.5 c 128,-1,10
 1169 571 1169 571 1169 420 c 0,11,12
 1169 218 1169 218 1035 109 c 128,-1,13
 901 0 901 0 655 0 c 2,14,-1
 207 0 l 1,15,-1
 207 1462 l 1,0,-1
309 811 m 1,16,-1
 631 811 l 2,17,18
 837 811 837 811 930.5 879.5 c 128,-1,19
 1024 948 1024 948 1024 1094 c 256,20,21
 1024 1240 1024 1240 918.5 1306 c 128,-1,22
 813 1372 813 1372 604 1372 c 2,23,-1
 309 1372 l 1,24,-1
 309 811 l 1,16,-1
309 721 m 1,25,-1
 309 90 l 1,26,-1
 653 90 l 2,27,28
 1059 90 1059 90 1059 420 c 0,29,30
 1059 721 1059 721 631 721 c 2,31,-1
 309 721 l 1,25,-1
EndSplineSet
EndChar

StartChar: C
Encoding: 67 67 38
Width: 1272
GlyphClass: 2
Flags: W
LayerCount: 2
Fore
SplineSet
831 1391 m 0,0,1
 556 1391 556 1391 398 1215 c 128,-1,2
 240 1039 240 1039 240 733 c 0,3,4
 240 420 240 420 389 247 c 128,-1,5
 538 74 538 74 815 74 c 0,6,7
 999 74 999 74 1153 121 c 1,8,-1
 1153 31 l 1,9,10
 1008 -20 1008 -20 791 -20 c 0,11,12
 483 -20 483 -20 306 179 c 128,-1,13
 129 378 129 378 129 735 c 0,14,15
 129 958 129 958 213.5 1128 c 128,-1,16
 298 1298 298 1298 456.5 1390.5 c 128,-1,17
 615 1483 615 1483 825 1483 c 0,18,19
 1039 1483 1039 1483 1208 1403 c 1,20,-1
 1167 1311 l 1,21,22
 1007 1391 1007 1391 831 1391 c 0,0,1
EndSplineSet
EndChar

StartChar: D
Encoding: 68 68 39
Width: 1446
GlyphClass: 2
Flags: W
LayerCount: 2
Fore
SplineSet
1317 745 m 0,0,1
 1317 377 1317 377 1124 188.5 c 128,-1,2
 931 0 931 0 557 0 c 2,3,-1
 207 0 l 1,4,-1
 207 1462 l 1,5,-1
 602 1462 l 2,6,7
 952 1462 952 1462 1134.5 1279 c 128,-1,8
 1317 1096 1317 1096 1317 745 c 0,0,1
1206 741 m 0,9,10
 1206 1055 1206 1055 1046.5 1213.5 c 128,-1,11
 887 1372 887 1372 578 1372 c 2,12,-1
 309 1372 l 1,13,-1
 309 90 l 1,14,-1
 551 90 l 2,15,16
 1206 90 1206 90 1206 741 c 0,9,10
EndSplineSet
EndChar

StartChar: E
Encoding: 69 69 40
Width: 1130
GlyphClass: 2
Flags: W
LayerCount: 2
Fore
SplineSet
1006 0 m 1,0,-1
 207 0 l 1,1,-1
 207 1462 l 1,2,-1
 1006 1462 l 1,3,-1
 1006 1368 l 1,4,-1
 309 1368 l 1,5,-1
 309 815 l 1,6,-1
 967 815 l 1,7,-1
 967 721 l 1,8,-1
 309 721 l 1,9,-1
 309 94 l 1,10,-1
 1006 94 l 1,11,-1
 1006 0 l 1,0,-1
EndSplineSet
EndChar

StartChar: F
Encoding: 70 70 41
Width: 1028
GlyphClass: 2
Flags: W
LayerCount: 2
Fore
SplineSet
309 0 m 1,0,-1
 207 0 l 1,1,-1
 207 1462 l 1,2,-1
 1008 1462 l 1,3,-1
 1008 1368 l 1,4,-1
 309 1368 l 1,5,-1
 309 748 l 1,6,-1
 969 748 l 1,7,-1
 969 653 l 1,8,-1
 309 653 l 1,9,-1
 309 0 l 1,0,-1
EndSplineSet
EndChar

StartChar: G
Encoding: 71 71 42
Width: 1481
GlyphClass: 2
Flags: W
LayerCount: 2
Fore
SplineSet
782 737 m 1,0,-1
 1321 737 l 1,1,-1
 1321 70 l 1,2,3
 1109 -20 1109 -20 844 -20 c 0,4,5
 498 -20 498 -20 313.5 175.5 c 128,-1,6
 129 371 129 371 129 729 c 0,7,8
 129 952 129 952 220.5 1124.5 c 128,-1,9
 312 1297 312 1297 482.5 1391 c 128,-1,10
 653 1485 653 1485 874 1485 c 0,11,12
 1113 1485 1113 1485 1303 1397 c 1,13,-1
 1262 1305 l 1,14,15
 1072 1393 1072 1393 868 1393 c 0,16,17
 579 1393 579 1393 409.5 1214.5 c 128,-1,18
 240 1036 240 1036 240 733 c 0,19,20
 240 403 240 403 401 236.5 c 128,-1,21
 562 70 562 70 874 70 c 0,22,23
 1076 70 1076 70 1217 127 c 1,24,-1
 1217 641 l 1,25,-1
 782 641 l 1,26,-1
 782 737 l 1,0,-1
EndSplineSet
EndChar

StartChar: H
Encoding: 72 72 43
Width: 1473
GlyphClass: 2
Flags: W
LayerCount: 2
Fore
SplineSet
1266 0 m 1,0,-1
 1163 0 l 1,1,-1
 1163 719 l 1,2,-1
 309 719 l 1,3,-1
 309 0 l 1,4,-1
 207 0 l 1,5,-1
 207 1462 l 1,6,-1
 309 1462 l 1,7,-1
 309 813 l 1,8,-1
 1163 813 l 1,9,-1
 1163 1462 l 1,10,-1
 1266 1462 l 1,11,-1
 1266 0 l 1,0,-1
EndSplineSet
EndChar

StartChar: I.alt
Encoding: 65539 -1 44
Width: 623
GlyphClass: 2
Flags: W
LayerCount: 2
Fore
SplineSet
532 0 m 1,0,-1
 90 0 l 1,1,-1
 90 66 l 1,2,-1
 260 86 l 1,3,-1
 260 1376 l 1,4,-1
 90 1397 l 1,5,-1
 90 1462 l 1,6,-1
 532 1462 l 1,7,-1
 532 1397 l 1,8,-1
 362 1376 l 1,9,-1
 362 86 l 1,10,-1
 532 66 l 1,11,-1
 532 0 l 1,0,-1
EndSplineSet
EndChar

StartChar: J
Encoding: 74 74 45
Width: 506
GlyphClass: 2
Flags: W
LayerCount: 2
Fore
SplineSet
-33 -369 m 0,0,1
 -125 -369 -125 -369 -184 -342 c 1,2,-1
 -184 -254 l 1,3,4
 -106 -274 -106 -274 -35 -274 c 0,5,6
 207 -274 207 -274 207 -10 c 2,7,-1
 207 1462 l 1,8,-1
 309 1462 l 1,9,-1
 309 0 l 2,10,11
 309 -369 309 -369 -33 -369 c 0,0,1
EndSplineSet
EndChar

StartChar: K
Encoding: 75 75 46
Width: 1190
GlyphClass: 2
Flags: W
LayerCount: 2
Fore
SplineSet
1190 0 m 1,0,-1
 1065 0 l 1,1,-1
 504 772 l 1,2,-1
 309 600 l 1,3,-1
 309 0 l 1,4,-1
 207 0 l 1,5,-1
 207 1462 l 1,6,-1
 309 1462 l 1,7,-1
 309 702 l 1,8,-1
 471 864 l 1,9,-1
 1044 1462 l 1,10,-1
 1174 1462 l 1,11,-1
 575 844 l 1,12,-1
 1190 0 l 1,0,-1
EndSplineSet
EndChar

StartChar: L
Encoding: 76 76 47
Width: 1051
GlyphClass: 2
Flags: W
LayerCount: 2
Fore
SplineSet
207 0 m 1,0,-1
 207 1462 l 1,1,-1
 309 1462 l 1,2,-1
 309 96 l 1,3,-1
 1006 96 l 1,4,-1
 1006 0 l 1,5,-1
 207 0 l 1,0,-1
EndSplineSet
EndChar

StartChar: M
Encoding: 77 77 48
Width: 1767
GlyphClass: 2
Flags: W
LayerCount: 2
Fore
SplineSet
850 0 m 1,0,-1
 305 1350 l 1,1,-1
 297 1350 l 1,2,3
 305 1226 305 1226 305 1096 c 2,4,-1
 305 0 l 1,5,-1
 207 0 l 1,6,-1
 207 1462 l 1,7,-1
 365 1462 l 1,8,-1
 883 176 l 1,9,-1
 889 176 l 1,10,-1
 1407 1462 l 1,11,-1
 1561 1462 l 1,12,-1
 1561 0 l 1,13,-1
 1458 0 l 1,14,-1
 1458 1108 l 2,15,16
 1458 1224 1458 1224 1470 1348 c 1,17,-1
 1462 1348 l 1,18,-1
 915 0 l 1,19,-1
 850 0 l 1,0,-1
EndSplineSet
EndChar

StartChar: N
Encoding: 78 78 49
Width: 1477
GlyphClass: 2
Flags: W
LayerCount: 2
Fore
SplineSet
1270 0 m 1,0,-1
 1167 0 l 1,1,-1
 301 1298 l 1,2,-1
 293 1298 l 1,3,4
 305 1066 305 1066 305 948 c 2,5,-1
 305 0 l 1,6,-1
 207 0 l 1,7,-1
 207 1462 l 1,8,-1
 309 1462 l 1,9,-1
 1174 166 l 1,10,-1
 1180 166 l 1,11,12
 1171 346 1171 346 1171 508 c 2,13,-1
 1171 1462 l 1,14,-1
 1270 1462 l 1,15,-1
 1270 0 l 1,0,-1
EndSplineSet
EndChar

StartChar: O
Encoding: 79 79 50
Width: 1565
GlyphClass: 2
Flags: W
LayerCount: 2
Fore
SplineSet
1436 733 m 0,0,1
 1436 385 1436 385 1262 182.5 c 128,-1,2
 1088 -20 1088 -20 782 -20 c 0,3,4
 477 -20 477 -20 303 182.5 c 128,-1,5
 129 385 129 385 129 735 c 0,6,7
 129 1084 129 1084 304.5 1284.5 c 128,-1,8
 480 1485 480 1485 784 1485 c 0,9,10
 1090 1485 1090 1485 1263 1283.5 c 128,-1,11
 1436 1082 1436 1082 1436 733 c 0,0,1
240 733 m 0,12,13
 240 419 240 419 380 247.5 c 128,-1,14
 520 76 520 76 782 76 c 0,15,16
 1046 76 1046 76 1185.5 246 c 128,-1,17
 1325 416 1325 416 1325 733 c 0,18,19
 1325 1049 1325 1049 1185.5 1217.5 c 128,-1,20
 1046 1386 1046 1386 784 1386 c 0,21,22
 523 1386 523 1386 381.5 1216 c 128,-1,23
 240 1046 240 1046 240 733 c 0,12,13
EndSplineSet
EndChar

StartChar: P
Encoding: 80 80 51
Width: 1198
GlyphClass: 2
Flags: W
LayerCount: 2
Fore
SplineSet
1087 1042 m 0,0,1
 1087 830 1087 830 943 717 c 128,-1,2
 799 604 799 604 535 604 c 2,3,-1
 309 604 l 1,4,-1
 309 0 l 1,5,-1
 207 0 l 1,6,-1
 207 1462 l 1,7,-1
 565 1462 l 2,8,9
 1087 1462 1087 1462 1087 1042 c 0,0,1
309 692 m 1,10,-1
 510 692 l 2,11,12
 757 692 757 692 867 773.5 c 128,-1,13
 977 855 977 855 977 1038 c 0,14,15
 977 1207 977 1207 873 1288.5 c 128,-1,16
 769 1370 769 1370 551 1370 c 2,17,-1
 309 1370 l 1,18,-1
 309 692 l 1,10,-1
EndSplineSet
EndChar

StartChar: Q
Encoding: 81 81 52
Width: 1565
GlyphClass: 2
Flags: W
LayerCount: 2
Fore
SplineSet
1436 733 m 0,0,1
 1436 439 1436 439 1310 246.5 c 128,-1,2
 1184 54 1184 54 961 0 c 1,3,-1
 1294 -348 l 1,4,-1
 1128 -348 l 1,5,-1
 846 -18 l 1,6,-1
 813 -20 l 1,7,-1
 782 -20 l 2,8,9
 477 -20 477 -20 303 182.5 c 128,-1,10
 129 385 129 385 129 735 c 0,11,12
 129 1084 129 1084 304.5 1284.5 c 128,-1,13
 480 1485 480 1485 784 1485 c 0,14,15
 1090 1485 1090 1485 1263 1283.5 c 128,-1,16
 1436 1082 1436 1082 1436 733 c 0,0,1
240 733 m 0,17,18
 240 419 240 419 380 247.5 c 128,-1,19
 520 76 520 76 782 76 c 0,20,21
 1046 76 1046 76 1185.5 246 c 128,-1,22
 1325 416 1325 416 1325 733 c 0,23,24
 1325 1049 1325 1049 1185.5 1217.5 c 128,-1,25
 1046 1386 1046 1386 784 1386 c 0,26,27
 523 1386 523 1386 381.5 1216 c 128,-1,28
 240 1046 240 1046 240 733 c 0,17,18
EndSplineSet
EndChar

StartChar: R
Encoding: 82 82 53
Width: 1217
GlyphClass: 2
Flags: W
LayerCount: 2
Fore
SplineSet
309 637 m 1,0,-1
 309 0 l 1,1,-1
 207 0 l 1,2,-1
 207 1462 l 1,3,-1
 555 1462 l 2,4,5
 827 1462 827 1462 957 1361.5 c 128,-1,6
 1087 1261 1087 1261 1087 1059 c 0,7,8
 1087 912 1087 912 1009.5 811 c 128,-1,9
 932 710 932 710 774 666 c 1,10,-1
 1171 0 l 1,11,-1
 1049 0 l 1,12,-1
 672 637 l 1,13,-1
 309 637 l 1,0,-1
309 725 m 1,14,-1
 588 725 l 2,15,16
 773 725 773 725 875 807.5 c 128,-1,17
 977 890 977 890 977 1051 c 0,18,19
 977 1218 977 1218 877 1294 c 128,-1,20
 777 1370 777 1370 551 1370 c 2,21,-1
 309 1370 l 1,22,-1
 309 725 l 1,14,-1
EndSplineSet
EndChar

StartChar: S
Encoding: 83 83 54
Width: 1116
GlyphClass: 2
Flags: W
LayerCount: 2
Fore
SplineSet
1014 377 m 0,0,1
 1014 194 1014 194 879.5 87 c 128,-1,2
 745 -20 745 -20 522 -20 c 0,3,4
 254 -20 254 -20 111 39 c 1,5,-1
 111 141 l 1,6,7
 269 74 269 74 514 74 c 0,8,9
 694 74 694 74 799.5 156.5 c 128,-1,10
 905 239 905 239 905 373 c 0,11,12
 905 456 905 456 870 510.5 c 128,-1,13
 835 565 835 565 756 610 c 128,-1,14
 677 655 677 655 524 707 c 0,15,16
 300 784 300 784 214.5 873.5 c 128,-1,17
 129 963 129 963 129 1112 c 0,18,19
 129 1276 129 1276 257.5 1379.5 c 128,-1,20
 386 1483 386 1483 588 1483 c 0,21,22
 794 1483 794 1483 975 1405 c 1,23,-1
 938 1317 l 1,24,25
 756 1393 756 1393 590 1393 c 0,26,27
 428 1393 428 1393 332 1318 c 128,-1,28
 236 1243 236 1243 236 1114 c 0,29,30
 236 1033 236 1033 265.5 981 c 128,-1,31
 295 929 295 929 362 887.5 c 128,-1,32
 429 846 429 846 592 788 c 1,33,34
 763 729 763 729 849 673.5 c 128,-1,35
 935 618 935 618 974.5 547.5 c 128,-1,36
 1014 477 1014 477 1014 377 c 0,0,1
EndSplineSet
EndChar

StartChar: T
Encoding: 84 84 55
Width: 1073
GlyphClass: 2
Flags: W
LayerCount: 2
Fore
SplineSet
588 0 m 1,0,-1
 485 0 l 1,1,-1
 485 1366 l 1,2,-1
 10 1366 l 1,3,-1
 10 1462 l 1,4,-1
 1063 1462 l 1,5,-1
 1063 1366 l 1,6,-1
 588 1366 l 1,7,-1
 588 0 l 1,0,-1
EndSplineSet
EndChar

StartChar: U
Encoding: 85 85 56
Width: 1473
GlyphClass: 2
Flags: W
LayerCount: 2
Fore
SplineSet
1282 1462 m 1,0,-1
 1282 516 l 2,1,2
 1282 264 1282 264 1136 122 c 128,-1,3
 990 -20 990 -20 729 -20 c 0,4,5
 475 -20 475 -20 332.5 122.5 c 128,-1,6
 190 265 190 265 190 520 c 2,7,-1
 190 1462 l 1,8,-1
 293 1462 l 1,9,-1
 293 516 l 2,10,11
 293 305 293 305 410 187.5 c 128,-1,12
 527 70 527 70 741 70 c 0,13,14
 950 70 950 70 1065 185.5 c 128,-1,15
 1180 301 1180 301 1180 506 c 2,16,-1
 1180 1462 l 1,17,-1
 1282 1462 l 1,0,-1
EndSplineSet
EndChar

StartChar: V
Encoding: 86 86 57
Width: 1182
GlyphClass: 2
Flags: W
LayerCount: 2
Fore
SplineSet
1071 1462 m 1,0,-1
 1182 1462 l 1,1,-1
 635 0 l 1,2,-1
 545 0 l 1,3,-1
 0 1462 l 1,4,-1
 109 1462 l 1,5,-1
 477 467 l 2,6,7
 561 242 561 242 590 129 c 1,8,9
 610 204 610 204 669 362 c 1,10,-1
 1071 1462 l 1,0,-1
EndSplineSet
EndChar

StartChar: W
Encoding: 87 87 58
Width: 1827
GlyphClass: 2
Flags: W
LayerCount: 2
Fore
SplineSet
1372 0 m 1,0,-1
 1288 0 l 1,1,-1
 967 1128 l 2,2,3
 927 1267 927 1267 907 1356 c 1,4,5
 891 1269 891 1269 861.5 1156 c 128,-1,6
 832 1043 832 1043 539 0 c 1,7,-1
 453 0 l 1,8,-1
 51 1462 l 1,9,-1
 158 1462 l 1,10,-1
 414 520 l 2,11,12
 429 463 429 463 442 414.5 c 128,-1,13
 455 366 455 366 465.5 323.5 c 128,-1,14
 476 281 476 281 484.5 241.5 c 128,-1,15
 493 202 493 202 500 162 c 1,16,17
 524 298 524 298 602 575 c 2,18,-1
 852 1462 l 1,19,-1
 965 1462 l 1,20,-1
 1258 444 l 2,21,22
 1309 268 1309 268 1331 160 c 1,23,24
 1344 232 1344 232 1364.5 313 c 128,-1,25
 1385 394 1385 394 1673 1462 c 1,26,-1
 1776 1462 l 1,27,-1
 1372 0 l 1,0,-1
EndSplineSet
EndChar

StartChar: X
Encoding: 88 88 59
Width: 1102
GlyphClass: 2
Flags: W
LayerCount: 2
Fore
SplineSet
1102 0 m 1,0,-1
 985 0 l 1,1,-1
 553 682 l 1,2,-1
 113 0 l 1,3,-1
 0 0 l 1,4,-1
 492 762 l 1,5,-1
 45 1462 l 1,6,-1
 160 1462 l 1,7,-1
 555 836 l 1,8,-1
 956 1462 l 1,9,-1
 1065 1462 l 1,10,-1
 612 764 l 1,11,-1
 1102 0 l 1,0,-1
EndSplineSet
EndChar

StartChar: Y
Encoding: 89 89 60
Width: 1081
GlyphClass: 2
Flags: W
LayerCount: 2
Fore
SplineSet
543 662 m 1,0,-1
 971 1462 l 1,1,-1
 1081 1462 l 1,2,-1
 594 565 l 1,3,-1
 594 0 l 1,4,-1
 489 0 l 1,5,-1
 489 557 l 1,6,-1
 0 1462 l 1,7,-1
 117 1462 l 1,8,-1
 543 662 l 1,0,-1
EndSplineSet
EndChar

StartChar: Z
Encoding: 90 90 61
Width: 1180
GlyphClass: 2
Flags: W
LayerCount: 2
Fore
SplineSet
1098 0 m 1,0,-1
 82 0 l 1,1,-1
 82 76 l 1,2,-1
 938 1366 l 1,3,-1
 121 1366 l 1,4,-1
 121 1462 l 1,5,-1
 1075 1462 l 1,6,-1
 1075 1386 l 1,7,-1
 217 96 l 1,8,-1
 1098 96 l 1,9,-1
 1098 0 l 1,0,-1
EndSplineSet
EndChar

StartChar: bracketleft
Encoding: 91 91 62
Width: 653
GlyphClass: 2
Flags: W
LayerCount: 2
Fore
SplineSet
602 -324 m 1,0,-1
 174 -324 l 1,1,-1
 174 1462 l 1,2,-1
 602 1462 l 1,3,-1
 602 1368 l 1,4,-1
 272 1368 l 1,5,-1
 272 -229 l 1,6,-1
 602 -229 l 1,7,-1
 602 -324 l 1,0,-1
EndSplineSet
EndChar

StartChar: backslash
Encoding: 92 92 63
Width: 698
GlyphClass: 2
Flags: W
LayerCount: 2
Fore
SplineSet
127 1462 m 1,0,-1
 674 0 l 1,1,-1
 571 0 l 1,2,-1
 25 1462 l 1,3,-1
 127 1462 l 1,0,-1
EndSplineSet
EndChar

StartChar: bracketright
Encoding: 93 93 64
Width: 653
GlyphClass: 2
Flags: W
LayerCount: 2
Fore
SplineSet
51 -229 m 1,0,-1
 381 -229 l 1,1,-1
 381 1368 l 1,2,-1
 51 1368 l 1,3,-1
 51 1462 l 1,4,-1
 479 1462 l 1,5,-1
 479 -324 l 1,6,-1
 51 -324 l 1,7,-1
 51 -229 l 1,0,-1
EndSplineSet
EndChar

StartChar: asciicircum
Encoding: 94 94 65
Width: 1169
GlyphClass: 2
Flags: W
LayerCount: 2
Fore
SplineSet
88 561 m 1,0,-1
 553 1473 l 1,1,-1
 621 1473 l 1,2,-1
 1081 561 l 1,3,-1
 981 561 l 1,4,-1
 586 1352 l 1,5,-1
 188 561 l 1,6,-1
 88 561 l 1,0,-1
EndSplineSet
EndChar

StartChar: underscore
Encoding: 95 95 66
Width: 842
GlyphClass: 2
Flags: W
LayerCount: 2
Fore
SplineSet
846 -266 m 1,0,-1
 -4 -266 l 1,1,-1
 -4 -184 l 1,2,-1
 846 -184 l 1,3,-1
 846 -266 l 1,0,-1
EndSplineSet
EndChar

StartChar: grave
Encoding: 96 96 67
Width: 1182
GlyphClass: 2
Flags: W
LayerCount: 2
Fore
SplineSet
776 1241 m 1,0,-1
 707 1241 l 1,1,2
 611 1320 611 1320 518.5 1412.5 c 128,-1,3
 426 1505 426 1505 393 1552 c 1,4,-1
 393 1569 l 1,5,-1
 535 1569 l 1,6,7
 561 1521 561 1521 633.5 1427 c 128,-1,8
 706 1333 706 1333 776 1257 c 1,9,-1
 776 1241 l 1,0,-1
EndSplineSet
EndChar

StartChar: a
Encoding: 97 97 68
Width: 1085
GlyphClass: 2
Flags: W
LayerCount: 2
Fore
SplineSet
842 0 m 1,0,-1
 817 172 l 1,1,-1
 809 172 l 1,2,3
 727 67 727 67 640.5 23.5 c 128,-1,4
 554 -20 554 -20 436 -20 c 0,5,6
 276 -20 276 -20 187 62 c 128,-1,7
 98 144 98 144 98 289 c 0,8,9
 98 448 98 448 230.5 536 c 128,-1,10
 363 624 363 624 614 629 c 1,11,-1
 821 635 l 1,12,-1
 821 707 l 2,13,14
 821 862 821 862 758 941 c 128,-1,15
 695 1020 695 1020 555 1020 c 0,16,17
 404 1020 404 1020 242 936 c 1,18,-1
 205 1022 l 1,19,20
 384 1106 384 1106 559 1106 c 0,21,22
 738 1106 738 1106 826.5 1013 c 128,-1,23
 915 920 915 920 915 723 c 2,24,-1
 915 0 l 1,25,-1
 842 0 l 1,0,-1
442 70 m 0,26,27
 616 70 616 70 716.5 169.5 c 128,-1,28
 817 269 817 269 817 446 c 2,29,-1
 817 553 l 1,30,-1
 627 545 l 1,31,32
 398 534 398 534 300.5 473.5 c 128,-1,33
 203 413 203 413 203 285 c 0,34,35
 203 183 203 183 265.5 126.5 c 128,-1,36
 328 70 328 70 442 70 c 0,26,27
EndSplineSet
EndChar

StartChar: b
Encoding: 98 98 69
Width: 1219
GlyphClass: 2
Flags: W
LayerCount: 2
Fore
SplineSet
641 1108 m 0,0,1
 869 1108 869 1108 984.5 964.5 c 128,-1,2
 1100 821 1100 821 1100 545 c 0,3,4
 1100 274 1100 274 978.5 127 c 128,-1,5
 857 -20 857 -20 637 -20 c 0,6,7
 521 -20 521 -20 428 28 c 128,-1,8
 335 76 335 76 281 164 c 1,9,-1
 272 164 l 1,10,-1
 244 0 l 1,11,-1
 182 0 l 1,12,-1
 182 1556 l 1,13,-1
 281 1556 l 1,14,-1
 281 1165 l 2,15,16
 281 1077 281 1077 277 1003 c 1,17,-1
 274 918 l 1,18,-1
 281 918 l 1,19,20
 343 1016 343 1016 430.5 1062 c 128,-1,21
 518 1108 518 1108 641 1108 c 0,0,1
639 1018 m 0,22,23
 447 1018 447 1018 364 908 c 128,-1,24
 281 798 281 798 281 545 c 2,25,-1
 281 528 l 2,26,27
 281 282 281 282 367.5 175 c 128,-1,28
 454 68 454 68 637 68 c 0,29,30
 815 68 815 68 905 192.5 c 128,-1,31
 995 317 995 317 995 547 c 0,32,33
 995 1018 995 1018 639 1018 c 0,22,23
EndSplineSet
EndChar

StartChar: c
Encoding: 99 99 70
Width: 973
GlyphClass: 2
Flags: W
LayerCount: 2
Fore
SplineSet
616 -20 m 0,0,1
 383 -20 383 -20 251 127 c 128,-1,2
 119 274 119 274 119 537 c 0,3,4
 119 807 119 807 256 957.5 c 128,-1,5
 393 1108 393 1108 631 1108 c 0,6,7
 772 1108 772 1108 901 1059 c 1,8,-1
 874 971 l 1,9,10
 733 1018 733 1018 629 1018 c 0,11,12
 429 1018 429 1018 326 894.5 c 128,-1,13
 223 771 223 771 223 539 c 0,14,15
 223 319 223 319 326 194.5 c 128,-1,16
 429 70 429 70 614 70 c 0,17,18
 762 70 762 70 889 123 c 1,19,-1
 889 31 l 1,20,21
 785 -20 785 -20 616 -20 c 0,0,1
EndSplineSet
EndChar

StartChar: d
Encoding: 100 100 71
Width: 1219
GlyphClass: 2
Flags: W
LayerCount: 2
Fore
SplineSet
580 1108 m 0,0,1
 698 1108 698 1108 784 1065 c 128,-1,2
 870 1022 870 1022 938 918 c 1,3,-1
 944 918 l 1,4,5
 938 1044 938 1044 938 1165 c 2,6,-1
 938 1556 l 1,7,-1
 1036 1556 l 1,8,-1
 1036 0 l 1,9,-1
 971 0 l 1,10,-1
 946 166 l 1,11,-1
 938 166 l 1,12,13
 814 -20 814 -20 582 -20 c 0,14,15
 357 -20 357 -20 238 120 c 128,-1,16
 119 260 119 260 119 528 c 0,17,18
 119 810 119 810 237 959 c 128,-1,19
 355 1108 355 1108 580 1108 c 0,0,1
580 1018 m 0,20,21
 402 1018 402 1018 312.5 893 c 128,-1,22
 223 768 223 768 223 530 c 0,23,24
 223 68 223 68 582 68 c 0,25,26
 766 68 766 68 852 175 c 128,-1,27
 938 282 938 282 938 528 c 2,28,-1
 938 545 l 2,29,30
 938 797 938 797 853.5 907.5 c 128,-1,31
 769 1018 769 1018 580 1018 c 0,20,21
EndSplineSet
EndChar

StartChar: e
Encoding: 101 101 72
Width: 1124
GlyphClass: 2
Flags: W
LayerCount: 2
Fore
SplineSet
621 -20 m 0,0,1
 384 -20 384 -20 251.5 126 c 128,-1,2
 119 272 119 272 119 535 c 0,3,4
 119 795 119 795 247 951.5 c 128,-1,5
 375 1108 375 1108 592 1108 c 0,6,7
 784 1108 784 1108 895 974 c 128,-1,8
 1006 840 1006 840 1006 610 c 2,9,-1
 1006 530 l 1,10,-1
 223 530 l 1,11,12
 225 306 225 306 327.5 188 c 128,-1,13
 430 70 430 70 621 70 c 0,14,15
 714 70 714 70 784.5 83 c 128,-1,16
 855 96 855 96 963 139 c 1,17,-1
 963 49 l 1,18,19
 871 9 871 9 793 -5.5 c 128,-1,20
 715 -20 715 -20 621 -20 c 0,0,1
592 1020 m 0,21,22
 435 1020 435 1020 340 916.5 c 128,-1,23
 245 813 245 813 229 618 c 1,24,-1
 901 618 l 1,25,26
 901 807 901 807 819 913.5 c 128,-1,27
 737 1020 737 1020 592 1020 c 0,21,22
EndSplineSet
EndChar

StartChar: f
Encoding: 102 102 73
Width: 614
GlyphClass: 2
Flags: W
LayerCount: 2
Fore
SplineSet
586 1001 m 1,0,-1
 330 1001 l 1,1,-1
 330 0 l 1,2,-1
 231 0 l 1,3,-1
 231 1001 l 1,4,-1
 29 1001 l 1,5,-1
 29 1059 l 1,6,-1
 231 1096 l 1,7,-1
 231 1180 l 2,8,9
 231 1380 231 1380 304.5 1473.5 c 128,-1,10
 378 1567 378 1567 545 1567 c 0,11,12
 635 1567 635 1567 725 1540 c 1,13,-1
 702 1454 l 1,14,15
 622 1479 622 1479 543 1479 c 0,16,17
 427 1479 427 1479 378.5 1410.5 c 128,-1,18
 330 1342 330 1342 330 1188 c 2,19,-1
 330 1087 l 1,20,-1
 586 1087 l 1,21,-1
 586 1001 l 1,0,-1
EndSplineSet
EndChar

StartChar: g
Encoding: 103 103 74
Width: 1071
GlyphClass: 2
Flags: W
LayerCount: 2
Fore
SplineSet
1030 1087 m 1,0,-1
 1030 1018 l 1,1,-1
 805 1004 l 1,2,3
 895 892 895 892 895 758 c 0,4,5
 895 601 895 601 790.5 503.5 c 128,-1,6
 686 406 686 406 510 406 c 0,7,8
 436 406 436 406 406 412 c 1,9,10
 347 381 347 381 316 339 c 128,-1,11
 285 297 285 297 285 250 c 0,12,13
 285 198 285 198 324.5 174 c 128,-1,14
 364 150 364 150 457 150 c 2,15,-1
 647 150 l 2,16,17
 824 150 824 150 918 78.5 c 128,-1,18
 1012 7 1012 7 1012 -133 c 0,19,20
 1012 -305 1012 -305 872.5 -398.5 c 128,-1,21
 733 -492 733 -492 475 -492 c 0,22,23
 270 -492 270 -492 157.5 -413 c 128,-1,24
 45 -334 45 -334 45 -193 c 0,25,26
 45 -81 45 -81 114.5 -7 c 128,-1,27
 184 67 184 67 303 94 c 1,28,29
 254 115 254 115 224.5 153.5 c 128,-1,30
 195 192 195 192 195 242 c 0,31,32
 195 351 195 351 334 434 c 1,33,34
 239 473 239 473 186 556.5 c 128,-1,35
 133 640 133 640 133 748 c 0,36,37
 133 911 133 911 236.5 1009.5 c 128,-1,38
 340 1108 340 1108 516 1108 c 0,39,40
 623 1108 623 1108 682 1087 c 1,41,-1
 1030 1087 l 1,0,-1
150 -184 m 0,42,43
 150 -408 150 -408 483 -408 c 0,44,45
 911 -408 911 -408 911 -135 c 0,46,47
 911 -37 911 -37 844 7 c 128,-1,48
 777 51 777 51 627 51 c 2,49,-1
 449 51 l 2,50,51
 150 51 150 51 150 -184 c 0,42,43
233 748 m 0,52,53
 233 622 233 622 309.5 552.5 c 128,-1,54
 386 483 386 483 514 483 c 0,55,56
 650 483 650 483 722.5 552 c 128,-1,57
 795 621 795 621 795 752 c 0,58,59
 795 891 795 891 720.5 960.5 c 128,-1,60
 646 1030 646 1030 512 1030 c 0,61,62
 382 1030 382 1030 307.5 955.5 c 128,-1,63
 233 881 233 881 233 748 c 0,52,53
EndSplineSet
Substitution2: "'ss02' Style Set 2 in Latin lookup 0 subtable" g.alt
EndChar

StartChar: h
Encoding: 104 104 75
Width: 1208
GlyphClass: 2
Flags: W
LayerCount: 2
Fore
SplineSet
940 0 m 1,0,-1
 940 705 l 2,1,2
 940 869 940 869 871 943.5 c 128,-1,3
 802 1018 802 1018 657 1018 c 0,4,5
 462 1018 462 1018 371.5 919.5 c 128,-1,6
 281 821 281 821 281 600 c 2,7,-1
 281 0 l 1,8,-1
 182 0 l 1,9,-1
 182 1556 l 1,10,-1
 281 1556 l 1,11,-1
 281 1061 l 1,12,-1
 276 922 l 1,13,-1
 283 922 l 1,14,15
 344 1020 344 1020 437 1064 c 128,-1,16
 530 1108 530 1108 668 1108 c 0,17,18
 1038 1108 1038 1108 1038 711 c 2,19,-1
 1038 0 l 1,20,-1
 940 0 l 1,0,-1
EndSplineSet
EndChar

StartChar: i
Encoding: 105 105 76
Width: 463
GlyphClass: 2
Flags: W
LayerCount: 2
Fore
SplineSet
281 0 m 1,0,-1
 182 0 l 1,1,-1
 182 1087 l 1,2,-1
 281 1087 l 1,3,-1
 281 0 l 1,0,-1
168 1389 m 0,4,5
 168 1485 168 1485 231 1485 c 0,6,7
 262 1485 262 1485 279.5 1460 c 128,-1,8
 297 1435 297 1435 297 1389 c 0,9,10
 297 1344 297 1344 279.5 1318 c 128,-1,11
 262 1292 262 1292 231 1292 c 0,12,13
 168 1292 168 1292 168 1389 c 0,4,5
EndSplineSet
EndChar

StartChar: j
Encoding: 106 106 77
Width: 463
GlyphClass: 2
Flags: W
LayerCount: 2
Fore
SplineSet
37 -492 m 0,0,1
 -43 -492 -43 -492 -98 -467 c 1,2,-1
 -98 -381 l 1,3,4
 -29 -401 -29 -401 31 -401 c 0,5,6
 182 -401 182 -401 182 -225 c 2,7,-1
 182 1087 l 1,8,-1
 281 1087 l 1,9,-1
 281 -211 l 2,10,11
 281 -346 281 -346 217.5 -419 c 128,-1,12
 154 -492 154 -492 37 -492 c 0,0,1
168 1389 m 0,13,14
 168 1485 168 1485 231 1485 c 0,15,16
 262 1485 262 1485 279.5 1460 c 128,-1,17
 297 1435 297 1435 297 1389 c 0,18,19
 297 1344 297 1344 279.5 1318 c 128,-1,20
 262 1292 262 1292 231 1292 c 0,21,22
 168 1292 168 1292 168 1389 c 0,13,14
EndSplineSet
EndChar

StartChar: k
Encoding: 107 107 78
Width: 991
GlyphClass: 2
Flags: W
LayerCount: 2
Fore
SplineSet
279 477 m 1,0,-1
 834 1087 l 1,1,-1
 954 1087 l 1,2,-1
 526 623 l 1,3,-1
 991 0 l 1,4,-1
 872 0 l 1,5,-1
 459 549 l 1,6,-1
 281 387 l 1,7,-1
 281 0 l 1,8,-1
 182 0 l 1,9,-1
 182 1556 l 1,10,-1
 281 1556 l 1,11,-1
 281 776 l 1,12,-1
 274 477 l 1,13,-1
 279 477 l 1,0,-1
EndSplineSet
EndChar

StartChar: l
Encoding: 108 108 79
Width: 463
GlyphClass: 2
Flags: W
LayerCount: 2
Fore
SplineSet
281 0 m 1,0,-1
 182 0 l 1,1,-1
 182 1556 l 1,2,-1
 281 1556 l 1,3,-1
 281 0 l 1,0,-1
EndSplineSet
EndChar

StartChar: m
Encoding: 109 109 80
Width: 1808
GlyphClass: 2
Flags: W
LayerCount: 2
Fore
SplineSet
1540 0 m 1,0,-1
 1540 713 l 2,1,2
 1540 872 1540 872 1478 945 c 128,-1,3
 1416 1018 1416 1018 1288 1018 c 0,4,5
 1121 1018 1121 1018 1041 926 c 128,-1,6
 961 834 961 834 961 637 c 2,7,-1
 961 0 l 1,8,-1
 860 0 l 1,9,-1
 860 743 l 2,10,11
 860 1018 860 1018 608 1018 c 0,12,13
 437 1018 437 1018 359 918.5 c 128,-1,14
 281 819 281 819 281 600 c 2,15,-1
 281 0 l 1,16,-1
 182 0 l 1,17,-1
 182 1087 l 1,18,-1
 264 1087 l 1,19,-1
 285 938 l 1,20,-1
 291 938 l 1,21,22
 336 1019 336 1019 419 1063.5 c 128,-1,23
 502 1108 502 1108 602 1108 c 0,24,25
 859 1108 859 1108 932 915 c 1,26,-1
 936 915 l 1,27,28
 989 1008 989 1008 1078.5 1058 c 128,-1,29
 1168 1108 1168 1108 1282 1108 c 0,30,31
 1460 1108 1460 1108 1549 1013 c 128,-1,32
 1638 918 1638 918 1638 711 c 2,33,-1
 1638 0 l 1,34,-1
 1540 0 l 1,0,-1
EndSplineSet
EndChar

StartChar: n
Encoding: 110 110 81
Width: 1208
GlyphClass: 2
Flags: W
LayerCount: 2
Fore
SplineSet
940 0 m 1,0,-1
 940 705 l 2,1,2
 940 869 940 869 871 943.5 c 128,-1,3
 802 1018 802 1018 657 1018 c 0,4,5
 462 1018 462 1018 371.5 919.5 c 128,-1,6
 281 821 281 821 281 600 c 2,7,-1
 281 0 l 1,8,-1
 182 0 l 1,9,-1
 182 1087 l 1,10,-1
 266 1087 l 1,11,-1
 285 938 l 1,12,-1
 291 938 l 1,13,14
 397 1108 397 1108 668 1108 c 0,15,16
 1038 1108 1038 1108 1038 711 c 2,17,-1
 1038 0 l 1,18,-1
 940 0 l 1,0,-1
EndSplineSet
EndChar

StartChar: o
Encoding: 111 111 82
Width: 1200
GlyphClass: 2
Flags: W
LayerCount: 2
Fore
SplineSet
1081 545 m 0,0,1
 1081 279 1081 279 952 129.5 c 128,-1,2
 823 -20 823 -20 596 -20 c 0,3,4
 453 -20 453 -20 344 49 c 128,-1,5
 235 118 235 118 177 247 c 128,-1,6
 119 376 119 376 119 545 c 0,7,8
 119 811 119 811 248 959.5 c 128,-1,9
 377 1108 377 1108 602 1108 c 0,10,11
 826 1108 826 1108 953.5 957.5 c 128,-1,12
 1081 807 1081 807 1081 545 c 0,0,1
223 545 m 0,13,14
 223 321 223 321 321.5 195.5 c 128,-1,15
 420 70 420 70 600 70 c 256,16,17
 780 70 780 70 878.5 195.5 c 128,-1,18
 977 321 977 321 977 545 c 0,19,20
 977 770 977 770 877.5 894 c 128,-1,21
 778 1018 778 1018 598 1018 c 256,22,23
 418 1018 418 1018 320.5 894.5 c 128,-1,24
 223 771 223 771 223 545 c 0,13,14
EndSplineSet
EndChar

StartChar: p
Encoding: 112 112 83
Width: 1219
GlyphClass: 2
Flags: W
LayerCount: 2
Fore
SplineSet
647 -20 m 0,0,1
 396 -20 396 -20 281 168 c 1,2,-1
 274 168 l 1,3,-1
 277 84 l 1,4,5
 281 10 281 10 281 -78 c 2,6,-1
 281 -492 l 1,7,-1
 182 -492 l 1,8,-1
 182 1087 l 1,9,-1
 266 1087 l 1,10,-1
 285 932 l 1,11,-1
 291 932 l 1,12,13
 403 1108 403 1108 649 1108 c 0,14,15
 869 1108 869 1108 984.5 963.5 c 128,-1,16
 1100 819 1100 819 1100 543 c 0,17,18
 1100 275 1100 275 978.5 127.5 c 128,-1,19
 857 -20 857 -20 647 -20 c 0,0,1
645 68 m 0,20,21
 812 68 812 68 903.5 192 c 128,-1,22
 995 316 995 316 995 539 c 0,23,24
 995 1018 995 1018 649 1018 c 0,25,26
 459 1018 459 1018 370 913.5 c 128,-1,27
 281 809 281 809 281 573 c 2,28,-1
 281 541 l 2,29,30
 281 286 281 286 366.5 177 c 128,-1,31
 452 68 452 68 645 68 c 0,20,21
EndSplineSet
EndChar

StartChar: q
Encoding: 113 113 84
Width: 1219
GlyphClass: 2
Flags: W
LayerCount: 2
Fore
SplineSet
569 -20 m 0,0,1
 355 -20 355 -20 237 122 c 128,-1,2
 119 264 119 264 119 532 c 0,3,4
 119 807 119 807 237 957.5 c 128,-1,5
 355 1108 355 1108 575 1108 c 0,6,7
 811 1108 811 1108 928 934 c 1,8,-1
 934 934 l 1,9,-1
 952 1087 l 1,10,-1
 1036 1087 l 1,11,-1
 1036 -492 l 1,12,-1
 938 -492 l 1,13,-1
 938 -78 l 2,14,15
 938 44 938 44 944 170 c 1,16,-1
 938 170 l 1,17,18
 820 -20 820 -20 569 -20 c 0,0,1
571 68 m 0,19,20
 769 68 769 68 853.5 177 c 128,-1,21
 938 286 938 286 938 543 c 2,22,-1
 938 555 l 2,23,24
 938 800 938 800 853 909 c 128,-1,25
 768 1018 768 1018 582 1018 c 0,26,27
 406 1018 406 1018 314.5 894 c 128,-1,28
 223 770 223 770 223 530 c 0,29,30
 223 301 223 301 312.5 184.5 c 128,-1,31
 402 68 402 68 571 68 c 0,19,20
EndSplineSet
EndChar

StartChar: r
Encoding: 114 114 85
Width: 797
GlyphClass: 2
Flags: W
LayerCount: 2
Fore
SplineSet
610 1108 m 0,0,1
 679 1108 679 1108 758 1094 c 1,2,-1
 739 999 l 1,3,4
 671 1016 671 1016 598 1016 c 0,5,6
 459 1016 459 1016 370 898 c 128,-1,7
 281 780 281 780 281 600 c 2,8,-1
 281 0 l 1,9,-1
 182 0 l 1,10,-1
 182 1087 l 1,11,-1
 266 1087 l 1,12,-1
 276 891 l 1,13,-1
 283 891 l 1,14,15
 350 1011 350 1011 426 1059.5 c 128,-1,16
 502 1108 502 1108 610 1108 c 0,0,1
EndSplineSet
EndChar

StartChar: s
Encoding: 115 115 86
Width: 954
GlyphClass: 2
Flags: W
LayerCount: 2
Fore
SplineSet
856 283 m 0,0,1
 856 137 856 137 745 58.5 c 128,-1,2
 634 -20 634 -20 430 -20 c 0,3,4
 212 -20 212 -20 84 47 c 1,5,-1
 84 154 l 1,6,7
 248 72 248 72 430 72 c 0,8,9
 591 72 591 72 674.5 125.5 c 128,-1,10
 758 179 758 179 758 268 c 0,11,12
 758 350 758 350 691.5 406 c 128,-1,13
 625 462 625 462 473 516 c 0,14,15
 310 575 310 575 244 617.5 c 128,-1,16
 178 660 178 660 144.5 713.5 c 128,-1,17
 111 767 111 767 111 844 c 0,18,19
 111 966 111 966 213.5 1037 c 128,-1,20
 316 1108 316 1108 500 1108 c 0,21,22
 676 1108 676 1108 834 1042 c 1,23,-1
 797 952 l 1,24,25
 637 1018 637 1018 500 1018 c 0,26,27
 367 1018 367 1018 289 974 c 128,-1,28
 211 930 211 930 211 852 c 0,29,30
 211 767 211 767 271.5 716 c 128,-1,31
 332 665 332 665 508 602 c 0,32,33
 655 549 655 549 722 506.5 c 128,-1,34
 789 464 789 464 822.5 410 c 128,-1,35
 856 356 856 356 856 283 c 0,0,1
EndSplineSet
EndChar

StartChar: t
Encoding: 116 116 87
Width: 686
GlyphClass: 2
Flags: W
LayerCount: 2
Fore
SplineSet
469 68 m 256,0,1
 563 68 563 68 633 84 c 1,2,-1
 633 4 l 1,3,4
 561 -20 561 -20 467 -20 c 0,5,6
 323 -20 323 -20 254.5 57 c 128,-1,7
 186 134 186 134 186 299 c 2,8,-1
 186 1001 l 1,9,-1
 25 1001 l 1,10,-1
 25 1059 l 1,11,-1
 186 1104 l 1,12,-1
 236 1350 l 1,13,-1
 287 1350 l 1,14,-1
 287 1087 l 1,15,-1
 606 1087 l 1,16,-1
 606 1001 l 1,17,-1
 287 1001 l 1,18,-1
 287 313 l 2,19,20
 287 188 287 188 331 128 c 128,-1,21
 375 68 375 68 469 68 c 256,0,1
EndSplineSet
EndChar

StartChar: u
Encoding: 117 117 88
Width: 1208
GlyphClass: 2
Flags: W
LayerCount: 2
Fore
SplineSet
268 1087 m 1,0,-1
 268 383 l 2,1,2
 268 219 268 219 337 144.5 c 128,-1,3
 406 70 406 70 551 70 c 0,4,5
 745 70 745 70 836.5 168 c 128,-1,6
 928 266 928 266 928 487 c 2,7,-1
 928 1087 l 1,8,-1
 1026 1087 l 1,9,-1
 1026 0 l 1,10,-1
 942 0 l 1,11,-1
 924 150 l 1,12,-1
 918 150 l 1,13,14
 812 -20 812 -20 541 -20 c 0,15,16
 170 -20 170 -20 170 377 c 2,17,-1
 170 1087 l 1,18,-1
 268 1087 l 1,0,-1
EndSplineSet
EndChar

StartChar: v
Encoding: 118 118 89
Width: 940
GlyphClass: 2
Flags: W
LayerCount: 2
Fore
SplineSet
420 0 m 1,0,-1
 0 1087 l 1,1,-1
 102 1087 l 1,2,-1
 383 348 l 1,3,4
 439 206 439 206 467 100 c 1,5,-1
 473 100 l 1,6,7
 514 236 514 236 557 350 c 2,8,-1
 838 1087 l 1,9,-1
 940 1087 l 1,10,-1
 520 0 l 1,11,-1
 420 0 l 1,0,-1
EndSplineSet
EndChar

StartChar: w
Encoding: 119 119 90
Width: 1481
GlyphClass: 2
Flags: W
LayerCount: 2
Fore
SplineSet
1051 0 m 1,0,-1
 813 727 l 1,1,2
 790 801 790 801 754 944 c 1,3,-1
 748 944 l 1,4,-1
 727 870 l 1,5,-1
 682 725 l 1,6,-1
 440 0 l 1,7,-1
 342 0 l 1,8,-1
 31 1087 l 1,9,-1
 137 1087 l 1,10,-1
 311 457 l 1,11,12
 372 223 372 223 391 113 c 1,13,-1
 397 113 l 1,14,15
 456 347 456 347 483 424 c 2,16,-1
 707 1087 l 1,17,-1
 797 1087 l 1,18,-1
 1010 426 l 1,19,20
 1082 191 1082 191 1098 115 c 1,21,-1
 1104 115 l 1,22,23
 1112 180 1112 180 1184 463 c 1,24,-1
 1350 1087 l 1,25,-1
 1450 1087 l 1,26,-1
 1155 0 l 1,27,-1
 1051 0 l 1,0,-1
EndSplineSet
EndChar

StartChar: x
Encoding: 120 120 91
Width: 1020
GlyphClass: 2
Flags: W
LayerCount: 2
Fore
SplineSet
449 559 m 1,0,-1
 70 1087 l 1,1,-1
 184 1087 l 1,2,-1
 508 629 l 1,3,-1
 829 1087 l 1,4,-1
 938 1087 l 1,5,-1
 565 559 l 1,6,-1
 965 0 l 1,7,-1
 850 0 l 1,8,-1
 508 485 l 1,9,-1
 164 0 l 1,10,-1
 55 0 l 1,11,-1
 449 559 l 1,0,-1
EndSplineSet
EndChar

StartChar: y
Encoding: 121 121 92
Width: 940
GlyphClass: 2
Flags: W
LayerCount: 2
Fore
SplineSet
0 1087 m 1,0,-1
 102 1087 l 1,1,-1
 332 477 l 2,2,3
 437 196 437 196 465 98 c 1,4,-1
 471 98 l 1,5,6
 513 227 513 227 608 483 c 1,7,-1
 838 1087 l 1,8,-1
 940 1087 l 1,9,-1
 453 -176 l 2,10,11
 394 -330 394 -330 354 -384 c 128,-1,12
 314 -438 314 -438 260.5 -465 c 128,-1,13
 207 -492 207 -492 131 -492 c 0,14,15
 74 -492 74 -492 4 -471 c 1,16,-1
 4 -385 l 1,17,18
 62 -401 62 -401 129 -401 c 0,19,20
 180 -401 180 -401 219 -377 c 128,-1,21
 258 -353 258 -353 289.5 -302.5 c 128,-1,22
 321 -252 321 -252 362.5 -142.5 c 128,-1,23
 404 -33 404 -33 416 0 c 1,24,-1
 0 1087 l 1,0,-1
EndSplineSet
EndChar

StartChar: z
Encoding: 122 122 93
Width: 944
GlyphClass: 2
Flags: W
LayerCount: 2
Fore
SplineSet
858 0 m 1,0,-1
 82 0 l 1,1,-1
 82 63 l 1,2,-1
 727 999 l 1,3,-1
 129 999 l 1,4,-1
 129 1087 l 1,5,-1
 856 1087 l 1,6,-1
 856 1024 l 1,7,-1
 207 88 l 1,8,-1
 858 88 l 1,9,-1
 858 0 l 1,0,-1
EndSplineSet
EndChar

StartChar: braceleft
Encoding: 123 123 94
Width: 723
GlyphClass: 2
Flags: W
LayerCount: 2
Fore
SplineSet
389 -27 m 2,0,1
 389 -129 389 -129 448.5 -179.5 c 128,-1,2
 508 -230 508 -230 651 -233 c 1,3,-1
 651 -324 l 1,4,5
 456 -324 456 -324 373.5 -249 c 128,-1,6
 291 -174 291 -174 291 -18 c 2,7,-1
 291 319 l 2,8,9
 291 524 291 524 61 528 c 1,10,-1
 61 608 l 1,11,12
 183 610 183 610 237 659 c 128,-1,13
 291 708 291 708 291 807 c 2,14,-1
 291 1157 l 2,15,16
 291 1456 291 1456 651 1462 c 1,17,-1
 651 1372 l 1,18,19
 513 1367 513 1367 451 1314 c 128,-1,20
 389 1261 389 1261 389 1157 c 2,21,-1
 389 852 l 2,22,23
 389 722 389 722 345 658 c 128,-1,24
 301 594 301 594 203 573 c 1,25,-1
 203 565 l 1,26,27
 300 545 300 545 344.5 481.5 c 128,-1,28
 389 418 389 418 389 295 c 2,29,-1
 389 -27 l 2,0,1
EndSplineSet
EndChar

StartChar: bar
Encoding: 124 124 95
Width: 1108
GlyphClass: 2
Flags: W
LayerCount: 2
Fore
SplineSet
508 1561 m 1,0,-1
 600 1561 l 1,1,-1
 600 -506 l 1,2,-1
 508 -506 l 1,3,-1
 508 1561 l 1,0,-1
EndSplineSet
EndChar

StartChar: braceright
Encoding: 125 125 96
Width: 723
GlyphClass: 2
Flags: W
LayerCount: 2
Fore
SplineSet
334 295 m 2,0,1
 334 418 334 418 378.5 481.5 c 128,-1,2
 423 545 423 545 520 565 c 1,3,-1
 520 573 l 1,4,5
 423 593 423 593 378.5 657 c 128,-1,6
 334 721 334 721 334 852 c 2,7,-1
 334 1157 l 2,8,9
 334 1260 334 1260 272.5 1313.5 c 128,-1,10
 211 1367 211 1367 72 1372 c 1,11,-1
 72 1462 l 1,12,13
 246 1462 246 1462 339 1384.5 c 128,-1,14
 432 1307 432 1307 432 1157 c 2,15,-1
 432 807 l 2,16,17
 432 707 432 707 486.5 658.5 c 128,-1,18
 541 610 541 610 662 608 c 1,19,-1
 662 528 l 1,20,21
 432 524 432 524 432 319 c 2,22,-1
 432 -18 l 2,23,24
 432 -173 432 -173 349.5 -248.5 c 128,-1,25
 267 -324 267 -324 72 -324 c 1,26,-1
 72 -233 l 1,27,28
 213 -231 213 -231 273.5 -180.5 c 128,-1,29
 334 -130 334 -130 334 -27 c 2,30,-1
 334 295 l 2,0,1
EndSplineSet
EndChar

StartChar: asciitilde
Encoding: 126 126 97
Width: 1169
GlyphClass: 2
Flags: W
LayerCount: 2
Fore
SplineSet
334 745 m 0,0,1
 285 745 285 745 226 714.5 c 128,-1,2
 167 684 167 684 111 625 c 1,3,-1
 111 719 l 1,4,5
 219 829 219 829 344 829 c 0,6,7
 405 829 405 829 459 815.5 c 128,-1,8
 513 802 513 802 614 758 c 1,9,10
 740 700 740 700 834 700 c 0,11,12
 890 700 890 700 943.5 730.5 c 128,-1,13
 997 761 997 761 1059 825 c 1,14,-1
 1059 729 l 1,15,16
 1011 680 1011 680 954.5 648 c 128,-1,17
 898 616 898 616 825 616 c 0,18,19
 709 616 709 616 555 688 c 0,20,21
 431 745 431 745 334 745 c 0,0,1
EndSplineSet
EndChar

StartChar: exclamdown
Encoding: 161 161 99
Width: 492
GlyphClass: 2
Flags: W
LayerCount: 2
Fore
SplineSet
215 711 m 1,0,-1
 276 711 l 1,1,-1
 305 -375 l 1,2,-1
 186 -375 l 1,3,-1
 215 711 l 1,0,-1
166 1010 m 0,4,5
 166 1108 166 1108 246 1108 c 0,6,7
 328 1108 328 1108 328 1010 c 0,8,9
 328 957 328 957 304.5 934 c 128,-1,10
 281 911 281 911 246 911 c 0,11,12
 212 911 212 911 189 934 c 128,-1,13
 166 957 166 957 166 1010 c 0,4,5
EndSplineSet
EndChar

StartChar: cent
Encoding: 162 162 100
Width: 1169
GlyphClass: 2
Flags: W
LayerCount: 2
Fore
SplineSet
602 190 m 1,0,1
 416 220 416 220 313.5 365 c 128,-1,2
 211 510 211 510 211 745 c 0,3,4
 211 977 211 977 313.5 1126.5 c 128,-1,5
 416 1276 416 1276 602 1309 c 1,6,-1
 602 1483 l 1,7,-1
 684 1483 l 1,8,-1
 684 1317 l 1,9,-1
 698 1317 l 2,10,11
 829 1317 829 1317 973 1262 c 1,12,-1
 942 1178 l 1,13,14
 808 1229 808 1229 705 1229 c 0,15,16
 518 1229 518 1229 416.5 1106.5 c 128,-1,17
 315 984 315 984 315 748 c 0,18,19
 315 523 315 523 415.5 398.5 c 128,-1,20
 516 274 516 274 696 274 c 0,21,22
 827 274 827 274 963 332 c 1,23,-1
 963 240 l 1,24,25
 853 184 853 184 696 184 c 2,26,-1
 684 184 l 1,27,-1
 684 -20 l 1,28,-1
 602 -20 l 1,29,-1
 602 190 l 1,0,1
EndSplineSet
EndChar

StartChar: sterling
Encoding: 163 163 101
Width: 1169
GlyphClass: 2
Flags: W
LayerCount: 2
Fore
SplineSet
412 676 m 1,0,-1
 412 420 l 2,1,2
 412 304 412 304 377 224 c 128,-1,3
 342 144 342 144 264 96 c 1,4,-1
 1073 96 l 1,5,-1
 1073 0 l 1,6,-1
 78 0 l 1,7,-1
 78 84 l 1,8,9
 188 105 188 105 249.5 194 c 128,-1,10
 311 283 311 283 311 418 c 2,11,-1
 311 676 l 1,12,-1
 100 676 l 1,13,-1
 100 758 l 1,14,-1
 311 758 l 1,15,-1
 311 1055 l 2,16,17
 311 1259 311 1259 409 1370 c 128,-1,18
 507 1481 507 1481 690 1481 c 0,19,20
 865 1481 865 1481 1020 1413 c 1,21,-1
 985 1327 l 1,22,23
 828 1393 828 1393 690 1393 c 0,24,25
 549 1393 549 1393 480.5 1312 c 128,-1,26
 412 1231 412 1231 412 1059 c 2,27,-1
 412 758 l 1,28,-1
 823 758 l 1,29,-1
 823 676 l 1,30,-1
 412 676 l 1,0,-1
EndSplineSet
EndChar

StartChar: currency
Encoding: 164 164 102
Width: 1169
GlyphClass: 2
Flags: W
LayerCount: 2
Fore
SplineSet
991 723 m 0,0,1
 991 572 991 572 901 467 c 1,2,-1
 1040 326 l 1,3,-1
 981 266 l 1,4,-1
 844 408 l 1,5,6
 734 315 734 315 584 315 c 0,7,8
 431 315 431 315 324 408 c 1,9,-1
 186 266 l 1,10,-1
 127 326 l 1,11,-1
 266 467 l 1,12,13
 176 573 176 573 176 723 c 0,14,15
 176 870 176 870 266 981 c 1,16,-1
 127 1122 l 1,17,-1
 186 1182 l 1,18,-1
 324 1040 l 1,19,20
 427 1133 427 1133 584 1133 c 0,21,22
 739 1133 739 1133 844 1040 c 1,23,-1
 981 1182 l 1,24,-1
 1040 1122 l 1,25,-1
 901 981 l 1,26,27
 991 870 991 870 991 723 c 0,0,1
584 395 m 0,28,29
 718 395 718 395 812.5 490.5 c 128,-1,30
 907 586 907 586 907 723 c 0,31,32
 907 859 907 859 812 956 c 128,-1,33
 717 1053 717 1053 584 1053 c 0,34,35
 450 1053 450 1053 355 956 c 128,-1,36
 260 859 260 859 260 723 c 256,37,38
 260 587 260 587 354.5 491 c 128,-1,39
 449 395 449 395 584 395 c 0,28,29
EndSplineSet
EndChar

StartChar: yen
Encoding: 165 165 103
Width: 1169
GlyphClass: 2
Flags: W
LayerCount: 2
Fore
SplineSet
586 666 m 1,0,-1
 1014 1462 l 1,1,-1
 1124 1462 l 1,2,-1
 692 674 l 1,3,-1
 975 674 l 1,4,-1
 975 592 l 1,5,-1
 637 592 l 1,6,-1
 637 387 l 1,7,-1
 975 387 l 1,8,-1
 975 305 l 1,9,-1
 637 305 l 1,10,-1
 637 0 l 1,11,-1
 532 0 l 1,12,-1
 532 305 l 1,13,-1
 195 305 l 1,14,-1
 195 387 l 1,15,-1
 532 387 l 1,16,-1
 532 592 l 1,17,-1
 195 592 l 1,18,-1
 195 674 l 1,19,-1
 473 674 l 1,20,-1
 43 1462 l 1,21,-1
 160 1462 l 1,22,-1
 586 666 l 1,0,-1
EndSplineSet
EndChar

StartChar: brokenbar
Encoding: 166 166 104
Width: 1108
GlyphClass: 2
Flags: W
LayerCount: 2
Fore
SplineSet
508 1561 m 1,0,-1
 600 1561 l 1,1,-1
 600 797 l 1,2,-1
 508 797 l 1,3,-1
 508 1561 l 1,0,-1
508 258 m 1,4,-1
 600 258 l 1,5,-1
 600 -506 l 1,6,-1
 508 -506 l 1,7,-1
 508 258 l 1,4,-1
EndSplineSet
EndChar

StartChar: section
Encoding: 167 167 105
Width: 1057
GlyphClass: 2
Flags: W
LayerCount: 2
Fore
SplineSet
145 813 m 0,0,1
 145 896 145 896 195.5 965.5 c 128,-1,2
 246 1035 246 1035 334 1073 c 1,3,4
 248 1120 248 1120 209 1175 c 128,-1,5
 170 1230 170 1230 170 1311 c 0,6,7
 170 1428 170 1428 271.5 1494.5 c 128,-1,8
 373 1561 373 1561 547 1561 c 0,9,10
 722 1561 722 1561 883 1497 c 1,11,-1
 848 1417 l 1,12,13
 757 1451 757 1451 689.5 1464 c 128,-1,14
 622 1477 622 1477 545 1477 c 0,15,16
 411 1477 411 1477 339.5 1432.5 c 128,-1,17
 268 1388 268 1388 268 1313 c 0,18,19
 268 1259 268 1259 293.5 1224.5 c 128,-1,20
 319 1190 319 1190 379 1159 c 128,-1,21
 439 1128 439 1128 567 1085 c 0,22,23
 759 1021 759 1021 831 952.5 c 128,-1,24
 903 884 903 884 903 782 c 0,25,26
 903 609 903 609 717 508 c 1,27,28
 803 466 803 466 846 412 c 128,-1,29
 889 358 889 358 889 276 c 0,30,31
 889 141 889 141 776 68.5 c 128,-1,32
 663 -4 663 -4 465 -4 c 0,33,34
 373 -4 373 -4 294 11 c 128,-1,35
 215 26 215 26 129 63 c 1,36,-1
 129 158 l 1,37,38
 311 80 311 80 461 80 c 0,39,40
 623 80 623 80 708 129.5 c 128,-1,41
 793 179 793 179 793 270 c 0,42,43
 793 325 793 325 768 357.5 c 128,-1,44
 743 390 743 390 679.5 423 c 128,-1,45
 616 456 616 456 489 502 c 0,46,47
 289 575 289 575 217 643.5 c 128,-1,48
 145 712 145 712 145 813 c 0,0,1
246 825 m 0,49,50
 246 760 246 760 277.5 721 c 128,-1,51
 309 682 309 682 383 646 c 128,-1,52
 457 610 457 610 633 547 c 1,53,54
 715 588 715 588 759 645 c 128,-1,55
 803 702 803 702 803 766 c 0,56,57
 803 828 803 828 771 868 c 128,-1,58
 739 908 739 908 662.5 945 c 128,-1,59
 586 982 586 982 426 1032 c 1,60,61
 345 1009 345 1009 295.5 953 c 128,-1,62
 246 897 246 897 246 825 c 0,49,50
EndSplineSet
EndChar

StartChar: dieresis
Encoding: 168 168 106
Width: 1182
GlyphClass: 2
Flags: W
LayerCount: 2
Fore
SplineSet
336 1389 m 0,0,1
 336 1435 336 1435 351.5 1455 c 128,-1,2
 367 1475 367 1475 399 1475 c 0,3,4
 463 1475 463 1475 463 1389 c 256,5,6
 463 1303 463 1303 399 1303 c 0,7,8
 336 1303 336 1303 336 1389 c 0,0,1
717 1389 m 0,9,10
 717 1435 717 1435 732.5 1455 c 128,-1,11
 748 1475 748 1475 780 1475 c 0,12,13
 844 1475 844 1475 844 1389 c 256,14,15
 844 1303 844 1303 780 1303 c 0,16,17
 717 1303 717 1303 717 1389 c 0,9,10
EndSplineSet
EndChar

StartChar: ordfeminine
Encoding: 170 170 108
Width: 686
GlyphClass: 2
Flags: W
LayerCount: 2
Fore
SplineSet
512 813 m 1,0,-1
 487 885 l 1,1,2
 403 801 403 801 285 801 c 0,3,4
 190 801 190 801 134 850 c 128,-1,5
 78 899 78 899 78 989 c 0,6,7
 78 1089 78 1089 158 1140.5 c 128,-1,8
 238 1192 238 1192 399 1200 c 1,9,-1
 494 1204 l 1,10,-1
 494 1247 l 2,11,12
 494 1324 494 1324 456 1361.5 c 128,-1,13
 418 1399 418 1399 350 1399 c 0,14,15
 263 1399 263 1399 154 1350 c 1,16,-1
 121 1423 l 1,17,18
 238 1479 238 1479 352 1479 c 0,19,20
 580 1479 580 1479 580 1264 c 2,21,-1
 580 813 l 1,22,-1
 512 813 l 1,0,-1
168 993 m 0,23,24
 168 939 168 939 203 908 c 128,-1,25
 238 877 238 877 299 877 c 0,26,27
 389 877 389 877 441.5 927 c 128,-1,28
 494 977 494 977 494 1069 c 2,29,-1
 494 1133 l 1,30,-1
 406 1128 l 2,31,32
 290 1122 290 1122 229 1091.5 c 128,-1,33
 168 1061 168 1061 168 993 c 0,23,24
EndSplineSet
EndChar

StartChar: logicalnot
Encoding: 172 172 110
Width: 1169
GlyphClass: 2
Flags: W
LayerCount: 2
Fore
SplineSet
1038 764 m 1,0,-1
 1038 270 l 1,1,-1
 956 270 l 1,2,-1
 956 682 l 1,3,-1
 111 682 l 1,4,-1
 111 764 l 1,5,-1
 1038 764 l 1,0,-1
EndSplineSet
EndChar

StartChar: overscore
Encoding: 175 175 113
Width: 1024
GlyphClass: 2
Flags: W
LayerCount: 2
Fore
SplineSet
1030 1556 m 1,0,-1
 -6 1556 l 1,1,-1
 -6 1638 l 1,2,-1
 1030 1638 l 1,3,-1
 1030 1556 l 1,0,-1
EndSplineSet
EndChar

StartChar: degree
Encoding: 176 176 114
Width: 877
GlyphClass: 2
Flags: W
LayerCount: 2
Fore
SplineSet
139 1184 m 0,0,1
 139 1316 139 1316 225.5 1399.5 c 128,-1,2
 312 1483 312 1483 438 1483 c 256,3,4
 564 1483 564 1483 650.5 1399.5 c 128,-1,5
 737 1316 737 1316 737 1184 c 256,6,7
 737 1052 737 1052 650.5 968.5 c 128,-1,8
 564 885 564 885 438 885 c 0,9,10
 308 885 308 885 223.5 968 c 128,-1,11
 139 1051 139 1051 139 1184 c 0,0,1
229 1184 m 0,12,13
 229 1093 229 1093 290 1030 c 128,-1,14
 351 967 351 967 438 967 c 0,15,16
 524 967 524 967 585.5 1029 c 128,-1,17
 647 1091 647 1091 647 1184 c 0,18,19
 647 1276 647 1276 587 1338.5 c 128,-1,20
 527 1401 527 1401 438 1401 c 0,21,22
 348 1401 348 1401 288.5 1337 c 128,-1,23
 229 1273 229 1273 229 1184 c 0,12,13
EndSplineSet
EndChar

StartChar: twosuperior
Encoding: 178 178 116
Width: 688
GlyphClass: 2
Flags: W
LayerCount: 2
Fore
SplineSet
629 586 m 1,0,-1
 53 586 l 1,1,-1
 53 664 l 1,2,-1
 295 901 l 1,3,4
 420 1022 420 1022 467 1094 c 128,-1,5
 514 1166 514 1166 514 1243 c 0,6,7
 514 1314 514 1314 467.5 1355.5 c 128,-1,8
 421 1397 421 1397 344 1397 c 0,9,10
 236 1397 236 1397 127 1315 c 1,11,-1
 78 1380 l 1,12,13
 197 1483 197 1483 348 1483 c 0,14,15
 472 1483 472 1483 542 1419.5 c 128,-1,16
 612 1356 612 1356 612 1245 c 0,17,18
 612 1198 612 1198 599 1156 c 128,-1,19
 586 1114 586 1114 559 1070.5 c 128,-1,20
 532 1027 532 1027 490.5 980.5 c 128,-1,21
 449 934 449 934 182 674 c 1,22,-1
 629 674 l 1,23,-1
 629 586 l 1,0,-1
EndSplineSet
EndChar

StartChar: threesuperior
Encoding: 179 179 117
Width: 688
GlyphClass: 2
Flags: W
LayerCount: 2
Fore
SplineSet
616 1260 m 0,0,1
 616 1182 616 1182 572 1128.5 c 128,-1,2
 528 1075 528 1075 455 1053 c 1,3,4
 641 1008 641 1008 641 842 c 0,5,6
 641 712 641 712 552.5 640.5 c 128,-1,7
 464 569 464 569 305 569 c 0,8,9
 161 569 161 569 41 629 c 1,10,-1
 41 717 l 1,11,12
 177 655 177 655 307 655 c 0,13,14
 422 655 422 655 481.5 704 c 128,-1,15
 541 753 541 753 541 840 c 0,16,17
 541 923 541 923 481.5 962 c 128,-1,18
 422 1001 422 1001 303 1001 c 2,19,-1
 172 1001 l 1,20,-1
 172 1085 l 1,21,-1
 307 1085 l 2,22,23
 412 1085 412 1085 465 1128.5 c 128,-1,24
 518 1172 518 1172 518 1249 c 0,25,26
 518 1316 518 1316 471 1356.5 c 128,-1,27
 424 1397 424 1397 344 1397 c 0,28,29
 216 1397 216 1397 98 1319 c 1,30,-1
 51 1389 l 1,31,32
 181 1483 181 1483 344 1483 c 0,33,34
 471 1483 471 1483 543.5 1423 c 128,-1,35
 616 1363 616 1363 616 1260 c 0,0,1
EndSplineSet
EndChar

StartChar: acute
Encoding: 180 180 118
Width: 1182
GlyphClass: 2
Flags: W
LayerCount: 2
Fore
SplineSet
393 1257 m 1,0,1
 466 1336 466 1336 537.5 1428.5 c 128,-1,2
 609 1521 609 1521 635 1569 c 1,3,-1
 776 1569 l 1,4,-1
 776 1552 l 1,5,6
 740 1500 740 1500 653.5 1414 c 128,-1,7
 567 1328 567 1328 463 1241 c 1,8,-1
 393 1241 l 1,9,-1
 393 1257 l 1,0,1
EndSplineSet
EndChar

StartChar: mu
Encoding: 181 181 119
Width: 1221
GlyphClass: 2
Flags: W
LayerCount: 2
Fore
SplineSet
281 1087 m 1,0,-1
 281 383 l 2,1,2
 281 219 281 219 350 144.5 c 128,-1,3
 419 70 419 70 563 70 c 0,4,5
 757 70 757 70 848.5 168 c 128,-1,6
 940 266 940 266 940 487 c 2,7,-1
 940 1087 l 1,8,-1
 1038 1087 l 1,9,-1
 1038 0 l 1,10,-1
 954 0 l 1,11,-1
 936 150 l 1,12,-1
 930 150 l 1,13,14
 880 73 880 73 780 26.5 c 128,-1,15
 680 -20 680 -20 563 -20 c 0,16,17
 464 -20 464 -20 395.5 7.5 c 128,-1,18
 327 35 327 35 276 92 c 1,19,20
 281 0 281 0 281 -78 c 2,21,-1
 281 -492 l 1,22,-1
 182 -492 l 1,23,-1
 182 1087 l 1,24,-1
 281 1087 l 1,0,-1
EndSplineSet
EndChar

StartChar: paragraph
Encoding: 182 182 120
Width: 1341
GlyphClass: 2
Flags: W
LayerCount: 2
Fore
SplineSet
1106 -260 m 1,0,-1
 1006 -260 l 1,1,-1
 1006 1462 l 1,2,-1
 778 1462 l 1,3,-1
 778 -260 l 1,4,-1
 678 -260 l 1,5,-1
 678 559 l 1,6,7
 614 541 614 541 532 541 c 0,8,9
 316 541 316 541 214.5 666 c 128,-1,10
 113 791 113 791 113 1042 c 0,11,12
 113 1302 113 1302 222 1429 c 128,-1,13
 331 1556 331 1556 563 1556 c 2,14,-1
 1106 1556 l 1,15,-1
 1106 -260 l 1,0,-1
EndSplineSet
EndChar

StartChar: cedilla
Encoding: 184 184 122
Width: 420
GlyphClass: 2
Flags: W
LayerCount: 2
Fore
SplineSet
393 -291 m 0,0,1
 393 -391 393 -391 325.5 -441.5 c 128,-1,2
 258 -492 258 -492 137 -492 c 0,3,4
 69 -492 69 -492 43 -481 c 1,5,-1
 43 -393 l 1,6,7
 73 -403 73 -403 135 -403 c 0,8,9
 213 -403 213 -403 254 -375 c 128,-1,10
 295 -347 295 -347 295 -295 c 0,11,12
 295 -201 295 -201 102 -174 c 1,13,-1
 195 0 l 1,14,-1
 291 0 l 1,15,-1
 225 -117 l 1,16,17
 393 -154 393 -154 393 -291 c 0,0,1
EndSplineSet
EndChar

StartChar: ordmasculine
Encoding: 186 186 124
Width: 739
GlyphClass: 2
Flags: W
LayerCount: 2
Fore
SplineSet
670 1141 m 0,0,1
 670 980 670 980 590 890.5 c 128,-1,2
 510 801 510 801 367 801 c 256,3,4
 224 801 224 801 147 887 c 128,-1,5
 70 973 70 973 70 1141 c 0,6,7
 70 1303 70 1303 148 1391 c 128,-1,8
 226 1479 226 1479 371 1479 c 0,9,10
 513 1479 513 1479 591.5 1392 c 128,-1,11
 670 1305 670 1305 670 1141 c 0,0,1
160 1141 m 0,12,13
 160 877 160 877 369 877 c 256,14,15
 578 877 578 877 578 1141 c 0,16,17
 578 1272 578 1272 528 1335.5 c 128,-1,18
 478 1399 478 1399 369 1399 c 256,19,20
 260 1399 260 1399 210 1335.5 c 128,-1,21
 160 1272 160 1272 160 1141 c 0,12,13
EndSplineSet
EndChar

StartChar: questiondown
Encoding: 191 191 129
Width: 862
GlyphClass: 2
Flags: W
LayerCount: 2
Fore
SplineSet
569 711 m 1,0,-1
 569 674 l 2,1,2
 569 549 569 549 529.5 469.5 c 128,-1,3
 490 390 490 390 393 305 c 2,4,-1
 303 226 l 1,5,6
 230 165 230 165 199 105.5 c 128,-1,7
 168 46 168 46 168 -33 c 0,8,9
 168 -157 168 -157 250 -233 c 128,-1,10
 332 -309 332 -309 471 -309 c 0,11,12
 596 -309 596 -309 704 -263 c 2,13,-1
 768 -236 l 1,14,-1
 805 -315 l 1,15,16
 694 -363 694 -363 619.5 -379 c 128,-1,17
 545 -395 545 -395 467 -395 c 0,18,19
 283 -395 283 -395 178.5 -296 c 128,-1,20
 74 -197 74 -197 74 -27 c 0,21,22
 74 43 74 43 94 97 c 128,-1,23
 114 151 114 151 152.5 199 c 128,-1,24
 191 247 191 247 324 358 c 0,25,26
 388 411 388 411 422.5 456.5 c 128,-1,27
 457 502 457 502 472 550.5 c 128,-1,28
 487 599 487 599 487 696 c 2,29,-1
 487 711 l 1,30,-1
 569 711 l 1,0,-1
440 1010 m 0,31,32
 440 1108 440 1108 520 1108 c 0,33,34
 602 1108 602 1108 602 1010 c 0,35,36
 602 957 602 957 578.5 934 c 128,-1,37
 555 911 555 911 520 911 c 0,38,39
 486 911 486 911 463 934 c 128,-1,40
 440 957 440 957 440 1010 c 0,31,32
EndSplineSet
EndChar

StartChar: AE
Encoding: 198 198 136
Width: 1653
GlyphClass: 2
Flags: W
LayerCount: 2
Fore
SplineSet
1528 0 m 1,0,-1
 811 0 l 1,1,-1
 811 516 l 1,2,-1
 336 516 l 1,3,-1
 109 0 l 1,4,-1
 -2 0 l 1,5,-1
 651 1462 l 1,6,-1
 1528 1462 l 1,7,-1
 1528 1368 l 1,8,-1
 913 1368 l 1,9,-1
 913 815 l 1,10,-1
 1489 815 l 1,11,-1
 1489 721 l 1,12,-1
 913 721 l 1,13,-1
 913 94 l 1,14,-1
 1528 94 l 1,15,-1
 1528 0 l 1,0,-1
377 608 m 1,16,-1
 811 608 l 1,17,-1
 811 1368 l 1,18,-1
 711 1368 l 1,19,-1
 377 608 l 1,16,-1
EndSplineSet
EndChar

StartChar: Eth
Encoding: 208 208 146
Width: 1466
GlyphClass: 2
Flags: W
LayerCount: 2
Fore
SplineSet
1317 745 m 0,0,1
 1317 377 1317 377 1124 188.5 c 128,-1,2
 931 0 931 0 557 0 c 2,3,-1
 207 0 l 1,4,-1
 207 678 l 1,5,-1
 47 678 l 1,6,-1
 47 772 l 1,7,-1
 207 772 l 1,8,-1
 207 1462 l 1,9,-1
 602 1462 l 2,10,11
 952 1462 952 1462 1134.5 1279 c 128,-1,12
 1317 1096 1317 1096 1317 745 c 0,0,1
1206 741 m 0,13,14
 1206 1055 1206 1055 1046.5 1213.5 c 128,-1,15
 887 1372 887 1372 578 1372 c 2,16,-1
 309 1372 l 1,17,-1
 309 772 l 1,18,-1
 715 772 l 1,19,-1
 715 678 l 1,20,-1
 309 678 l 1,21,-1
 309 90 l 1,22,-1
 551 90 l 2,23,24
 1206 90 1206 90 1206 741 c 0,13,14
EndSplineSet
EndChar

StartChar: multiply
Encoding: 215 215 153
Width: 1169
GlyphClass: 2
Flags: W
LayerCount: 2
Fore
SplineSet
584 780 m 1,0,-1
 993 1188 l 1,1,-1
 1051 1130 l 1,2,-1
 643 723 l 1,3,-1
 1049 315 l 1,4,-1
 991 258 l 1,5,-1
 584 666 l 1,6,-1
 178 258 l 1,7,-1
 121 315 l 1,8,-1
 526 723 l 1,9,-1
 119 1130 l 1,10,-1
 176 1188 l 1,11,-1
 584 780 l 1,0,-1
EndSplineSet
EndChar

StartChar: Thorn
Encoding: 222 222 160
Width: 1198
GlyphClass: 2
Flags: W
LayerCount: 2
Fore
SplineSet
1087 778 m 0,0,1
 1087 566 1087 566 943 453 c 128,-1,2
 799 340 799 340 535 340 c 2,3,-1
 309 340 l 1,4,-1
 309 0 l 1,5,-1
 207 0 l 1,6,-1
 207 1462 l 1,7,-1
 309 1462 l 1,8,-1
 309 1198 l 1,9,-1
 565 1198 l 2,10,11
 1087 1198 1087 1198 1087 778 c 0,0,1
309 428 m 1,12,-1
 510 428 l 2,13,14
 757 428 757 428 867 509.5 c 128,-1,15
 977 591 977 591 977 774 c 0,16,17
 977 943 977 943 873 1024.5 c 128,-1,18
 769 1106 769 1106 551 1106 c 2,19,-1
 309 1106 l 1,20,-1
 309 428 l 1,12,-1
EndSplineSet
EndChar

StartChar: germandbls
Encoding: 223 223 161
Width: 1194
GlyphClass: 2
Flags: W
LayerCount: 2
Fore
SplineSet
961 1284 m 0,0,1
 961 1145 961 1145 822 1034 c 0,2,3
 741 970 741 970 711.5 933.5 c 128,-1,4
 682 897 682 897 682 858 c 0,5,6
 682 814 682 814 696.5 790 c 128,-1,7
 711 766 711 766 748 733 c 128,-1,8
 785 700 785 700 850 655 c 0,9,10
 956 580 956 580 1001.5 530.5 c 128,-1,11
 1047 481 1047 481 1069.5 427.5 c 128,-1,12
 1092 374 1092 374 1092 307 c 0,13,14
 1092 151 1092 151 1004 65.5 c 128,-1,15
 916 -20 916 -20 758 -20 c 0,16,17
 663 -20 663 -20 583.5 -1.5 c 128,-1,18
 504 17 504 17 457 47 c 1,19,-1
 457 154 l 1,20,21
 522 116 522 116 605.5 92 c 128,-1,22
 689 68 689 68 758 68 c 0,23,24
 872 68 872 68 932.5 122.5 c 128,-1,25
 993 177 993 177 993 283 c 0,26,27
 993 366 993 366 954 427 c 128,-1,28
 915 488 915 488 805 563 c 0,29,30
 678 650 678 650 630 710 c 128,-1,31
 582 770 582 770 582 856 c 0,32,33
 582 916 582 916 614.5 966 c 128,-1,34
 647 1016 647 1016 721 1074 c 0,35,36
 795 1131 795 1131 827.5 1179.5 c 128,-1,37
 860 1228 860 1228 860 1286 c 0,38,39
 860 1379 860 1379 790 1429 c 128,-1,40
 720 1479 720 1479 588 1479 c 0,41,42
 443 1479 443 1479 362 1410 c 128,-1,43
 281 1341 281 1341 281 1214 c 2,44,-1
 281 0 l 1,45,-1
 182 0 l 1,46,-1
 182 1206 l 2,47,48
 182 1379 182 1379 285.5 1473 c 128,-1,49
 389 1567 389 1567 578 1567 c 0,50,51
 766 1567 766 1567 863.5 1494.5 c 128,-1,52
 961 1422 961 1422 961 1284 c 0,0,1
EndSplineSet
EndChar

StartChar: ae
Encoding: 230 230 168
Width: 1731
GlyphClass: 2
Flags: W
LayerCount: 2
Fore
SplineSet
1243 -20 m 0,0,1
 948 -20 948 -20 846 236 c 1,2,3
 778 103 778 103 678 41.5 c 128,-1,4
 578 -20 578 -20 426 -20 c 0,5,6
 270 -20 270 -20 184 62.5 c 128,-1,7
 98 145 98 145 98 289 c 0,8,9
 98 443 98 443 223 532 c 128,-1,10
 348 621 348 621 600 629 c 2,11,-1
 801 635 l 1,12,-1
 801 707 l 2,13,14
 801 862 801 862 739.5 941 c 128,-1,15
 678 1020 678 1020 541 1020 c 0,16,17
 393 1020 393 1020 236 936 c 1,18,-1
 199 1022 l 1,19,20
 372 1106 372 1106 545 1106 c 0,21,22
 806 1106 806 1106 870 895 c 1,23,24
 981 1108 981 1108 1217 1108 c 0,25,26
 1401 1108 1401 1108 1506.5 973.5 c 128,-1,27
 1612 839 1612 839 1612 610 c 2,28,-1
 1612 530 l 1,29,-1
 897 530 l 1,30,31
 897 70 897 70 1245 70 c 0,32,33
 1330 70 1330 70 1395 82 c 128,-1,34
 1460 94 1460 94 1569 139 c 1,35,-1
 1569 49 l 1,36,37
 1477 8 1477 8 1404 -6 c 128,-1,38
 1331 -20 1331 -20 1243 -20 c 0,0,1
434 70 m 0,39,40
 603 70 603 70 700 169.5 c 128,-1,41
 797 269 797 269 797 446 c 2,42,-1
 797 553 l 1,43,-1
 610 545 l 1,44,45
 391 534 391 534 297 473.5 c 128,-1,46
 203 413 203 413 203 285 c 0,47,48
 203 183 203 183 264 126.5 c 128,-1,49
 325 70 325 70 434 70 c 0,39,40
1217 1020 m 0,50,51
 933 1020 933 1020 903 618 c 1,52,-1
 1507 618 l 1,53,54
 1507 806 1507 806 1429.5 913 c 128,-1,55
 1352 1020 1352 1020 1217 1020 c 0,50,51
EndSplineSet
EndChar

StartChar: eth
Encoding: 240 240 178
Width: 1174
GlyphClass: 2
Flags: W
LayerCount: 2
Fore
SplineSet
1055 559 m 0,0,1
 1055 283 1055 283 931 131.5 c 128,-1,2
 807 -20 807 -20 582 -20 c 0,3,4
 368 -20 368 -20 242.5 110 c 128,-1,5
 117 240 117 240 117 471 c 0,6,7
 117 699 117 699 243.5 828.5 c 128,-1,8
 370 958 370 958 586 958 c 0,9,10
 694 958 694 958 773.5 925 c 128,-1,11
 853 892 853 892 922 829 c 1,12,-1
 926 831 l 1,13,14
 862 1101 862 1101 657 1290 c 1,15,-1
 387 1133 l 1,16,-1
 338 1210 l 1,17,-1
 582 1356 l 1,18,19
 496 1418 496 1418 383 1475 c 1,20,-1
 428 1556 l 1,21,22
 575 1487 575 1487 676 1411 c 1,23,-1
 901 1548 l 1,24,-1
 950 1464 l 1,25,-1
 748 1343 l 1,26,27
 902 1192 902 1192 978.5 990 c 128,-1,28
 1055 788 1055 788 1055 559 c 0,0,1
950 557 m 0,29,30
 950 703 950 703 853 785.5 c 128,-1,31
 756 868 756 868 586 868 c 0,32,33
 401 868 401 868 311 767.5 c 128,-1,34
 221 667 221 667 221 463 c 0,35,36
 221 277 221 277 315.5 173.5 c 128,-1,37
 410 70 410 70 584 70 c 0,38,39
 763 70 763 70 856.5 193 c 128,-1,40
 950 316 950 316 950 557 c 0,29,30
EndSplineSet
EndChar

StartChar: divide
Encoding: 247 247 185
Width: 1169
GlyphClass: 2
Flags: W
LayerCount: 2
Fore
SplineSet
111 682 m 1,0,-1
 111 764 l 1,1,-1
 1059 764 l 1,2,-1
 1059 682 l 1,3,-1
 111 682 l 1,0,-1
504 1075 m 0,4,5
 504 1174 504 1174 584 1174 c 0,6,7
 666 1174 666 1174 666 1075 c 0,8,9
 666 1023 666 1023 642.5 1000 c 128,-1,10
 619 977 619 977 584 977 c 0,11,12
 550 977 550 977 527 1000 c 128,-1,13
 504 1023 504 1023 504 1075 c 0,4,5
504 371 m 0,14,15
 504 469 504 469 584 469 c 0,16,17
 666 469 666 469 666 371 c 0,18,19
 666 318 666 318 642.5 295 c 128,-1,20
 619 272 619 272 584 272 c 0,21,22
 550 272 550 272 527 295 c 128,-1,23
 504 318 504 318 504 371 c 0,14,15
EndSplineSet
EndChar

StartChar: thorn
Encoding: 254 254 192
Width: 1219
GlyphClass: 2
Flags: W
LayerCount: 2
Fore
SplineSet
281 918 m 1,0,1
 395 1108 395 1108 649 1108 c 0,2,3
 869 1108 869 1108 984.5 963.5 c 128,-1,4
 1100 819 1100 819 1100 543 c 0,5,6
 1100 275 1100 275 978.5 127.5 c 128,-1,7
 857 -20 857 -20 647 -20 c 0,8,9
 396 -20 396 -20 281 168 c 1,10,-1
 274 168 l 1,11,-1
 277 84 l 1,12,13
 281 10 281 10 281 -78 c 2,14,-1
 281 -492 l 1,15,-1
 182 -492 l 1,16,-1
 182 1556 l 1,17,-1
 281 1556 l 1,18,-1
 281 1165 l 1,19,-1
 274 918 l 1,20,-1
 281 918 l 1,0,1
645 68 m 0,21,22
 812 68 812 68 903.5 192 c 128,-1,23
 995 316 995 316 995 539 c 0,24,25
 995 1018 995 1018 647 1018 c 0,26,27
 454 1018 454 1018 367.5 913 c 128,-1,28
 281 808 281 808 281 559 c 2,29,-1
 281 541 l 2,30,31
 281 286 281 286 366.5 177 c 128,-1,32
 452 68 452 68 645 68 c 0,21,22
EndSplineSet
EndChar

StartChar: aogonek
Encoding: 261 261 199
Width: 1085
GlyphClass: 2
Flags: W
LayerCount: 2
Fore
SplineSet
772 -248 m 0,0,1
 772 -358 772 -358 878 -358 c 0,2,3
 927 -358 927 -358 960 -346 c 1,4,-1
 960 -430 l 1,5,6
 920 -446 920 -446 856 -446 c 0,7,8
 772 -446 772 -446 722.5 -398.5 c 128,-1,9
 673 -351 673 -351 673 -264 c 0,10,11
 673 -194 673 -194 713 -125 c 0,12,13
 751 -58 751 -58 840 13 c 1,14,-1
 817 172 l 1,15,-1
 809 172 l 1,16,17
 727 67 727 67 640.5 23.5 c 128,-1,18
 554 -20 554 -20 436 -20 c 0,19,20
 276 -20 276 -20 187 62 c 128,-1,21
 98 144 98 144 98 289 c 0,22,23
 98 448 98 448 230.5 536 c 128,-1,24
 363 624 363 624 614 629 c 1,25,-1
 821 635 l 1,26,-1
 821 707 l 2,27,28
 821 862 821 862 758 941 c 128,-1,29
 695 1020 695 1020 555 1020 c 0,30,31
 404 1020 404 1020 242 936 c 1,32,-1
 205 1022 l 1,33,34
 384 1106 384 1106 559 1106 c 0,35,36
 738 1106 738 1106 826.5 1013 c 128,-1,37
 915 920 915 920 915 723 c 2,38,-1
 915 0 l 1,39,40
 843 -63 843 -63 807.5 -119.5 c 128,-1,41
 772 -176 772 -176 772 -248 c 0,0,1
442 70 m 0,42,43
 616 70 616 70 716.5 169.5 c 128,-1,44
 817 269 817 269 817 446 c 2,45,-1
 817 553 l 1,46,-1
 627 545 l 1,47,48
 398 534 398 534 300.5 473.5 c 128,-1,49
 203 413 203 413 203 285 c 0,50,51
 203 183 203 183 265.5 126.5 c 128,-1,52
 328 70 328 70 442 70 c 0,42,43
EndSplineSet
EndChar

StartChar: dcroat
Encoding: 273 273 211
Width: 1219
GlyphClass: 2
Flags: W
LayerCount: 2
Fore
SplineSet
580 1108 m 0,0,1
 698 1108 698 1108 784 1065 c 128,-1,2
 870 1022 870 1022 938 918 c 1,3,-1
 944 918 l 1,4,5
 938 1044 938 1044 938 1165 c 2,6,-1
 938 1272 l 1,7,-1
 465 1272 l 1,8,-1
 465 1354 l 1,9,-1
 938 1354 l 1,10,-1
 938 1556 l 1,11,-1
 1036 1556 l 1,12,-1
 1036 1354 l 1,13,-1
 1192 1354 l 1,14,-1
 1192 1272 l 1,15,-1
 1036 1272 l 1,16,-1
 1036 0 l 1,17,-1
 971 0 l 1,18,-1
 946 166 l 1,19,-1
 938 166 l 1,20,21
 814 -20 814 -20 582 -20 c 0,22,23
 357 -20 357 -20 238 120 c 128,-1,24
 119 260 119 260 119 528 c 0,25,26
 119 810 119 810 237 959 c 128,-1,27
 355 1108 355 1108 580 1108 c 0,0,1
580 1018 m 0,28,29
 402 1018 402 1018 312.5 893 c 128,-1,30
 223 768 223 768 223 530 c 0,31,32
 223 68 223 68 582 68 c 0,33,34
 766 68 766 68 852 175 c 128,-1,35
 938 282 938 282 938 528 c 2,36,-1
 938 545 l 2,37,38
 938 797 938 797 853.5 907.5 c 128,-1,39
 769 1018 769 1018 580 1018 c 0,28,29
EndSplineSet
EndChar

StartChar: Hbar
Encoding: 294 294 232
Width: 1473
GlyphClass: 2
Flags: W
LayerCount: 2
Fore
SplineSet
207 1192 m 1,0,-1
 207 1462 l 1,1,-1
 309 1462 l 1,2,-1
 309 1192 l 1,3,-1
 1163 1192 l 1,4,-1
 1163 1462 l 1,5,-1
 1266 1462 l 1,6,-1
 1266 1192 l 1,7,-1
 1473 1192 l 1,8,-1
 1473 1098 l 1,9,-1
 1266 1098 l 1,10,-1
 1266 0 l 1,11,-1
 1163 0 l 1,12,-1
 1163 719 l 1,13,-1
 309 719 l 1,14,-1
 309 0 l 1,15,-1
 207 0 l 1,16,-1
 207 1098 l 1,17,-1
 0 1098 l 1,18,-1
 0 1192 l 1,19,-1
 207 1192 l 1,0,-1
1163 813 m 1,20,-1
 1163 1098 l 1,21,-1
 309 1098 l 1,22,-1
 309 813 l 1,23,-1
 1163 813 l 1,20,-1
EndSplineSet
EndChar

StartChar: hbar
Encoding: 295 295 233
Width: 1208
GlyphClass: 2
Flags: W
LayerCount: 2
Fore
SplineSet
940 0 m 1,0,-1
 940 674 l 2,1,2
 940 838 940 838 871 912.5 c 128,-1,3
 802 987 802 987 657 987 c 0,4,5
 460 987 460 987 370.5 889 c 128,-1,6
 281 791 281 791 281 569 c 2,7,-1
 281 0 l 1,8,-1
 182 0 l 1,9,-1
 182 1272 l 1,10,-1
 27 1272 l 1,11,-1
 27 1354 l 1,12,-1
 182 1354 l 1,13,-1
 182 1556 l 1,14,-1
 281 1556 l 1,15,-1
 281 1354 l 1,16,-1
 754 1354 l 1,17,-1
 754 1272 l 1,18,-1
 281 1272 l 1,19,-1
 281 1030 l 1,20,-1
 276 891 l 1,21,-1
 283 891 l 1,22,23
 344 989 344 989 437 1033 c 128,-1,24
 530 1077 530 1077 668 1077 c 0,25,26
 1038 1077 1038 1077 1038 680 c 2,27,-1
 1038 0 l 1,28,-1
 940 0 l 1,0,-1
EndSplineSet
EndChar

StartChar: dotlessi
Encoding: 305 305 243
Width: 463
GlyphClass: 2
Flags: W
LayerCount: 2
Fore
SplineSet
281 0 m 1,0,-1
 182 0 l 1,1,-1
 182 1087 l 1,2,-1
 281 1087 l 1,3,-1
 281 0 l 1,0,-1
EndSplineSet
EndChar

StartChar: kgreenlandic
Encoding: 312 312 250
Width: 991
GlyphClass: 2
Flags: W
LayerCount: 2
Fore
SplineSet
279 477 m 1,0,-1
 834 1087 l 1,1,-1
 954 1087 l 1,2,-1
 526 623 l 1,3,-1
 991 0 l 1,4,-1
 872 0 l 1,5,-1
 459 549 l 1,6,-1
 281 387 l 1,7,-1
 281 0 l 1,8,-1
 182 0 l 1,9,-1
 182 1087 l 1,10,-1
 281 1087 l 1,11,-1
 281 776 l 1,12,-1
 274 477 l 1,13,-1
 279 477 l 1,0,-1
EndSplineSet
EndChar

StartChar: Lslash
Encoding: 321 321 259
Width: 1051
GlyphClass: 2
Flags: W
LayerCount: 2
Fore
SplineSet
207 0 m 1,0,-1
 207 551 l 1,1,-1
 70 465 l 1,2,-1
 29 539 l 1,3,-1
 207 651 l 1,4,-1
 207 1462 l 1,5,-1
 309 1462 l 1,6,-1
 309 715 l 1,7,-1
 633 920 l 1,8,-1
 680 844 l 1,9,-1
 309 614 l 1,10,-1
 309 96 l 1,11,-1
 1006 96 l 1,12,-1
 1006 0 l 1,13,-1
 207 0 l 1,0,-1
EndSplineSet
EndChar

StartChar: lslash
Encoding: 322 322 260
Width: 463
GlyphClass: 2
Flags: W
LayerCount: 2
Fore
SplineSet
281 817 m 1,0,-1
 434 920 l 1,1,-1
 477 850 l 1,2,-1
 281 719 l 1,3,-1
 281 0 l 1,4,-1
 182 0 l 1,5,-1
 182 653 l 1,6,-1
 53 567 l 1,7,-1
 8 639 l 1,8,-1
 182 754 l 1,9,-1
 182 1556 l 1,10,-1
 281 1556 l 1,11,-1
 281 817 l 1,0,-1
EndSplineSet
EndChar

StartChar: Eng
Encoding: 330 330 268
Width: 1477
GlyphClass: 2
Flags: W
LayerCount: 2
Fore
SplineSet
1270 0 m 2,0,1
 1270 -369 1270 -369 928 -369 c 0,2,3
 835 -369 835 -369 776 -342 c 1,4,-1
 776 -254 l 1,5,6
 854 -274 854 -274 926 -274 c 0,7,8
 1167 -274 1167 -274 1167 -10 c 2,9,-1
 1167 0 l 1,10,-1
 301 1298 l 1,11,-1
 293 1298 l 1,12,13
 305 1066 305 1066 305 948 c 2,14,-1
 305 0 l 1,15,-1
 207 0 l 1,16,-1
 207 1462 l 1,17,-1
 309 1462 l 1,18,-1
 1174 166 l 1,19,-1
 1180 166 l 1,20,21
 1171 346 1171 346 1171 508 c 2,22,-1
 1171 1462 l 1,23,-1
 1270 1462 l 1,24,-1
 1270 0 l 2,0,1
EndSplineSet
EndChar

StartChar: eng
Encoding: 331 331 269
Width: 1208
GlyphClass: 2
Flags: W
LayerCount: 2
Fore
SplineSet
795 -492 m 0,0,1
 716 -492 716 -492 659 -467 c 1,2,-1
 659 -381 l 1,3,4
 728 -401 728 -401 788 -401 c 0,5,6
 940 -401 940 -401 940 -225 c 2,7,-1
 940 705 l 2,8,9
 940 869 940 869 867.5 943.5 c 128,-1,10
 795 1018 795 1018 643 1018 c 0,11,12
 454 1018 454 1018 367.5 918.5 c 128,-1,13
 281 819 281 819 281 600 c 2,14,-1
 281 0 l 1,15,-1
 182 0 l 1,16,-1
 182 1087 l 1,17,-1
 266 1087 l 1,18,-1
 285 938 l 1,19,-1
 291 938 l 1,20,21
 345 1025 345 1025 438 1066.5 c 128,-1,22
 531 1108 531 1108 643 1108 c 0,23,24
 844 1108 844 1108 941 1009 c 128,-1,25
 1038 910 1038 910 1038 711 c 2,26,-1
 1038 -211 l 2,27,28
 1038 -345 1038 -345 975.5 -418.5 c 128,-1,29
 913 -492 913 -492 795 -492 c 0,0,1
EndSplineSet
EndChar

StartChar: OE
Encoding: 338 338 276
Width: 1839
GlyphClass: 2
Flags: W
LayerCount: 2
Fore
SplineSet
1714 0 m 1,0,-1
 958 0 l 1,1,2
 882 -16 882 -16 782 -16 c 0,3,4
 477 -16 477 -16 303 184 c 128,-1,5
 129 384 129 384 129 735 c 0,6,7
 129 1082 129 1082 303.5 1280.5 c 128,-1,8
 478 1479 478 1479 784 1479 c 0,9,10
 862 1479 862 1479 967 1462 c 1,11,-1
 1714 1462 l 1,12,-1
 1714 1368 l 1,13,-1
 1059 1368 l 1,14,-1
 1059 815 l 1,15,-1
 1675 815 l 1,16,-1
 1675 721 l 1,17,-1
 1059 721 l 1,18,-1
 1059 94 l 1,19,-1
 1714 94 l 1,20,-1
 1714 0 l 1,0,-1
782 80 m 0,21,22
 891 80 891 80 956 98 c 1,23,-1
 956 1364 l 1,24,25
 894 1380 894 1380 784 1380 c 0,26,27
 522 1380 522 1380 381 1212.5 c 128,-1,28
 240 1045 240 1045 240 733 c 0,29,30
 240 418 240 418 380.5 249 c 128,-1,31
 521 80 521 80 782 80 c 0,21,22
EndSplineSet
EndChar

StartChar: oe
Encoding: 339 339 277
Width: 1942
GlyphClass: 2
Flags: W
LayerCount: 2
Fore
SplineSet
1438 -20 m 0,0,1
 1282 -20 1282 -20 1171.5 47.5 c 128,-1,2
 1061 115 1061 115 1006 246 c 1,3,4
 947 118 947 118 848 49 c 128,-1,5
 749 -20 749 -20 596 -20 c 0,6,7
 453 -20 453 -20 344 49 c 128,-1,8
 235 118 235 118 177 247 c 128,-1,9
 119 376 119 376 119 545 c 0,10,11
 119 811 119 811 248 959.5 c 128,-1,12
 377 1108 377 1108 602 1108 c 0,13,14
 753 1108 753 1108 853 1038 c 128,-1,15
 953 968 953 968 1010 829 c 1,16,17
 1120 1108 1120 1108 1409 1108 c 0,18,19
 1601 1108 1601 1108 1712 974 c 128,-1,20
 1823 840 1823 840 1823 610 c 2,21,-1
 1823 530 l 1,22,-1
 1061 530 l 1,23,24
 1063 300 1063 300 1161.5 185 c 128,-1,25
 1260 70 1260 70 1438 70 c 0,26,27
 1531 70 1531 70 1601.5 83 c 128,-1,28
 1672 96 1672 96 1780 139 c 1,29,-1
 1780 49 l 1,30,31
 1688 9 1688 9 1610 -5.5 c 128,-1,32
 1532 -20 1532 -20 1438 -20 c 0,0,1
223 545 m 0,33,34
 223 321 223 321 321.5 195.5 c 128,-1,35
 420 70 420 70 600 70 c 0,36,37
 774 70 774 70 865 192.5 c 128,-1,38
 956 315 956 315 956 545 c 0,39,40
 956 769 956 769 863 893.5 c 128,-1,41
 770 1018 770 1018 598 1018 c 0,42,43
 418 1018 418 1018 320.5 894.5 c 128,-1,44
 223 771 223 771 223 545 c 0,33,34
1409 1020 m 0,45,46
 1254 1020 1254 1020 1167 916 c 128,-1,47
 1080 812 1080 812 1065 618 c 1,48,-1
 1718 618 l 1,49,50
 1718 807 1718 807 1636 913.5 c 128,-1,51
 1554 1020 1554 1020 1409 1020 c 0,45,46
EndSplineSet
EndChar

StartChar: Tbar
Encoding: 358 358 296
Width: 1073
GlyphClass: 2
Flags: W
LayerCount: 2
Fore
SplineSet
588 793 m 1,0,-1
 942 793 l 1,1,-1
 942 698 l 1,2,-1
 588 698 l 1,3,-1
 588 0 l 1,4,-1
 485 0 l 1,5,-1
 485 698 l 1,6,-1
 127 698 l 1,7,-1
 127 793 l 1,8,-1
 485 793 l 1,9,-1
 485 1366 l 1,10,-1
 10 1366 l 1,11,-1
 10 1462 l 1,12,-1
 1063 1462 l 1,13,-1
 1063 1366 l 1,14,-1
 588 1366 l 1,15,-1
 588 793 l 1,0,-1
EndSplineSet
EndChar

StartChar: tbar
Encoding: 359 359 297
Width: 686
GlyphClass: 2
Flags: W
LayerCount: 2
Fore
SplineSet
41 688 m 1,0,-1
 186 688 l 1,1,-1
 186 1001 l 1,2,-1
 25 1001 l 1,3,-1
 25 1059 l 1,4,-1
 186 1104 l 1,5,-1
 236 1350 l 1,6,-1
 287 1350 l 1,7,-1
 287 1087 l 1,8,-1
 606 1087 l 1,9,-1
 606 1001 l 1,10,-1
 287 1001 l 1,11,-1
 287 688 l 1,12,-1
 596 688 l 1,13,-1
 596 602 l 1,14,-1
 287 602 l 1,15,-1
 287 313 l 2,16,17
 287 188 287 188 331 128 c 128,-1,18
 375 68 375 68 469 68 c 256,19,20
 563 68 563 68 633 84 c 1,21,-1
 633 4 l 1,22,23
 561 -20 561 -20 467 -20 c 0,24,25
 323 -20 323 -20 254.5 57 c 128,-1,26
 186 134 186 134 186 299 c 2,27,-1
 186 602 l 1,28,-1
 41 602 l 1,29,-1
 41 688 l 1,0,-1
EndSplineSet
EndChar

StartChar: uogonek
Encoding: 371 371 309
Width: 1208
GlyphClass: 2
Flags: W
LayerCount: 2
Fore
SplineSet
268 1087 m 1,0,-1
 268 383 l 2,1,2
 268 219 268 219 337 144.5 c 128,-1,3
 406 70 406 70 551 70 c 0,4,5
 745 70 745 70 836.5 168 c 128,-1,6
 928 266 928 266 928 487 c 2,7,-1
 928 1087 l 1,8,-1
 1026 1087 l 1,9,-1
 1026 0 l 1,10,11
 954 -63 954 -63 918.5 -119.5 c 128,-1,12
 883 -176 883 -176 883 -248 c 0,13,14
 883 -358 883 -358 989 -358 c 0,15,16
 1038 -358 1038 -358 1071 -346 c 1,17,-1
 1071 -430 l 1,18,19
 1031 -446 1031 -446 967 -446 c 0,20,21
 883 -446 883 -446 833.5 -398.5 c 128,-1,22
 784 -351 784 -351 784 -264 c 0,23,24
 784 -194 784 -194 824 -125 c 0,25,26
 863 -56 863 -56 941 4 c 1,27,-1
 924 150 l 1,28,-1
 918 150 l 1,29,30
 812 -20 812 -20 541 -20 c 0,31,32
 355 -20 355 -20 262.5 79 c 128,-1,33
 170 178 170 178 170 377 c 2,34,-1
 170 1087 l 1,35,-1
 268 1087 l 1,0,-1
EndSplineSet
EndChar

StartChar: longs
Encoding: 383 383 321
Width: 627
GlyphClass: 2
Flags: W
LayerCount: 2
Fore
SplineSet
281 0 m 1,0,-1
 182 0 l 1,1,-1
 182 1180 l 2,2,3
 182 1383 182 1383 256.5 1475 c 128,-1,4
 331 1567 331 1567 496 1567 c 0,5,6
 586 1567 586 1567 676 1540 c 1,7,-1
 653 1454 l 1,8,9
 573 1479 573 1479 494 1479 c 0,10,11
 378 1479 378 1479 329.5 1410.5 c 128,-1,12
 281 1342 281 1342 281 1188 c 2,13,-1
 281 0 l 1,0,-1
EndSplineSet
EndChar

StartChar: florin
Encoding: 402 402 322
Width: 1169
GlyphClass: 2
Flags: W
LayerCount: 2
Fore
SplineSet
303 854 m 1,0,-1
 303 913 l 1,1,-1
 510 950 l 1,2,-1
 510 1096 l 2,3,4
 510 1297 510 1297 586.5 1390 c 128,-1,5
 663 1483 663 1483 827 1483 c 0,6,7
 909 1483 909 1483 1010 1452 c 1,8,-1
 985 1366 l 1,9,10
 896 1395 896 1395 825 1395 c 0,11,12
 710 1395 710 1395 659 1327.5 c 128,-1,13
 608 1260 608 1260 608 1104 c 2,14,-1
 608 942 l 1,15,-1
 889 942 l 1,16,-1
 889 854 l 1,17,-1
 608 854 l 1,18,-1
 608 -174 l 2,19,20
 608 -329 608 -329 537 -410.5 c 128,-1,21
 466 -492 466 -492 330 -492 c 0,22,23
 245 -492 245 -492 190 -473 c 1,24,-1
 190 -383 l 1,25,26
 268 -401 268 -401 334 -401 c 0,27,28
 510 -401 510 -401 510 -184 c 2,29,-1
 510 854 l 1,30,-1
 303 854 l 1,0,-1
EndSplineSet
EndChar

StartChar: Aringacute
Encoding: 506 506 323
Width: 1229
GlyphClass: 2
Flags: W
LayerCount: 2
Fore
SplineSet
836 1411 m 0,0,1
 836 1330 836 1330 795 1278 c 128,-1,2
 754 1226 754 1226 686 1206 c 1,3,-1
 1239 0 l 1,4,-1
 1124 0 l 1,5,-1
 924 446 l 1,6,-1
 307 446 l 1,7,-1
 98 0 l 1,8,-1
 -12 0 l 1,9,-1
 553 1206 l 1,10,11
 485 1223 485 1223 443 1275 c 128,-1,12
 401 1327 401 1327 401 1411 c 0,13,14
 401 1505 401 1505 461 1563.5 c 128,-1,15
 521 1622 521 1622 618 1622 c 0,16,17
 716 1622 716 1622 776 1564 c 128,-1,18
 836 1506 836 1506 836 1411 c 0,0,1
885 539 m 1,19,-1
 678 993 l 2,20,21
 654 1045 654 1045 618 1147 c 1,22,23
 595 1077 595 1077 555 987 c 1,24,-1
 346 539 l 1,25,-1
 885 539 l 1,19,-1
481 1411 m 0,26,27
 481 1345 481 1345 519 1307.5 c 128,-1,28
 557 1270 557 1270 618 1270 c 0,29,30
 680 1270 680 1270 718 1307.5 c 128,-1,31
 756 1345 756 1345 756 1411 c 0,32,33
 756 1475 756 1475 717 1512.5 c 128,-1,34
 678 1550 678 1550 618 1550 c 256,35,36
 558 1550 558 1550 519.5 1512 c 128,-1,37
 481 1474 481 1474 481 1411 c 0,26,27
561 1690 m 1,38,39
 664 1801 664 1801 752 1962 c 1,40,-1
 893 1962 l 1,41,-1
 893 1946 l 1,42,43
 849 1885 849 1885 771.5 1805 c 128,-1,44
 694 1725 694 1725 631 1673 c 1,45,-1
 561 1673 l 1,46,-1
 561 1690 l 1,38,39
EndSplineSet
EndChar

StartChar: aringacute
Encoding: 507 507 324
Width: 1085
GlyphClass: 2
Flags: W
LayerCount: 2
Fore
SplineSet
842 0 m 1,0,-1
 817 172 l 1,1,-1
 809 172 l 1,2,3
 727 67 727 67 640.5 23.5 c 128,-1,4
 554 -20 554 -20 436 -20 c 0,5,6
 276 -20 276 -20 187 62 c 128,-1,7
 98 144 98 144 98 289 c 0,8,9
 98 448 98 448 230.5 536 c 128,-1,10
 363 624 363 624 614 629 c 1,11,-1
 821 635 l 1,12,-1
 821 707 l 2,13,14
 821 862 821 862 758 941 c 128,-1,15
 695 1020 695 1020 555 1020 c 0,16,17
 404 1020 404 1020 242 936 c 1,18,-1
 205 1022 l 1,19,20
 384 1106 384 1106 559 1106 c 0,21,22
 738 1106 738 1106 826.5 1013 c 128,-1,23
 915 920 915 920 915 723 c 2,24,-1
 915 0 l 1,25,-1
 842 0 l 1,0,-1
442 70 m 0,26,27
 616 70 616 70 716.5 169.5 c 128,-1,28
 817 269 817 269 817 446 c 2,29,-1
 817 553 l 1,30,-1
 627 545 l 1,31,32
 398 534 398 534 300.5 473.5 c 128,-1,33
 203 413 203 413 203 285 c 0,34,35
 203 183 203 183 265.5 126.5 c 128,-1,36
 328 70 328 70 442 70 c 0,26,27
467 1712 m 1,37,38
 515 1762 515 1762 568.5 1835 c 128,-1,39
 622 1908 622 1908 655 1962 c 1,40,-1
 793 1962 l 1,41,-1
 793 1948 l 1,42,43
 758 1903 758 1903 680.5 1828 c 128,-1,44
 603 1753 603 1753 535 1700 c 1,45,-1
 467 1700 l 1,46,-1
 467 1712 l 1,37,38
758 1413 m 0,47,48
 758 1316 758 1316 698 1258 c 128,-1,49
 638 1200 638 1200 541 1200 c 256,50,51
 444 1200 444 1200 384 1258 c 128,-1,52
 324 1316 324 1316 324 1413 c 0,53,54
 324 1507 324 1507 384 1565.5 c 128,-1,55
 444 1624 444 1624 541 1624 c 256,56,57
 638 1624 638 1624 698 1565 c 128,-1,58
 758 1506 758 1506 758 1413 c 0,47,48
403 1413 m 0,59,60
 403 1347 403 1347 441 1309.5 c 128,-1,61
 479 1272 479 1272 541 1272 c 256,62,63
 603 1272 603 1272 640.5 1309.5 c 128,-1,64
 678 1347 678 1347 678 1413 c 0,65,66
 678 1477 678 1477 639 1514.5 c 128,-1,67
 600 1552 600 1552 541 1552 c 0,68,69
 481 1552 481 1552 442 1514.5 c 128,-1,70
 403 1477 403 1477 403 1413 c 0,59,60
EndSplineSet
EndChar

StartChar: circumflex
Encoding: 710 710 331
Width: 1182
GlyphClass: 2
Flags: W
LayerCount: 2
Fore
SplineSet
299 1257 m 1,0,1
 361 1324 361 1324 430.5 1413 c 128,-1,2
 500 1502 500 1502 541 1569 c 1,3,-1
 639 1569 l 1,4,5
 707 1449 707 1449 881 1257 c 1,6,-1
 881 1241 l 1,7,-1
 811 1241 l 1,8,9
 689 1342 689 1342 590 1448 c 1,10,11
 482 1334 482 1334 369 1241 c 1,12,-1
 299 1241 l 1,13,-1
 299 1257 l 1,0,1
EndSplineSet
EndChar

StartChar: caron
Encoding: 711 711 332
Width: 1182
GlyphClass: 2
Flags: W
LayerCount: 2
Fore
SplineSet
881 1552 m 1,0,1
 711 1364 711 1364 639 1241 c 1,2,-1
 541 1241 l 1,3,4
 465 1369 465 1369 299 1552 c 1,5,-1
 299 1569 l 1,6,-1
 369 1569 l 1,7,8
 483 1475 483 1475 590 1362 c 1,9,10
 698 1476 698 1476 811 1569 c 1,11,-1
 881 1569 l 1,12,-1
 881 1552 l 1,0,1
EndSplineSet
EndChar

StartChar: macron
Encoding: 713 713 333
Width: 1141
GlyphClass: 2
Flags: W
LayerCount: 2
Fore
SplineSet
293 1333 m 1,0,-1
 848 1333 l 1,1,-1
 848 1251 l 1,2,-1
 293 1251 l 1,3,-1
 293 1333 l 1,0,-1
EndSplineSet
EndChar

StartChar: breve
Encoding: 728 728 334
Width: 1182
GlyphClass: 2
Flags: W
LayerCount: 2
Fore
SplineSet
586 1241 m 0,0,1
 333 1241 333 1241 311 1487 c 1,2,-1
 393 1487 l 1,3,4
 407 1400 407 1400 453.5 1362.5 c 128,-1,5
 500 1325 500 1325 588 1325 c 256,6,7
 676 1325 676 1325 722.5 1362.5 c 128,-1,8
 769 1400 769 1400 784 1487 c 1,9,-1
 864 1487 l 1,10,11
 834 1241 834 1241 586 1241 c 0,0,1
EndSplineSet
EndChar

StartChar: dotaccent
Encoding: 729 729 335
Width: 483
GlyphClass: 2
Flags: W
LayerCount: 2
Fore
SplineSet
178 1389 m 0,0,1
 178 1485 178 1485 242 1485 c 0,2,3
 273 1485 273 1485 290 1460 c 128,-1,4
 307 1435 307 1435 307 1389 c 0,5,6
 307 1344 307 1344 290 1318 c 128,-1,7
 273 1292 273 1292 242 1292 c 0,8,9
 178 1292 178 1292 178 1389 c 0,0,1
EndSplineSet
EndChar

StartChar: ring
Encoding: 730 730 336
Width: 1182
GlyphClass: 2
Flags: W
LayerCount: 2
Fore
SplineSet
805 1456 m 0,0,1
 805 1359 805 1359 745 1301 c 128,-1,2
 685 1243 685 1243 588 1243 c 256,3,4
 491 1243 491 1243 431 1301 c 128,-1,5
 371 1359 371 1359 371 1456 c 0,6,7
 371 1550 371 1550 431 1608.5 c 128,-1,8
 491 1667 491 1667 588 1667 c 256,9,10
 685 1667 685 1667 745 1608 c 128,-1,11
 805 1549 805 1549 805 1456 c 0,0,1
451 1456 m 0,12,13
 451 1390 451 1390 488.5 1352.5 c 128,-1,14
 526 1315 526 1315 588 1315 c 256,15,16
 650 1315 650 1315 687.5 1352.5 c 128,-1,17
 725 1390 725 1390 725 1456 c 0,18,19
 725 1520 725 1520 686 1557.5 c 128,-1,20
 647 1595 647 1595 588 1595 c 0,21,22
 526 1595 526 1595 488.5 1557 c 128,-1,23
 451 1519 451 1519 451 1456 c 0,12,13
EndSplineSet
EndChar

StartChar: ogonek
Encoding: 731 731 337
Width: 356
GlyphClass: 2
Flags: W
LayerCount: 2
Fore
SplineSet
162 -248 m 0,0,1
 162 -358 162 -358 268 -358 c 0,2,3
 317 -358 317 -358 350 -346 c 1,4,-1
 350 -430 l 1,5,6
 310 -446 310 -446 246 -446 c 0,7,8
 162 -446 162 -446 112.5 -398.5 c 128,-1,9
 63 -351 63 -351 63 -264 c 0,10,11
 63 -194 63 -194 103 -125 c 128,-1,12
 143 -56 143 -56 215 0 c 1,13,-1
 305 0 l 1,14,15
 233 -63 233 -63 197.5 -119.5 c 128,-1,16
 162 -176 162 -176 162 -248 c 0,0,1
EndSplineSet
EndChar

StartChar: tilde
Encoding: 732 732 338
Width: 1182
GlyphClass: 2
Flags: W
LayerCount: 2
Fore
SplineSet
780 1243 m 0,0,1
 744 1243 744 1243 705 1261.5 c 128,-1,2
 666 1280 666 1280 604 1333 c 1,3,4
 572 1359 572 1359 541.5 1379 c 128,-1,5
 511 1399 511 1399 479 1399 c 0,6,7
 434 1399 434 1399 404 1364.5 c 128,-1,8
 374 1330 374 1330 356 1243 c 1,9,-1
 283 1243 l 1,10,11
 293 1354 293 1354 346 1417.5 c 128,-1,12
 399 1481 399 1481 483 1481 c 0,13,14
 531 1481 531 1481 571 1456 c 128,-1,15
 611 1431 611 1431 653 1397 c 0,16,17
 687 1369 687 1369 719 1347 c 128,-1,18
 751 1325 751 1325 780 1325 c 0,19,20
 826 1325 826 1325 857 1361.5 c 128,-1,21
 888 1398 888 1398 905 1481 c 1,22,-1
 981 1481 l 1,23,24
 965 1365 965 1365 912 1304 c 128,-1,25
 859 1243 859 1243 780 1243 c 0,0,1
EndSplineSet
EndChar

StartChar: hungarumlaut
Encoding: 733 733 339
Width: 1182
GlyphClass: 2
Flags: W
LayerCount: 2
Fore
SplineSet
258 1257 m 1,0,1
 289 1290 289 1290 325 1347 c 128,-1,2
 361 1404 361 1404 446 1569 c 1,3,-1
 582 1569 l 1,4,-1
 582 1552 l 1,5,6
 447 1350 447 1350 328 1241 c 1,7,-1
 258 1241 l 1,8,-1
 258 1257 l 1,0,1
596 1257 m 1,9,10
 627 1290 627 1290 663 1347 c 128,-1,11
 699 1404 699 1404 784 1569 c 1,12,-1
 920 1569 l 1,13,-1
 920 1552 l 1,14,15
 785 1350 785 1350 666 1241 c 1,16,-1
 596 1241 l 1,17,-1
 596 1257 l 1,9,10
EndSplineSet
EndChar

StartChar: tonos
Encoding: 900 900 340
Width: 1182
GlyphClass: 2
Flags: W
LayerCount: 2
Fore
SplineSet
530 1257 m 1,0,1
 559 1332 559 1332 587 1441 c 128,-1,2
 615 1550 615 1550 629 1651 c 1,3,-1
 748 1651 l 1,4,-1
 748 1634 l 1,5,6
 730 1557 730 1557 685 1443 c 128,-1,7
 640 1329 640 1329 588 1241 c 1,8,-1
 530 1241 l 1,9,-1
 530 1257 l 1,0,1
EndSplineSet
EndChar

StartChar: dieresistonos
Encoding: 901 901 341
Width: 1182
GlyphClass: 2
Flags: W
LayerCount: 2
Fore
SplineSet
526 1405 m 1,0,1
 601 1569 601 1569 641 1716 c 1,2,-1
 758 1716 l 1,3,-1
 758 1698 l 1,4,5
 737 1646 737 1646 685.5 1553 c 128,-1,6
 634 1460 634 1460 584 1389 c 1,7,-1
 526 1389 l 1,8,-1
 526 1405 l 1,0,1
309 1389 m 256,9,10
 309 1475 309 1475 373 1475 c 0,11,12
 436 1475 436 1475 436 1389 c 256,13,14
 436 1303 436 1303 373 1303 c 0,15,16
 309 1303 309 1303 309 1389 c 256,9,10
745 1389 m 256,17,18
 745 1475 745 1475 809 1475 c 0,19,20
 872 1475 872 1475 872 1389 c 256,21,22
 872 1303 872 1303 809 1303 c 0,23,24
 745 1303 745 1303 745 1389 c 256,17,18
EndSplineSet
EndChar

StartChar: Gamma
Encoding: 915 915 353
Width: 1028
GlyphClass: 2
Flags: W
LayerCount: 2
Fore
SplineSet
309 0 m 1,0,-1
 207 0 l 1,1,-1
 207 1462 l 1,2,-1
 1008 1462 l 1,3,-1
 1008 1368 l 1,4,-1
 309 1368 l 1,5,-1
 309 0 l 1,0,-1
EndSplineSet
EndChar

StartChar: Theta
Encoding: 920 920 358
Width: 1565
GlyphClass: 2
Flags: W
LayerCount: 2
Fore
SplineSet
449 793 m 1,0,-1
 1114 793 l 1,1,-1
 1114 698 l 1,2,-1
 449 698 l 1,3,-1
 449 793 l 1,0,-1
1436 733 m 0,4,5
 1436 385 1436 385 1262 182.5 c 128,-1,6
 1088 -20 1088 -20 782 -20 c 0,7,8
 477 -20 477 -20 303 182.5 c 128,-1,9
 129 385 129 385 129 735 c 0,10,11
 129 1084 129 1084 304.5 1284.5 c 128,-1,12
 480 1485 480 1485 784 1485 c 0,13,14
 1090 1485 1090 1485 1263 1283.5 c 128,-1,15
 1436 1082 1436 1082 1436 733 c 0,4,5
240 733 m 0,16,17
 240 419 240 419 380 247.5 c 128,-1,18
 520 76 520 76 782 76 c 0,19,20
 1046 76 1046 76 1185.5 246 c 128,-1,21
 1325 416 1325 416 1325 733 c 0,22,23
 1325 1049 1325 1049 1185.5 1217.5 c 128,-1,24
 1046 1386 1046 1386 784 1386 c 0,25,26
 523 1386 523 1386 381.5 1216 c 128,-1,27
 240 1046 240 1046 240 733 c 0,16,17
EndSplineSet
EndChar

StartChar: Lambda
Encoding: 923 923 361
Width: 1229
GlyphClass: 2
Flags: W
LayerCount: 2
Fore
SplineSet
113 0 m 1,0,-1
 0 0 l 1,1,-1
 596 1468 l 1,2,-1
 645 1468 l 1,3,-1
 1229 0 l 1,4,-1
 1114 0 l 1,5,-1
 678 1120 l 2,6,7
 655 1180 655 1180 618 1292 c 1,8,9
 589 1192 589 1192 559 1118 c 2,10,-1
 113 0 l 1,0,-1
EndSplineSet
EndChar

StartChar: Xi
Encoding: 926 926 364
Width: 1087
GlyphClass: 2
Flags: W
LayerCount: 2
Fore
SplineSet
164 815 m 1,0,-1
 924 815 l 1,1,-1
 924 721 l 1,2,-1
 164 721 l 1,3,-1
 164 815 l 1,0,-1
82 1462 m 1,4,-1
 1006 1462 l 1,5,-1
 1006 1368 l 1,6,-1
 82 1368 l 1,7,-1
 82 1462 l 1,4,-1
1047 94 m 1,8,-1
 1047 0 l 1,9,-1
 41 0 l 1,10,-1
 41 94 l 1,11,-1
 1047 94 l 1,8,-1
EndSplineSet
EndChar

StartChar: Pi
Encoding: 928 928 366
Width: 1462
GlyphClass: 2
Flags: W
LayerCount: 2
Fore
SplineSet
1255 0 m 1,0,-1
 1153 0 l 1,1,-1
 1153 1366 l 1,2,-1
 309 1366 l 1,3,-1
 309 0 l 1,4,-1
 207 0 l 1,5,-1
 207 1462 l 1,6,-1
 1255 1462 l 1,7,-1
 1255 0 l 1,0,-1
EndSplineSet
EndChar

StartChar: Sigma
Encoding: 931 931 368
Width: 1128
GlyphClass: 2
Flags: W
LayerCount: 2
Fore
SplineSet
61 0 m 1,0,-1
 61 84 l 1,1,-1
 594 760 l 1,2,-1
 74 1380 l 1,3,-1
 74 1462 l 1,4,-1
 1038 1462 l 1,5,-1
 1038 1368 l 1,6,-1
 391 1368 l 1,7,-1
 209 1370 l 1,8,-1
 723 766 l 1,9,-1
 193 94 l 1,10,-1
 1098 94 l 1,11,-1
 1098 0 l 1,12,-1
 61 0 l 1,0,-1
EndSplineSet
EndChar

StartChar: Phi
Encoding: 934 934 371
Width: 1561
GlyphClass: 2
Flags: W
LayerCount: 2
Fore
SplineSet
729 1483 m 1,0,-1
 831 1483 l 1,1,-1
 831 1303 l 1,2,-1
 874 1303 l 2,3,4
 1149 1303 1149 1303 1299.5 1162 c 128,-1,5
 1450 1021 1450 1021 1450 770 c 0,6,7
 1450 596 1450 596 1380.5 469 c 128,-1,8
 1311 342 1311 342 1174.5 273.5 c 128,-1,9
 1038 205 1038 205 842 205 c 2,10,-1
 831 205 l 1,11,-1
 831 -20 l 1,12,-1
 729 -20 l 1,13,-1
 729 205 l 1,14,-1
 711 205 l 2,15,16
 518 205 518 205 383.5 273 c 128,-1,17
 249 341 249 341 180 464 c 128,-1,18
 111 587 111 587 111 758 c 0,19,20
 111 914 111 914 181 1039.5 c 128,-1,21
 251 1165 251 1165 382 1234 c 128,-1,22
 513 1303 513 1303 692 1303 c 2,23,-1
 729 1303 l 1,24,-1
 729 1483 l 1,0,-1
831 289 m 1,25,-1
 846 289 l 2,26,27
 1082 289 1082 289 1210.5 413.5 c 128,-1,28
 1339 538 1339 538 1339 766 c 0,29,30
 1339 985 1339 985 1219 1102 c 128,-1,31
 1099 1219 1099 1219 874 1219 c 2,32,-1
 831 1219 l 1,33,-1
 831 289 l 1,25,-1
729 1219 m 1,34,-1
 688 1219 l 2,35,36
 469 1219 469 1219 345 1097 c 128,-1,37
 221 975 221 975 221 764 c 0,38,39
 221 537 221 537 349.5 413 c 128,-1,40
 478 289 478 289 713 289 c 2,41,-1
 729 289 l 1,42,-1
 729 1219 l 1,34,-1
EndSplineSet
EndChar

StartChar: Psi
Encoding: 936 936 373
Width: 1565
GlyphClass: 2
Flags: W
LayerCount: 2
Fore
SplineSet
823 0 m 1,0,-1
 721 0 l 1,1,-1
 721 453 l 1,2,-1
 694 453 l 2,3,4
 414 453 414 453 268.5 583.5 c 128,-1,5
 123 714 123 714 123 979 c 2,6,-1
 123 1462 l 1,7,-1
 225 1462 l 1,8,-1
 225 983 l 2,9,10
 225 757 225 757 342 650 c 128,-1,11
 459 543 459 543 698 543 c 2,12,-1
 721 543 l 1,13,-1
 721 1462 l 1,14,-1
 823 1462 l 1,15,-1
 823 543 l 1,16,-1
 846 543 l 2,17,18
 1085 543 1085 543 1202 650 c 128,-1,19
 1319 757 1319 757 1319 983 c 2,20,-1
 1319 1462 l 1,21,-1
 1421 1462 l 1,22,-1
 1421 979 l 2,23,24
 1421 714 1421 714 1275 583.5 c 128,-1,25
 1129 453 1129 453 850 453 c 2,26,-1
 823 453 l 1,27,-1
 823 0 l 1,0,-1
EndSplineSet
EndChar

StartChar: uni03A9
Encoding: 937 937 374
Width: 1587
GlyphClass: 2
Flags: W
LayerCount: 2
Fore
SplineSet
793 1393 m 0,0,1
 542 1393 542 1393 394 1241.5 c 128,-1,2
 246 1090 246 1090 246 829 c 0,3,4
 246 603 246 603 336.5 431.5 c 128,-1,5
 427 260 427 260 649 72 c 1,6,-1
 649 0 l 1,7,-1
 82 0 l 1,8,-1
 82 94 l 1,9,-1
 489 94 l 1,10,11
 356 212 356 212 283.5 318.5 c 128,-1,12
 211 425 211 425 173 550.5 c 128,-1,13
 135 676 135 676 135 821 c 0,14,15
 135 1021 135 1021 215 1172 c 128,-1,16
 295 1323 295 1323 444.5 1404 c 128,-1,17
 594 1485 594 1485 793 1485 c 0,18,19
 1104 1485 1104 1485 1278 1311 c 128,-1,20
 1452 1137 1452 1137 1452 823 c 0,21,22
 1452 614 1452 614 1371.5 439 c 128,-1,23
 1291 264 1291 264 1102 94 c 1,24,-1
 1505 94 l 1,25,-1
 1505 0 l 1,26,-1
 940 0 l 1,27,-1
 940 72 l 1,28,29
 1155 247 1155 247 1248 422 c 128,-1,30
 1341 597 1341 597 1341 827 c 0,31,32
 1341 1089 1341 1089 1195 1241 c 128,-1,33
 1049 1393 1049 1393 793 1393 c 0,0,1
EndSplineSet
EndChar

StartChar: alpha
Encoding: 945 945 382
Width: 1208
GlyphClass: 2
Flags: W
LayerCount: 2
Fore
SplineSet
578 68 m 0,0,1
 758 68 758 68 843 176.5 c 128,-1,2
 928 285 928 285 928 530 c 2,3,-1
 928 565 l 2,4,5
 928 802 928 802 842.5 910 c 128,-1,6
 757 1018 757 1018 575 1018 c 0,7,8
 406 1018 406 1018 314.5 894.5 c 128,-1,9
 223 771 223 771 223 541 c 0,10,11
 223 68 223 68 578 68 c 0,0,1
578 -20 m 0,12,13
 352 -20 352 -20 235.5 123 c 128,-1,14
 119 266 119 266 119 539 c 0,15,16
 119 814 119 814 239.5 961 c 128,-1,17
 360 1108 360 1108 586 1108 c 0,18,19
 714 1108 714 1108 802 1051.5 c 128,-1,20
 890 995 890 995 944 874 c 1,21,-1
 950 874 l 1,22,23
 954 926 954 926 968.5 993.5 c 128,-1,24
 983 1061 983 1061 993 1087 c 1,25,-1
 1067 1087 l 1,26,27
 1026 953 1026 953 1026 696 c 2,28,-1
 1026 201 l 2,29,30
 1026 59 1026 59 1116 59 c 0,31,32
 1153 59 1153 59 1180 70 c 1,33,-1
 1180 -2 l 1,34,35
 1151 -20 1151 -20 1098 -20 c 0,36,37
 952 -20 952 -20 934 168 c 1,38,-1
 926 168 l 1,39,40
 863 70 863 70 778 25 c 128,-1,41
 693 -20 693 -20 578 -20 c 0,12,13
EndSplineSet
EndChar

StartChar: beta
Encoding: 946 946 383
Width: 1245
GlyphClass: 2
Flags: W
LayerCount: 2
Fore
SplineSet
649 1567 m 0,0,1
 853 1567 853 1567 968 1465 c 128,-1,2
 1083 1363 1083 1363 1083 1182 c 0,3,4
 1083 1042 1083 1042 1010.5 949.5 c 128,-1,5
 938 857 938 857 797 831 c 1,6,-1
 797 825 l 1,7,8
 973 801 973 801 1058 701 c 128,-1,9
 1143 601 1143 601 1143 414 c 0,10,11
 1143 213 1143 213 1011 100.5 c 128,-1,12
 879 -12 879 -12 653 -12 c 0,13,14
 470 -12 470 -12 281 88 c 1,15,-1
 281 -492 l 1,16,-1
 182 -492 l 1,17,-1
 182 1094 l 2,18,19
 182 1318 182 1318 303 1442.5 c 128,-1,20
 424 1567 424 1567 649 1567 c 0,0,1
647 1479 m 0,21,22
 465 1479 465 1479 373 1382 c 128,-1,23
 281 1285 281 1285 281 1098 c 2,24,-1
 281 170 l 1,25,26
 390 112 390 112 475 89 c 128,-1,27
 560 66 560 66 651 66 c 0,28,29
 838 66 838 66 943.5 157 c 128,-1,30
 1049 248 1049 248 1049 412 c 0,31,32
 1049 776 1049 776 657 776 c 2,33,-1
 539 776 l 1,34,-1
 539 864 l 1,35,-1
 645 864 l 2,36,37
 809 864 809 864 894 945.5 c 128,-1,38
 979 1027 979 1027 979 1184 c 0,39,40
 979 1323 979 1323 892 1401 c 128,-1,41
 805 1479 805 1479 647 1479 c 0,21,22
EndSplineSet
EndChar

StartChar: gamma
Encoding: 947 947 384
Width: 983
GlyphClass: 2
Flags: W
LayerCount: 2
Fore
SplineSet
459 -492 m 1,0,-1
 360 -492 l 1,1,2
 360 -400 360 -400 390 -253.5 c 128,-1,3
 420 -107 420 -107 463 12 c 1,4,-1
 10 1087 l 1,5,-1
 113 1087 l 1,6,-1
 381 442 l 1,7,-1
 506 129 l 1,8,-1
 512 129 l 1,9,-1
 598 367 l 1,10,-1
 870 1087 l 1,11,-1
 973 1087 l 1,12,-1
 569 47 l 2,13,14
 525 -69 525 -69 494.5 -222 c 128,-1,15
 464 -375 464 -375 459 -492 c 1,0,-1
EndSplineSet
EndChar

StartChar: delta
Encoding: 948 948 385
Width: 1190
GlyphClass: 2
Flags: W
LayerCount: 2
Fore
SplineSet
573 940 m 1,0,1
 415 1029 415 1029 353 1109.5 c 128,-1,2
 291 1190 291 1190 291 1290 c 0,3,4
 291 1412 291 1412 384.5 1489.5 c 128,-1,5
 478 1567 478 1567 627 1567 c 0,6,7
 724 1567 724 1567 814.5 1546.5 c 128,-1,8
 905 1526 905 1526 1028 1466 c 1,9,-1
 983 1380 l 1,10,11
 871 1437 871 1437 791.5 1458 c 128,-1,12
 712 1479 712 1479 629 1479 c 0,13,14
 520 1479 520 1479 456.5 1428.5 c 128,-1,15
 393 1378 393 1378 393 1294 c 256,16,17
 393 1210 393 1210 446 1152.5 c 128,-1,18
 499 1095 499 1095 684 987 c 1,19,20
 850 892 850 892 925 821.5 c 128,-1,21
 1000 751 1000 751 1035.5 668 c 128,-1,22
 1071 585 1071 585 1071 471 c 0,23,24
 1071 242 1071 242 944.5 111 c 128,-1,25
 818 -20 818 -20 594 -20 c 0,26,27
 377 -20 377 -20 247 104.5 c 128,-1,28
 117 229 117 229 117 434 c 0,29,30
 117 629 117 629 226.5 753 c 128,-1,31
 336 877 336 877 573 940 c 1,0,1
967 473 m 0,32,33
 967 608 967 608 896.5 705 c 128,-1,34
 826 802 826 802 659 887 c 1,35,36
 511 851 511 851 436.5 811.5 c 128,-1,37
 362 772 362 772 316 719.5 c 128,-1,38
 270 667 270 667 245.5 596.5 c 128,-1,39
 221 526 221 526 221 434 c 0,40,41
 221 268 221 268 322.5 168 c 128,-1,42
 424 68 424 68 596 68 c 0,43,44
 773 68 773 68 870 172.5 c 128,-1,45
 967 277 967 277 967 473 c 0,32,33
EndSplineSet
EndChar

StartChar: epsilon
Encoding: 949 949 386
Width: 928
GlyphClass: 2
Flags: W
LayerCount: 2
Fore
SplineSet
672 618 m 1,0,-1
 672 532 l 1,1,-1
 532 532 l 2,2,3
 363 532 363 532 281 469.5 c 128,-1,4
 199 407 199 407 199 295 c 0,5,6
 199 190 199 190 286 130 c 128,-1,7
 373 70 373 70 530 70 c 0,8,9
 606 70 606 70 670 84 c 128,-1,10
 734 98 734 98 844 150 c 1,11,-1
 844 57 l 1,12,13
 709 -20 709 -20 522 -20 c 0,14,15
 320 -20 320 -20 207 61 c 128,-1,16
 94 142 94 142 94 287 c 0,17,18
 94 511 94 511 342 571 c 1,19,-1
 342 580 l 1,20,21
 127 643 127 643 127 819 c 0,22,23
 127 952 127 952 230 1030 c 128,-1,24
 333 1108 333 1108 512 1108 c 0,25,26
 608 1108 608 1108 686.5 1092.5 c 128,-1,27
 765 1077 765 1077 852 1040 c 1,28,-1
 815 956 l 1,29,30
 667 1020 667 1020 512 1020 c 0,31,32
 370 1020 370 1020 300.5 967 c 128,-1,33
 231 914 231 914 231 817 c 0,34,35
 231 618 231 618 557 618 c 2,36,-1
 672 618 l 1,0,-1
EndSplineSet
EndChar

StartChar: zeta
Encoding: 950 950 387
Width: 956
GlyphClass: 2
Flags: W
LayerCount: 2
Fore
SplineSet
182 1470 m 1,0,-1
 182 1556 l 1,1,-1
 899 1556 l 1,2,-1
 899 1481 l 1,3,4
 643 1245 643 1245 497.5 1073.5 c 128,-1,5
 352 902 352 902 287.5 760 c 128,-1,6
 223 618 223 618 223 463 c 0,7,8
 223 350 223 350 252 286.5 c 128,-1,9
 281 223 281 223 347 183.5 c 128,-1,10
 413 144 413 144 545 115 c 0,11,12
 698 82 698 82 761.5 53 c 128,-1,13
 825 24 825 24 854 -19 c 128,-1,14
 883 -62 883 -62 883 -129 c 0,15,16
 883 -189 883 -189 858 -252 c 128,-1,17
 833 -315 833 -315 770 -401 c 1,18,-1
 674 -401 l 1,19,20
 788 -246 788 -246 788 -143 c 0,21,22
 788 -94 788 -94 762 -66.5 c 128,-1,23
 736 -39 736 -39 677 -17 c 128,-1,24
 618 5 618 5 512 25 c 0,25,26
 303 63 303 63 211 167 c 128,-1,27
 119 271 119 271 119 459 c 0,28,29
 119 559 119 559 144.5 651 c 128,-1,30
 170 743 170 743 216 830.5 c 128,-1,31
 262 918 262 918 328.5 1005.5 c 128,-1,32
 395 1093 395 1093 482.5 1187 c 128,-1,33
 570 1281 570 1281 776 1477 c 1,34,35
 671 1470 671 1470 412 1470 c 2,36,-1
 182 1470 l 1,0,-1
EndSplineSet
EndChar

StartChar: eta
Encoding: 951 951 388
Width: 1208
GlyphClass: 2
Flags: W
LayerCount: 2
Fore
SplineSet
940 -492 m 1,0,-1
 940 705 l 2,1,2
 940 869 940 869 867.5 943.5 c 128,-1,3
 795 1018 795 1018 643 1018 c 0,4,5
 454 1018 454 1018 367.5 918.5 c 128,-1,6
 281 819 281 819 281 600 c 2,7,-1
 281 0 l 1,8,-1
 182 0 l 1,9,-1
 182 1087 l 1,10,-1
 266 1087 l 1,11,-1
 285 938 l 1,12,-1
 291 938 l 1,13,14
 345 1025 345 1025 438 1066.5 c 128,-1,15
 531 1108 531 1108 643 1108 c 0,16,17
 844 1108 844 1108 941 1009 c 128,-1,18
 1038 910 1038 910 1038 711 c 2,19,-1
 1038 -492 l 1,20,-1
 940 -492 l 1,0,-1
EndSplineSet
EndChar

StartChar: theta
Encoding: 952 952 389
Width: 1167
GlyphClass: 2
Flags: W
LayerCount: 2
Fore
SplineSet
1049 782 m 0,0,1
 1049 383 1049 383 931 181.5 c 128,-1,2
 813 -20 813 -20 580 -20 c 0,3,4
 119 -20 119 -20 119 780 c 0,5,6
 119 1172 119 1172 238.5 1375.5 c 128,-1,7
 358 1579 358 1579 586 1579 c 0,8,9
 1049 1579 1049 1579 1049 782 c 0,0,1
582 68 m 256,10,11
 935 68 935 68 950 760 c 1,12,-1
 217 760 l 1,13,14
 229 68 229 68 582 68 c 256,10,11
580 1491 m 0,15,16
 404 1491 404 1491 316.5 1326.5 c 128,-1,17
 229 1162 229 1162 217 846 c 1,18,-1
 948 846 l 1,19,20
 936 1174 936 1174 845 1332.5 c 128,-1,21
 754 1491 754 1491 580 1491 c 0,15,16
EndSplineSet
EndChar

StartChar: iota
Encoding: 953 953 390
Width: 629
GlyphClass: 2
Flags: W
LayerCount: 2
Fore
SplineSet
264 1087 m 1,0,-1
 264 313 l 2,1,2
 264 179 264 179 310.5 123.5 c 128,-1,3
 357 68 357 68 463 68 c 0,4,5
 528 68 528 68 592 84 c 1,6,-1
 592 0 l 1,7,8
 572 -7 572 -7 531 -13.5 c 128,-1,9
 490 -20 490 -20 453 -20 c 0,10,11
 301 -20 301 -20 233.5 60 c 128,-1,12
 166 140 166 140 166 303 c 2,13,-1
 166 1087 l 1,14,-1
 264 1087 l 1,0,-1
EndSplineSet
EndChar

StartChar: lambda
Encoding: 955 955 392
Width: 1030
GlyphClass: 2
Flags: W
LayerCount: 2
Fore
SplineSet
-12 0 m 1,0,-1
 465 1092 l 1,1,-1
 410 1257 l 2,2,3
 375 1364 375 1364 350 1405.5 c 128,-1,4
 325 1447 325 1447 292 1468 c 128,-1,5
 259 1489 259 1489 211 1489 c 0,6,7
 167 1489 167 1489 109 1477 c 1,8,-1
 109 1552 l 1,9,10
 172 1569 172 1569 223 1569 c 0,11,12
 291 1569 291 1569 335 1546 c 128,-1,13
 379 1523 379 1523 413 1469.5 c 128,-1,14
 447 1416 447 1416 494 1284 c 2,15,-1
 895 145 l 2,16,17
 910 102 910 102 928 80.5 c 128,-1,18
 946 59 946 59 975 59 c 0,19,20
 1006 59 1006 59 1030 70 c 1,21,-1
 1030 -4 l 1,22,23
 1000 -20 1000 -20 952 -20 c 0,24,25
 900 -20 900 -20 866.5 12 c 128,-1,26
 833 44 833 44 807 117 c 2,27,-1
 635 606 l 1,28,29
 539 886 539 886 512 995 c 1,30,-1
 508 995 l 1,31,32
 476 900 476 900 431.5 793 c 128,-1,33
 387 686 387 686 92 0 c 1,34,-1
 -12 0 l 1,0,-1
EndSplineSet
EndChar

StartChar: nu
Encoding: 957 957 394
Width: 1051
GlyphClass: 2
Flags: W
LayerCount: 2
Fore
SplineSet
-2 1087 m 1,0,-1
 100 1087 l 1,1,2
 390 306 390 306 418 228.5 c 128,-1,3
 446 151 446 151 467 88 c 1,4,-1
 473 88 l 1,5,6
 872 457 872 457 872 1087 c 1,7,-1
 967 1087 l 1,8,9
 967 735 967 735 857 479.5 c 128,-1,10
 747 224 747 224 508 0 c 1,11,-1
 406 0 l 1,12,-1
 -2 1087 l 1,0,-1
EndSplineSet
EndChar

StartChar: xi
Encoding: 958 958 395
Width: 940
GlyphClass: 2
Flags: W
LayerCount: 2
Fore
SplineSet
809 780 m 1,0,-1
 659 780 l 2,1,2
 459 780 459 780 341 683.5 c 128,-1,3
 223 587 223 587 223 428 c 0,4,5
 223 335 223 335 255.5 275.5 c 128,-1,6
 288 216 288 216 354 178.5 c 128,-1,7
 420 141 420 141 584 106 c 0,8,9
 758 68 758 68 820.5 17 c 128,-1,10
 883 -34 883 -34 883 -131 c 0,11,12
 883 -250 883 -250 770 -401 c 1,13,-1
 674 -401 l 1,14,15
 788 -244 788 -244 788 -145 c 0,16,17
 788 -95 788 -95 761.5 -66 c 128,-1,18
 735 -37 735 -37 676.5 -16 c 128,-1,19
 618 5 618 5 512 25 c 0,20,21
 305 63 305 63 212 162 c 128,-1,22
 119 261 119 261 119 422 c 0,23,24
 119 566 119 566 199 669.5 c 128,-1,25
 279 773 279 773 424 815 c 1,26,-1
 424 825 l 1,27,28
 303 861 303 861 245.5 932 c 128,-1,29
 188 1003 188 1003 188 1114 c 0,30,31
 188 1245 188 1245 273 1340.5 c 128,-1,32
 358 1436 358 1436 518 1479 c 1,33,34
 449 1470 449 1470 270 1470 c 2,35,-1
 182 1470 l 1,36,-1
 182 1556 l 1,37,-1
 852 1556 l 1,38,-1
 852 1477 l 1,39,-1
 836 1477 l 2,40,41
 681 1477 681 1477 550 1430 c 128,-1,42
 419 1383 419 1383 349 1301.5 c 128,-1,43
 279 1220 279 1220 279 1118 c 0,44,45
 279 864 279 864 659 864 c 2,46,-1
 809 864 l 1,47,-1
 809 780 l 1,0,-1
EndSplineSet
EndChar

StartChar: pi
Encoding: 960 960 397
Width: 1253
GlyphClass: 2
Flags: W
LayerCount: 2
Fore
SplineSet
1085 68 m 0,0,1
 1127 68 1127 68 1153 80 c 1,2,-1
 1153 -4 l 1,3,4
 1116 -20 1116 -20 1071 -20 c 0,5,6
 980 -20 980 -20 928.5 38 c 128,-1,7
 877 96 877 96 877 209 c 2,8,-1
 877 1001 l 1,9,-1
 344 1001 l 1,10,-1
 344 0 l 1,11,-1
 246 0 l 1,12,-1
 246 1001 l 1,13,-1
 25 1001 l 1,14,-1
 25 1059 l 1,15,-1
 190 1087 l 1,16,-1
 1196 1087 l 1,17,-1
 1196 1001 l 1,18,-1
 975 1001 l 1,19,-1
 975 223 l 2,20,21
 975 68 975 68 1085 68 c 0,0,1
EndSplineSet
EndChar

StartChar: rho
Encoding: 961 961 398
Width: 1196
GlyphClass: 2
Flags: W
LayerCount: 2
Fore
SplineSet
1077 547 m 0,0,1
 1077 268 1077 268 952.5 124 c 128,-1,2
 828 -20 828 -20 586 -20 c 0,3,4
 502 -20 502 -20 418.5 6.5 c 128,-1,5
 335 33 335 33 270 86 c 1,6,-1
 268 86 l 1,7,-1
 271 -8 l 1,8,-1
 274 -195 l 1,9,-1
 274 -492 l 1,10,-1
 176 -492 l 1,11,-1
 176 567 l 2,12,13
 176 835 176 835 290 971.5 c 128,-1,14
 404 1108 404 1108 627 1108 c 0,15,16
 848 1108 848 1108 962.5 966 c 128,-1,17
 1077 824 1077 824 1077 547 c 0,0,1
618 1018 m 0,18,19
 439 1018 439 1018 356.5 907.5 c 128,-1,20
 274 797 274 797 274 563 c 2,21,-1
 274 190 l 1,22,23
 342 129 342 129 416.5 98.5 c 128,-1,24
 491 68 491 68 588 68 c 0,25,26
 783 68 783 68 878 185.5 c 128,-1,27
 973 303 973 303 973 547 c 0,28,29
 973 779 973 779 887.5 898.5 c 128,-1,30
 802 1018 802 1018 618 1018 c 0,18,19
EndSplineSet
EndChar

StartChar: sigma1
Encoding: 962 962 399
Width: 973
GlyphClass: 2
Flags: W
LayerCount: 2
Fore
SplineSet
223 514 m 0,0,1
 223 373 223 373 258 301 c 128,-1,2
 293 229 293 229 372 181 c 128,-1,3
 451 133 451 133 590 104 c 0,4,5
 751 70 751 70 817 18 c 128,-1,6
 883 -34 883 -34 883 -129 c 0,7,8
 883 -173 883 -173 870.5 -214.5 c 128,-1,9
 858 -256 858 -256 839.5 -293 c 128,-1,10
 821 -330 821 -330 770 -401 c 1,11,-1
 674 -401 l 1,12,13
 729 -327 729 -327 758.5 -259 c 128,-1,14
 788 -191 788 -191 788 -141 c 0,15,16
 788 -76 788 -76 729 -41 c 128,-1,17
 670 -6 670 -6 522 23 c 0,18,19
 365 54 365 54 280.5 115 c 128,-1,20
 196 176 196 176 157.5 275.5 c 128,-1,21
 119 375 119 375 119 508 c 0,22,23
 119 794 119 794 253 951 c 128,-1,24
 387 1108 387 1108 633 1108 c 0,25,26
 771 1108 771 1108 901 1059 c 1,27,-1
 874 971 l 1,28,29
 805 994 805 994 738 1006 c 128,-1,30
 671 1018 671 1018 629 1018 c 0,31,32
 223 1018 223 1018 223 514 c 0,0,1
EndSplineSet
EndChar

StartChar: sigma
Encoding: 963 963 400
Width: 1202
GlyphClass: 2
Flags: W
LayerCount: 2
Fore
SplineSet
1073 518 m 0,0,1
 1073 269 1073 269 945.5 124.5 c 128,-1,2
 818 -20 818 -20 592 -20 c 0,3,4
 370 -20 370 -20 244.5 122.5 c 128,-1,5
 119 265 119 265 119 514 c 0,6,7
 119 796 119 796 268.5 941.5 c 128,-1,8
 418 1087 418 1087 705 1087 c 2,9,-1
 1153 1087 l 1,10,-1
 1153 1001 l 1,11,-1
 899 1001 l 1,12,13
 1073 801 1073 801 1073 518 c 0,0,1
223 514 m 0,14,15
 223 305 223 305 320 187.5 c 128,-1,16
 417 70 417 70 596 70 c 0,17,18
 773 70 773 70 871 186 c 128,-1,19
 969 302 969 302 969 504 c 0,20,21
 969 801 969 801 788 1001 c 1,22,-1
 709 1001 l 2,23,24
 463 1001 463 1001 343 882 c 128,-1,25
 223 763 223 763 223 514 c 0,14,15
EndSplineSet
EndChar

StartChar: tau
Encoding: 964 964 401
Width: 913
GlyphClass: 2
Flags: W
LayerCount: 2
Fore
SplineSet
848 1087 m 1,0,-1
 848 1001 l 1,1,-1
 418 1001 l 1,2,-1
 418 324 l 2,3,4
 418 193 418 193 472.5 129.5 c 128,-1,5
 527 66 527 66 647 66 c 0,6,7
 722 66 722 66 793 86 c 1,8,-1
 793 2 l 1,9,10
 736 -20 736 -20 625 -20 c 0,11,12
 472 -20 472 -20 394.5 65 c 128,-1,13
 317 150 317 150 317 311 c 2,14,-1
 317 1001 l 1,15,-1
 20 1001 l 1,16,-1
 20 1059 l 1,17,-1
 182 1087 l 1,18,-1
 848 1087 l 1,0,-1
EndSplineSet
EndChar

StartChar: upsilon
Encoding: 965 965 402
Width: 1219
GlyphClass: 2
Flags: W
LayerCount: 2
Fore
SplineSet
602 -20 m 0,0,1
 383 -20 383 -20 274.5 105 c 128,-1,2
 166 230 166 230 166 492 c 2,3,-1
 166 1087 l 1,4,-1
 264 1087 l 1,5,-1
 264 481 l 2,6,7
 264 280 264 280 346.5 174 c 128,-1,8
 429 68 429 68 610 68 c 0,9,10
 799 68 799 68 892 200 c 128,-1,11
 985 332 985 332 985 604 c 0,12,13
 985 731 985 731 972 841 c 128,-1,14
 959 951 959 951 926 1087 c 1,15,-1
 1024 1087 l 1,16,17
 1055 971 1055 971 1070 855.5 c 128,-1,18
 1085 740 1085 740 1085 596 c 0,19,20
 1085 278 1085 278 963.5 129 c 128,-1,21
 842 -20 842 -20 602 -20 c 0,0,1
EndSplineSet
EndChar

StartChar: phi
Encoding: 966 966 403
Width: 1389
GlyphClass: 2
Flags: W
LayerCount: 2
Fore
SplineSet
637 -492 m 1,0,-1
 637 -20 l 1,1,2
 381 -3 381 -3 250 141.5 c 128,-1,3
 119 286 119 286 119 553 c 0,4,5
 119 843 119 843 319 1090 c 1,6,-1
 399 1034 l 1,7,8
 297 896 297 896 260 786 c 128,-1,9
 223 676 223 676 223 553 c 0,10,11
 223 332 223 332 326 209 c 128,-1,12
 429 86 429 86 637 68 c 1,13,-1
 637 750 l 2,14,15
 637 1108 637 1108 920 1108 c 0,16,17
 1085 1108 1085 1108 1177.5 967.5 c 128,-1,18
 1270 827 1270 827 1270 582 c 0,19,20
 1270 402 1270 402 1204 270.5 c 128,-1,21
 1138 139 1138 139 1017.5 65 c 128,-1,22
 897 -9 897 -9 735 -20 c 1,23,-1
 735 -492 l 1,24,-1
 637 -492 l 1,0,-1
1165 580 m 0,25,26
 1165 784 1165 784 1095.5 901 c 128,-1,27
 1026 1018 1026 1018 913 1018 c 0,28,29
 825 1018 825 1018 780 948.5 c 128,-1,30
 735 879 735 879 735 752 c 2,31,-1
 735 68 l 1,32,33
 863 79 863 79 961.5 143.5 c 128,-1,34
 1060 208 1060 208 1112.5 319 c 128,-1,35
 1165 430 1165 430 1165 580 c 0,25,26
EndSplineSet
EndChar

StartChar: chi
Encoding: 967 967 404
Width: 1053
GlyphClass: 2
Flags: W
LayerCount: 2
Fore
SplineSet
143 1102 m 0,0,1
 183 1102 183 1102 211 1087.5 c 128,-1,2
 239 1073 239 1073 261 1044 c 128,-1,3
 283 1015 283 1015 303 967 c 128,-1,4
 323 919 323 919 520 422 c 1,5,-1
 864 1087 l 1,6,-1
 975 1087 l 1,7,-1
 569 322 l 1,8,-1
 762 -150 l 2,9,10
 816 -284 816 -284 841 -328 c 128,-1,11
 866 -372 866 -372 892 -391 c 128,-1,12
 918 -410 918 -410 954 -410 c 0,13,14
 996 -410 996 -410 1034 -401 c 1,15,-1
 1034 -477 l 1,16,17
 997 -492 997 -492 938 -492 c 0,18,19
 880 -492 880 -492 839.5 -467.5 c 128,-1,20
 799 -443 799 -443 765.5 -390.5 c 128,-1,21
 732 -338 732 -338 676 -197 c 2,22,-1
 506 231 l 1,23,-1
 92 -492 l 1,24,-1
 -20 -492 l 1,25,-1
 457 334 l 1,26,-1
 229 897 l 2,27,28
 202 964 202 964 176 993 c 128,-1,29
 150 1022 150 1022 115 1022 c 0,30,31
 86 1022 86 1022 49 1014 c 1,32,-1
 49 1085 l 1,33,34
 95 1102 95 1102 143 1102 c 0,0,1
EndSplineSet
EndChar

StartChar: psi
Encoding: 968 968 405
Width: 1477
GlyphClass: 2
Flags: W
LayerCount: 2
Fore
SplineSet
788 1554 m 1,0,-1
 788 74 l 1,1,2
 1012 91 1012 91 1127.5 221.5 c 128,-1,3
 1243 352 1243 352 1243 586 c 0,4,5
 1243 712 1243 712 1231.5 822.5 c 128,-1,6
 1220 933 1220 933 1184 1087 c 1,7,-1
 1280 1087 l 1,8,9
 1343 861 1343 861 1343 596 c 0,10,11
 1343 318 1343 318 1200.5 158.5 c 128,-1,12
 1058 -1 1058 -1 788 -18 c 1,13,-1
 788 -492 l 1,14,-1
 690 -492 l 1,15,-1
 690 -18 l 1,16,17
 433 -6 433 -6 299.5 137.5 c 128,-1,18
 166 281 166 281 166 549 c 2,19,-1
 166 1087 l 1,20,-1
 264 1087 l 1,21,-1
 264 547 l 2,22,23
 264 326 264 326 374 206.5 c 128,-1,24
 484 87 484 87 690 74 c 1,25,-1
 690 1554 l 1,26,-1
 788 1554 l 1,0,-1
EndSplineSet
EndChar

StartChar: omega
Encoding: 969 969 406
Width: 1503
GlyphClass: 2
Flags: W
LayerCount: 2
Fore
SplineSet
1034 -20 m 0,0,1
 921 -20 921 -20 857 31.5 c 128,-1,2
 793 83 793 83 758 178 c 1,3,-1
 748 178 l 1,4,5
 709 75 709 75 643.5 27.5 c 128,-1,6
 578 -20 578 -20 473 -20 c 0,7,8
 305 -20 305 -20 212 120 c 128,-1,9
 119 260 119 260 119 522 c 0,10,11
 119 683 119 683 148 817 c 128,-1,12
 177 951 177 951 242 1087 c 1,13,-1
 344 1087 l 1,14,15
 278 933 278 933 250.5 800.5 c 128,-1,16
 223 668 223 668 223 518 c 0,17,18
 223 299 223 299 290 184.5 c 128,-1,19
 357 70 357 70 481 70 c 0,20,21
 588 70 588 70 645 144.5 c 128,-1,22
 702 219 702 219 702 360 c 2,23,-1
 702 684 l 1,24,-1
 801 684 l 1,25,-1
 801 360 l 2,26,27
 801 224 801 224 859.5 147 c 128,-1,28
 918 70 918 70 1028 70 c 0,29,30
 1152 70 1152 70 1216 186 c 128,-1,31
 1280 302 1280 302 1280 518 c 0,32,33
 1280 671 1280 671 1252.5 801.5 c 128,-1,34
 1225 932 1225 932 1159 1087 c 1,35,-1
 1262 1087 l 1,36,37
 1325 955 1325 955 1354.5 820.5 c 128,-1,38
 1384 686 1384 686 1384 522 c 0,39,40
 1384 264 1384 264 1293 122 c 128,-1,41
 1202 -20 1202 -20 1034 -20 c 0,0,1
EndSplineSet
EndChar

StartChar: afii10051
Encoding: 1026 1026 413
Width: 1425
GlyphClass: 2
Flags: W
LayerCount: 2
Fore
SplineSet
928 -20 m 0,0,1
 834 -20 834 -20 786 -2 c 1,2,-1
 786 98 l 1,3,4
 844 80 844 80 928 80 c 0,5,6
 1037 80 1037 80 1096 151.5 c 128,-1,7
 1155 223 1155 223 1155 356 c 2,8,-1
 1155 516 l 2,9,10
 1155 662 1155 662 1085.5 723 c 128,-1,11
 1016 784 1016 784 858 784 c 2,12,-1
 449 784 l 1,13,-1
 449 0 l 1,14,-1
 346 0 l 1,15,-1
 346 1366 l 1,16,-1
 10 1366 l 1,17,-1
 10 1462 l 1,18,-1
 965 1462 l 1,19,-1
 965 1366 l 1,20,-1
 449 1366 l 1,21,-1
 449 879 l 1,22,-1
 887 879 l 2,23,24
 1077 879 1077 879 1168.5 791 c 128,-1,25
 1260 703 1260 703 1260 520 c 2,26,-1
 1260 360 l 2,27,28
 1260 177 1260 177 1174 78.5 c 128,-1,29
 1088 -20 1088 -20 928 -20 c 0,0,1
EndSplineSet
EndChar

StartChar: afii10053
Encoding: 1028 1028 415
Width: 1272
GlyphClass: 2
Flags: W
LayerCount: 2
Fore
SplineSet
831 1391 m 0,0,1
 575 1391 575 1391 418.5 1238 c 128,-1,2
 262 1085 262 1085 242 813 c 1,3,-1
 1018 813 l 1,4,-1
 1018 719 l 1,5,-1
 238 719 l 1,6,7
 244 408 244 408 394 241 c 128,-1,8
 544 74 544 74 815 74 c 0,9,10
 999 74 999 74 1153 121 c 1,11,-1
 1153 31 l 1,12,13
 1008 -20 1008 -20 791 -20 c 0,14,15
 483 -20 483 -20 306 179 c 128,-1,16
 129 378 129 378 129 735 c 0,17,18
 129 958 129 958 213.5 1128 c 128,-1,19
 298 1298 298 1298 456.5 1390.5 c 128,-1,20
 615 1483 615 1483 825 1483 c 0,21,22
 1039 1483 1039 1483 1208 1403 c 1,23,-1
 1167 1311 l 1,24,25
 1007 1391 1007 1391 831 1391 c 0,0,1
EndSplineSet
EndChar

StartChar: afii10058
Encoding: 1033 1033 420
Width: 1874
GlyphClass: 2
Flags: W
LayerCount: 2
Fore
SplineSet
1761 424 m 256,0,1
 1761 219 1761 219 1635 109.5 c 128,-1,2
 1509 0 1509 0 1280 0 c 2,3,-1
 965 0 l 1,4,-1
 965 1366 l 1,5,-1
 563 1366 l 1,6,7
 492 859 492 859 451 602.5 c 128,-1,8
 410 346 410 346 371.5 217 c 128,-1,9
 333 88 333 88 274 32.5 c 128,-1,10
 215 -23 215 -23 117 -23 c 0,11,12
 55 -23 55 -23 0 2 c 1,13,-1
 0 94 l 1,14,15
 61 72 61 72 109 72 c 0,16,17
 177 72 177 72 216 123 c 128,-1,18
 255 174 255 174 289 307.5 c 128,-1,19
 323 441 323 441 369 722.5 c 128,-1,20
 415 1004 415 1004 477 1462 c 1,21,-1
 1067 1462 l 1,22,-1
 1067 817 l 1,23,-1
 1262 817 l 2,24,25
 1512 817 1512 817 1636.5 723 c 128,-1,26
 1761 629 1761 629 1761 424 c 256,0,1
1067 90 m 1,27,-1
 1257 90 l 2,28,29
 1459 90 1459 90 1555 170.5 c 128,-1,30
 1651 251 1651 251 1651 424 c 0,31,32
 1651 585 1651 585 1557 656 c 128,-1,33
 1463 727 1463 727 1243 727 c 2,34,-1
 1067 727 l 1,35,-1
 1067 90 l 1,27,-1
EndSplineSet
EndChar

StartChar: afii10059
Encoding: 1034 1034 421
Width: 1939
GlyphClass: 2
Flags: W
LayerCount: 2
Fore
SplineSet
1133 817 m 1,0,-1
 1327 817 l 2,1,2
 1576 817 1576 817 1701.5 723 c 128,-1,3
 1827 629 1827 629 1827 424 c 0,4,5
 1827 220 1827 220 1701 110 c 128,-1,6
 1575 0 1575 0 1346 0 c 2,7,-1
 1030 0 l 1,8,-1
 1030 723 l 1,9,-1
 309 723 l 1,10,-1
 309 0 l 1,11,-1
 207 0 l 1,12,-1
 207 1462 l 1,13,-1
 309 1462 l 1,14,-1
 309 817 l 1,15,-1
 1030 817 l 1,16,-1
 1030 1462 l 1,17,-1
 1133 1462 l 1,18,-1
 1133 817 l 1,0,-1
1133 90 m 1,19,-1
 1323 90 l 2,20,21
 1524 90 1524 90 1620 169.5 c 128,-1,22
 1716 249 1716 249 1716 424 c 0,23,24
 1716 585 1716 585 1622 656 c 128,-1,25
 1528 727 1528 727 1309 727 c 2,26,-1
 1133 727 l 1,27,-1
 1133 90 l 1,19,-1
EndSplineSet
EndChar

StartChar: afii10060
Encoding: 1035 1035 422
Width: 1430
GlyphClass: 2
Flags: W
LayerCount: 2
Fore
SplineSet
449 879 m 1,0,-1
 899 879 l 2,1,2
 1088 879 1088 879 1174 794 c 128,-1,3
 1260 709 1260 709 1260 520 c 2,4,-1
 1260 0 l 1,5,-1
 1155 0 l 1,6,-1
 1155 526 l 2,7,8
 1155 671 1155 671 1095 727.5 c 128,-1,9
 1035 784 1035 784 885 784 c 2,10,-1
 449 784 l 1,11,-1
 449 0 l 1,12,-1
 346 0 l 1,13,-1
 346 1366 l 1,14,-1
 10 1366 l 1,15,-1
 10 1462 l 1,16,-1
 991 1462 l 1,17,-1
 991 1366 l 1,18,-1
 449 1366 l 1,19,-1
 449 879 l 1,0,-1
EndSplineSet
EndChar

StartChar: afii10145
Encoding: 1039 1039 425
Width: 1462
GlyphClass: 2
Flags: W
LayerCount: 2
Fore
SplineSet
1255 0 m 1,0,-1
 780 0 l 1,1,-1
 780 -369 l 1,2,-1
 682 -369 l 1,3,-1
 682 0 l 1,4,-1
 207 0 l 1,5,-1
 207 1462 l 1,6,-1
 309 1462 l 1,7,-1
 309 96 l 1,8,-1
 1153 96 l 1,9,-1
 1153 1462 l 1,10,-1
 1255 1462 l 1,11,-1
 1255 0 l 1,0,-1
EndSplineSet
EndChar

StartChar: afii10018
Encoding: 1041 1041 427
Width: 1219
GlyphClass: 2
Flags: W
LayerCount: 2
Fore
SplineSet
602 817 m 2,0,1
 854 817 854 817 980 721.5 c 128,-1,2
 1106 626 1106 626 1106 420 c 0,3,4
 1106 218 1106 218 981.5 109 c 128,-1,5
 857 0 857 0 625 0 c 2,6,-1
 207 0 l 1,7,-1
 207 1462 l 1,8,-1
 1028 1462 l 1,9,-1
 1028 1366 l 1,10,-1
 309 1366 l 1,11,-1
 309 817 l 1,12,-1
 602 817 l 2,0,1
309 90 m 1,13,-1
 608 90 l 2,14,15
 805 90 805 90 900 169.5 c 128,-1,16
 995 249 995 249 995 420 c 0,17,18
 995 585 995 585 899 656 c 128,-1,19
 803 727 803 727 588 727 c 2,20,-1
 309 727 l 1,21,-1
 309 90 l 1,13,-1
EndSplineSet
EndChar

StartChar: afii10021
Encoding: 1044 1044 430
Width: 1337
GlyphClass: 2
Flags: W
LayerCount: 2
Fore
SplineSet
1276 -369 m 1,0,-1
 1178 -369 l 1,1,-1
 1178 0 l 1,2,-1
 113 0 l 1,3,-1
 113 -369 l 1,4,-1
 14 -369 l 1,5,-1
 14 96 l 1,6,-1
 119 96 l 1,7,8
 267 353 267 353 379 748.5 c 128,-1,9
 491 1144 491 1144 504 1462 c 1,10,-1
 1126 1462 l 1,11,-1
 1126 96 l 1,12,-1
 1276 96 l 1,13,-1
 1276 -369 l 1,0,-1
1022 96 m 1,14,-1
 1022 1366 l 1,15,-1
 592 1366 l 1,16,17
 568 1051 568 1051 466 687 c 128,-1,18
 364 323 364 323 233 96 c 1,19,-1
 1022 96 l 1,14,-1
EndSplineSet
EndChar

StartChar: afii10024
Encoding: 1046 1046 432
Width: 1597
GlyphClass: 2
Flags: W
LayerCount: 2
Fore
SplineSet
625 745 m 1,0,-1
 33 1462 l 1,1,-1
 160 1462 l 1,2,-1
 748 754 l 1,3,-1
 748 1462 l 1,4,-1
 850 1462 l 1,5,-1
 850 754 l 1,6,-1
 1438 1462 l 1,7,-1
 1565 1462 l 1,8,-1
 971 752 l 1,9,-1
 1597 0 l 1,10,-1
 1462 0 l 1,11,-1
 850 741 l 1,12,-1
 850 0 l 1,13,-1
 748 0 l 1,14,-1
 748 741 l 1,15,-1
 135 0 l 1,16,-1
 0 0 l 1,17,-1
 625 745 l 1,0,-1
EndSplineSet
EndChar

StartChar: afii10025
Encoding: 1047 1047 433
Width: 1145
GlyphClass: 2
Flags: W
LayerCount: 2
Fore
SplineSet
1001 1120 m 0,0,1
 1001 834 1001 834 698 768 c 1,2,-1
 698 762 l 1,3,4
 1030 691 1030 691 1030 406 c 0,5,6
 1030 205 1030 205 888.5 92.5 c 128,-1,7
 747 -20 747 -20 489 -20 c 0,8,9
 247 -20 247 -20 82 66 c 1,10,-1
 82 170 l 1,11,12
 177 124 177 124 285 99 c 128,-1,13
 393 74 393 74 489 74 c 0,14,15
 689 74 689 74 804.5 160.5 c 128,-1,16
 920 247 920 247 920 403 c 0,17,18
 920 555 920 555 807.5 633 c 128,-1,19
 695 711 695 711 471 711 c 2,20,-1
 254 711 l 1,21,-1
 254 807 l 1,22,-1
 479 807 l 2,23,24
 691 807 691 807 792 887 c 128,-1,25
 893 967 893 967 893 1114 c 0,26,27
 893 1239 893 1239 800.5 1314 c 128,-1,28
 708 1389 708 1389 559 1389 c 0,29,30
 448 1389 448 1389 355 1357.5 c 128,-1,31
 262 1326 262 1326 154 1249 c 1,32,-1
 96 1329 l 1,33,34
 298 1483 298 1483 559 1483 c 0,35,36
 764 1483 764 1483 882.5 1385 c 128,-1,37
 1001 1287 1001 1287 1001 1120 c 0,0,1
EndSplineSet
EndChar

StartChar: afii10026
Encoding: 1048 1048 434
Width: 1477
GlyphClass: 2
Flags: W
LayerCount: 2
Fore
SplineSet
207 1462 m 1,0,-1
 305 1462 l 1,1,-1
 305 506 l 2,2,3
 305 404 305 404 297 164 c 1,4,-1
 303 164 l 1,5,-1
 1167 1462 l 1,6,-1
 1270 1462 l 1,7,-1
 1270 0 l 1,8,-1
 1171 0 l 1,9,-1
 1171 950 l 2,10,11
 1171 1112 1171 1112 1184 1300 c 1,12,-1
 1176 1300 l 1,13,-1
 309 0 l 1,14,-1
 207 0 l 1,15,-1
 207 1462 l 1,0,-1
EndSplineSet
EndChar

StartChar: afii10028
Encoding: 1050 1050 436
Width: 1171
GlyphClass: 2
Flags: W
LayerCount: 2
Fore
SplineSet
1171 0 m 1,0,-1
 1032 0 l 1,1,-1
 309 745 l 1,2,-1
 309 0 l 1,3,-1
 207 0 l 1,4,-1
 207 1462 l 1,5,-1
 309 1462 l 1,6,-1
 309 754 l 1,7,-1
 1012 1462 l 1,8,-1
 1147 1462 l 1,9,-1
 440 754 l 1,10,-1
 1171 0 l 1,0,-1
EndSplineSet
EndChar

StartChar: afii10029
Encoding: 1051 1051 437
Width: 1395
GlyphClass: 2
Flags: W
LayerCount: 2
Fore
SplineSet
1188 0 m 1,0,-1
 1085 0 l 1,1,-1
 1085 1366 l 1,2,-1
 555 1366 l 1,3,4
 514 1027 514 1027 468 723 c 128,-1,5
 422 419 422 419 390.5 290 c 128,-1,6
 359 161 359 161 324.5 98.5 c 128,-1,7
 290 36 290 36 241 6.5 c 128,-1,8
 192 -23 192 -23 117 -23 c 0,9,10
 50 -23 50 -23 0 2 c 1,11,-1
 0 94 l 1,12,13
 61 72 61 72 113 72 c 0,14,15
 200 72 200 72 248.5 180 c 128,-1,16
 297 288 297 288 354.5 646 c 128,-1,17
 412 1004 412 1004 469 1462 c 1,18,-1
 1188 1462 l 1,19,-1
 1188 0 l 1,0,-1
EndSplineSet
EndChar

StartChar: afii10037
Encoding: 1059 1059 445
Width: 1204
GlyphClass: 2
Flags: W
LayerCount: 2
Fore
SplineSet
276 -20 m 0,0,1
 157 -20 157 -20 84 10 c 1,2,-1
 84 113 l 1,3,4
 170 76 170 76 266 76 c 0,5,6
 338 76 338 76 389.5 100.5 c 128,-1,7
 441 125 441 125 485 179.5 c 128,-1,8
 529 234 529 234 592 362 c 1,9,-1
 10 1462 l 1,10,-1
 131 1462 l 1,11,-1
 578 608 l 2,12,13
 613 539 613 539 641 465 c 1,14,-1
 645 465 l 1,15,-1
 670 526 l 1,16,-1
 1090 1462 l 1,17,-1
 1204 1462 l 1,18,-1
 735 434 l 2,19,20
 690 335 690 335 649 251.5 c 128,-1,21
 608 168 608 168 558 108 c 128,-1,22
 508 48 508 48 441 14 c 128,-1,23
 374 -20 374 -20 276 -20 c 0,0,1
EndSplineSet
EndChar

StartChar: afii10040
Encoding: 1062 1062 448
Width: 1473
GlyphClass: 2
Flags: W
LayerCount: 2
Fore
SplineSet
1255 96 m 1,0,-1
 1411 96 l 1,1,-1
 1411 -369 l 1,2,-1
 1313 -369 l 1,3,-1
 1313 0 l 1,4,-1
 207 0 l 1,5,-1
 207 1462 l 1,6,-1
 309 1462 l 1,7,-1
 309 96 l 1,8,-1
 1153 96 l 1,9,-1
 1153 1462 l 1,10,-1
 1255 1462 l 1,11,-1
 1255 96 l 1,0,-1
EndSplineSet
EndChar

StartChar: afii10041
Encoding: 1063 1063 449
Width: 1372
GlyphClass: 2
Flags: W
LayerCount: 2
Fore
SplineSet
1165 0 m 1,0,-1
 1063 0 l 1,1,-1
 1063 635 l 1,2,3
 802 532 802 532 602 532 c 0,4,5
 398 532 398 532 290 622.5 c 128,-1,6
 182 713 182 713 182 899 c 2,7,-1
 182 1462 l 1,8,-1
 285 1462 l 1,9,-1
 285 895 l 2,10,11
 285 629 285 629 610 629 c 0,12,13
 706 629 706 629 802 646.5 c 128,-1,14
 898 664 898 664 1063 723 c 1,15,-1
 1063 1462 l 1,16,-1
 1165 1462 l 1,17,-1
 1165 0 l 1,0,-1
EndSplineSet
EndChar

StartChar: afii10042
Encoding: 1064 1064 450
Width: 2060
GlyphClass: 2
Flags: W
LayerCount: 2
Fore
SplineSet
1853 0 m 1,0,-1
 207 0 l 1,1,-1
 207 1462 l 1,2,-1
 309 1462 l 1,3,-1
 309 96 l 1,4,-1
 979 96 l 1,5,-1
 979 1462 l 1,6,-1
 1081 1462 l 1,7,-1
 1081 96 l 1,8,-1
 1751 96 l 1,9,-1
 1751 1462 l 1,10,-1
 1853 1462 l 1,11,-1
 1853 0 l 1,0,-1
EndSplineSet
EndChar

StartChar: afii10043
Encoding: 1065 1065 451
Width: 2071
GlyphClass: 2
Flags: W
LayerCount: 2
Fore
SplineSet
207 0 m 1,0,-1
 207 1462 l 1,1,-1
 309 1462 l 1,2,-1
 309 96 l 1,3,-1
 979 96 l 1,4,-1
 979 1462 l 1,5,-1
 1081 1462 l 1,6,-1
 1081 96 l 1,7,-1
 1751 96 l 1,8,-1
 1751 1462 l 1,9,-1
 1853 1462 l 1,10,-1
 1853 96 l 1,11,-1
 2009 96 l 1,12,-1
 2009 -369 l 1,13,-1
 1911 -369 l 1,14,-1
 1911 0 l 1,15,-1
 207 0 l 1,0,-1
EndSplineSet
EndChar

StartChar: afii10044
Encoding: 1066 1066 452
Width: 1348
GlyphClass: 2
Flags: W
LayerCount: 2
Fore
SplineSet
346 0 m 1,0,-1
 346 1366 l 1,1,-1
 10 1366 l 1,2,-1
 10 1462 l 1,3,-1
 449 1462 l 1,4,-1
 449 817 l 1,5,-1
 731 817 l 2,6,7
 983 817 983 817 1109 721.5 c 128,-1,8
 1235 626 1235 626 1235 420 c 0,9,10
 1235 218 1235 218 1110.5 109 c 128,-1,11
 986 0 986 0 754 0 c 2,12,-1
 346 0 l 1,0,-1
449 90 m 1,13,-1
 737 90 l 2,14,15
 934 90 934 90 1029 169.5 c 128,-1,16
 1124 249 1124 249 1124 420 c 0,17,18
 1124 585 1124 585 1028 656 c 128,-1,19
 932 727 932 727 717 727 c 2,20,-1
 449 727 l 1,21,-1
 449 90 l 1,13,-1
EndSplineSet
EndChar

StartChar: afii10045
Encoding: 1067 1067 453
Width: 1669
GlyphClass: 2
Flags: W
LayerCount: 2
Fore
SplineSet
1462 0 m 1,0,-1
 1360 0 l 1,1,-1
 1360 1462 l 1,2,-1
 1462 1462 l 1,3,-1
 1462 0 l 1,0,-1
309 817 m 1,4,-1
 592 817 l 2,5,6
 843 817 843 817 969.5 721.5 c 128,-1,7
 1096 626 1096 626 1096 420 c 0,8,9
 1096 218 1096 218 972 109 c 128,-1,10
 848 0 848 0 614 0 c 2,11,-1
 207 0 l 1,12,-1
 207 1462 l 1,13,-1
 309 1462 l 1,14,-1
 309 817 l 1,4,-1
309 90 m 1,15,-1
 598 90 l 2,16,17
 802 90 802 90 893.5 173 c 128,-1,18
 985 256 985 256 985 420 c 0,19,20
 985 583 985 583 890 655 c 128,-1,21
 795 727 795 727 578 727 c 2,22,-1
 309 727 l 1,23,-1
 309 90 l 1,15,-1
EndSplineSet
EndChar

StartChar: afii10046
Encoding: 1068 1068 454
Width: 1219
GlyphClass: 2
Flags: W
LayerCount: 2
Fore
SplineSet
309 817 m 1,0,-1
 604 817 l 2,1,2
 856 817 856 817 982 721.5 c 128,-1,3
 1108 626 1108 626 1108 420 c 0,4,5
 1108 217 1108 217 984 108.5 c 128,-1,6
 860 0 860 0 627 0 c 2,7,-1
 207 0 l 1,8,-1
 207 1462 l 1,9,-1
 309 1462 l 1,10,-1
 309 817 l 1,0,-1
309 90 m 1,11,-1
 610 90 l 2,12,13
 807 90 807 90 902 169.5 c 128,-1,14
 997 249 997 249 997 420 c 0,15,16
 997 585 997 585 901 656 c 128,-1,17
 805 727 805 727 590 727 c 2,18,-1
 309 727 l 1,19,-1
 309 90 l 1,11,-1
EndSplineSet
EndChar

StartChar: afii10047
Encoding: 1069 1069 455
Width: 1266
GlyphClass: 2
Flags: W
LayerCount: 2
Fore
SplineSet
434 1391 m 0,0,1
 354 1391 354 1391 279.5 1373.5 c 128,-1,2
 205 1356 205 1356 117 1313 c 1,3,-1
 76 1405 l 1,4,5
 240 1483 240 1483 444 1483 c 0,6,7
 768 1483 768 1483 952.5 1291 c 128,-1,8
 1137 1099 1137 1099 1137 766 c 0,9,10
 1137 527 1137 527 1054 349 c 128,-1,11
 971 171 971 171 814.5 75.5 c 128,-1,12
 658 -20 658 -20 453 -20 c 0,13,14
 215 -20 215 -20 70 31 c 1,15,-1
 70 125 l 1,16,17
 237 74 237 74 434 74 c 0,18,19
 704 74 704 74 859 243 c 128,-1,20
 1014 412 1014 412 1028 719 c 1,21,-1
 254 719 l 1,22,-1
 254 813 l 1,23,-1
 1026 813 l 1,24,25
 1004 1091 1004 1091 851.5 1241 c 128,-1,26
 699 1391 699 1391 434 1391 c 0,0,1
EndSplineSet
EndChar

StartChar: afii10048
Encoding: 1070 1070 456
Width: 2105
GlyphClass: 2
Flags: W
LayerCount: 2
Fore
SplineSet
1976 733 m 0,0,1
 1976 385 1976 385 1810 182.5 c 128,-1,2
 1644 -20 1644 -20 1350 -20 c 0,3,4
 1057 -20 1057 -20 891 179.5 c 128,-1,5
 725 379 725 379 723 719 c 1,6,-1
 309 719 l 1,7,-1
 309 0 l 1,8,-1
 207 0 l 1,9,-1
 207 1462 l 1,10,-1
 309 1462 l 1,11,-1
 309 813 l 1,12,-1
 725 813 l 1,13,14
 744 1125 744 1125 910 1305 c 128,-1,15
 1076 1485 1076 1485 1352 1485 c 0,16,17
 1645 1485 1645 1485 1810.5 1283.5 c 128,-1,18
 1976 1082 1976 1082 1976 733 c 0,0,1
834 733 m 256,19,20
 834 420 834 420 967 248 c 128,-1,21
 1100 76 1100 76 1350 76 c 256,22,23
 1600 76 1600 76 1733 246.5 c 128,-1,24
 1866 417 1866 417 1866 733 c 0,25,26
 1866 1048 1866 1048 1733.5 1217 c 128,-1,27
 1601 1386 1601 1386 1352 1386 c 0,28,29
 1104 1386 1104 1386 969 1216 c 128,-1,30
 834 1046 834 1046 834 733 c 256,19,20
EndSplineSet
EndChar

StartChar: afii10049
Encoding: 1071 1071 457
Width: 1202
GlyphClass: 2
Flags: W
LayerCount: 2
Fore
SplineSet
545 637 m 1,0,-1
 154 0 l 1,1,-1
 31 0 l 1,2,-1
 442 657 l 1,3,4
 289 687 289 687 205 788 c 128,-1,5
 121 889 121 889 121 1042 c 0,6,7
 121 1462 121 1462 647 1462 c 2,8,-1
 995 1462 l 1,9,-1
 995 0 l 1,10,-1
 893 0 l 1,11,-1
 893 637 l 1,12,-1
 545 637 l 1,0,-1
893 1370 m 1,13,-1
 651 1370 l 2,14,15
 430 1370 430 1370 330.5 1293.5 c 128,-1,16
 231 1217 231 1217 231 1047 c 0,17,18
 231 887 231 887 329 806 c 128,-1,19
 427 725 427 725 616 725 c 2,20,-1
 893 725 l 1,21,-1
 893 1370 l 1,13,-1
EndSplineSet
EndChar

StartChar: afii10066
Encoding: 1073 1073 459
Width: 1176
GlyphClass: 2
Flags: W
LayerCount: 2
Fore
SplineSet
123 653 m 0,0,1
 123 1361 123 1361 522 1460 c 0,2,3
 662 1495 662 1495 790.5 1519.5 c 128,-1,4
 919 1544 919 1544 1018 1563 c 1,5,-1
 1036 1477 l 1,6,-1
 916 1454 l 2,7,8
 619 1398 619 1398 524 1368 c 1,9,10
 389 1329 389 1329 312.5 1181 c 128,-1,11
 236 1033 236 1033 225 776 c 1,12,-1
 231 776 l 1,13,14
 338 903 338 903 439 957.5 c 128,-1,15
 540 1012 540 1012 647 1012 c 0,16,17
 847 1012 847 1012 953 883 c 128,-1,18
 1059 754 1059 754 1059 516 c 0,19,20
 1059 263 1059 263 937 121.5 c 128,-1,21
 815 -20 815 -20 594 -20 c 0,22,23
 370 -20 370 -20 246.5 155 c 128,-1,24
 123 330 123 330 123 653 c 0,0,1
602 70 m 0,25,26
 773 70 773 70 863.5 184 c 128,-1,27
 954 298 954 298 954 512 c 0,28,29
 954 715 954 715 873.5 818.5 c 128,-1,30
 793 922 793 922 637 922 c 0,31,32
 521 922 521 922 412.5 849.5 c 128,-1,33
 304 777 304 777 223 649 c 1,34,35
 223 470 223 470 267.5 335 c 128,-1,36
 312 200 312 200 397 135 c 128,-1,37
 482 70 482 70 602 70 c 0,25,26
EndSplineSet
EndChar

StartChar: afii10067
Encoding: 1074 1074 460
Width: 1159
GlyphClass: 2
Flags: W
LayerCount: 2
Fore
SplineSet
1016 825 m 0,0,1
 1016 722 1016 722 965 663.5 c 128,-1,2
 914 605 914 605 799 582 c 1,3,-1
 799 575 l 1,4,5
 930 560 930 560 988.5 499.5 c 128,-1,6
 1047 439 1047 439 1047 326 c 0,7,8
 1047 169 1047 169 943.5 84.5 c 128,-1,9
 840 0 840 0 641 0 c 2,10,-1
 182 0 l 1,11,-1
 182 1087 l 1,12,-1
 643 1087 l 2,13,14
 829 1087 829 1087 922.5 1020 c 128,-1,15
 1016 953 1016 953 1016 825 c 0,0,1
942 328 m 0,16,17
 942 528 942 528 635 528 c 2,18,-1
 281 528 l 1,19,-1
 281 94 l 1,20,-1
 649 94 l 2,21,22
 942 94 942 94 942 328 c 0,16,17
911 817 m 0,23,24
 911 912 911 912 843 952.5 c 128,-1,25
 775 993 775 993 639 993 c 2,26,-1
 281 993 l 1,27,-1
 281 621 l 1,28,-1
 627 621 l 2,29,30
 779 621 779 621 845 668 c 128,-1,31
 911 715 911 715 911 817 c 0,23,24
EndSplineSet
EndChar

StartChar: afii10068
Encoding: 1075 1075 461
Width: 862
GlyphClass: 2
Flags: W
LayerCount: 2
Fore
SplineSet
821 1001 m 1,0,-1
 281 1001 l 1,1,-1
 281 0 l 1,2,-1
 182 0 l 1,3,-1
 182 1087 l 1,4,-1
 821 1087 l 1,5,-1
 821 1001 l 1,0,-1
EndSplineSet
EndChar

StartChar: afii10069
Encoding: 1076 1076 462
Width: 1118
GlyphClass: 2
Flags: W
LayerCount: 2
Fore
SplineSet
1069 -369 m 1,0,-1
 971 -369 l 1,1,-1
 971 0 l 1,2,-1
 139 0 l 1,3,-1
 139 -369 l 1,4,-1
 41 -369 l 1,5,-1
 41 94 l 1,6,-1
 113 94 l 1,7,8
 249 285 249 285 323 537 c 128,-1,9
 397 789 397 789 401 1087 c 1,10,-1
 924 1087 l 1,11,-1
 924 94 l 1,12,-1
 1069 94 l 1,13,-1
 1069 -369 l 1,0,-1
825 94 m 1,14,-1
 825 995 l 1,15,-1
 487 995 l 1,16,17
 463 454 463 454 225 94 c 1,18,-1
 825 94 l 1,14,-1
EndSplineSet
EndChar

StartChar: afii10072
Encoding: 1078 1078 464
Width: 1362
GlyphClass: 2
Flags: W
LayerCount: 2
Fore
SplineSet
631 1087 m 1,0,-1
 731 1087 l 1,1,-1
 731 559 l 1,2,-1
 1198 1087 l 1,3,-1
 1319 1087 l 1,4,-1
 848 559 l 1,5,-1
 1356 0 l 1,6,-1
 1229 0 l 1,7,-1
 731 551 l 1,8,-1
 731 0 l 1,9,-1
 631 0 l 1,10,-1
 631 551 l 1,11,-1
 133 0 l 1,12,-1
 6 0 l 1,13,-1
 512 555 l 1,14,-1
 43 1087 l 1,15,-1
 164 1087 l 1,16,-1
 631 559 l 1,17,-1
 631 1087 l 1,0,-1
EndSplineSet
EndChar

StartChar: afii10073
Encoding: 1079 1079 465
Width: 926
GlyphClass: 2
Flags: W
LayerCount: 2
Fore
SplineSet
387 618 m 2,0,1
 682 618 682 618 682 821 c 0,2,3
 682 918 682 918 614 969 c 128,-1,4
 546 1020 546 1020 420 1020 c 0,5,6
 340 1020 340 1020 271 1001.5 c 128,-1,7
 202 983 202 983 123 948 c 1,8,-1
 86 1030 l 1,9,10
 260 1108 260 1108 424 1108 c 0,11,12
 602 1108 602 1108 694 1034 c 128,-1,13
 786 960 786 960 786 829 c 0,14,15
 786 640 786 640 592 588 c 1,16,-1
 592 582 l 1,17,18
 713 552 713 552 768 482.5 c 128,-1,19
 823 413 823 413 823 305 c 0,20,21
 823 154 823 154 712.5 67 c 128,-1,22
 602 -20 602 -20 406 -20 c 0,23,24
 300 -20 300 -20 212.5 0.5 c 128,-1,25
 125 21 125 21 68 55 c 1,26,-1
 68 154 l 1,27,28
 171 105 171 105 246 87.5 c 128,-1,29
 321 70 321 70 406 70 c 0,30,31
 554 70 554 70 636.5 132.5 c 128,-1,32
 719 195 719 195 719 311 c 0,33,34
 719 424 719 424 640 478 c 128,-1,35
 561 532 561 532 403 532 c 2,36,-1
 252 532 l 1,37,-1
 252 618 l 1,38,-1
 387 618 l 2,0,1
EndSplineSet
EndChar

StartChar: afii10074
Encoding: 1080 1080 466
Width: 1229
GlyphClass: 2
Flags: W
LayerCount: 2
Fore
SplineSet
276 1087 m 1,0,-1
 276 301 l 1,1,-1
 270 96 l 1,2,-1
 915 1087 l 1,3,-1
 1047 1087 l 1,4,-1
 1047 0 l 1,5,-1
 952 0 l 1,6,-1
 952 781 l 1,7,-1
 956 991 l 1,8,-1
 311 0 l 1,9,-1
 182 0 l 1,10,-1
 182 1087 l 1,11,-1
 276 1087 l 1,0,-1
EndSplineSet
EndChar

StartChar: afii10076
Encoding: 1082 1082 468
Width: 940
GlyphClass: 2
Flags: W
LayerCount: 2
Fore
SplineSet
772 1087 m 1,0,-1
 895 1087 l 1,1,-1
 408 561 l 1,2,-1
 930 0 l 1,3,-1
 797 0 l 1,4,-1
 283 551 l 1,5,-1
 283 0 l 1,6,-1
 182 0 l 1,7,-1
 182 1087 l 1,8,-1
 283 1087 l 1,9,-1
 283 559 l 1,10,-1
 772 1087 l 1,0,-1
EndSplineSet
EndChar

StartChar: afii10077
Encoding: 1083 1083 469
Width: 1116
GlyphClass: 2
Flags: W
LayerCount: 2
Fore
SplineSet
934 0 m 1,0,-1
 836 0 l 1,1,-1
 836 995 l 1,2,-1
 451 995 l 1,3,4
 421 600 421 600 377.5 392.5 c 128,-1,5
 334 185 334 185 265.5 87.5 c 128,-1,6
 197 -10 197 -10 88 -10 c 0,7,8
 49 -10 49 -10 20 -2 c 1,9,-1
 20 88 l 1,10,11
 39 82 39 82 74 82 c 0,12,13
 187 82 187 82 256.5 320.5 c 128,-1,14
 326 559 326 559 362 1087 c 1,15,-1
 934 1087 l 1,16,-1
 934 0 l 1,0,-1
EndSplineSet
EndChar

StartChar: afii10078
Encoding: 1084 1084 470
Width: 1382
GlyphClass: 2
Flags: W
LayerCount: 2
Fore
SplineSet
688 106 m 1,0,-1
 750 281 l 1,1,-1
 1063 1087 l 1,2,-1
 1200 1087 l 1,3,-1
 1200 0 l 1,4,-1
 1106 0 l 1,5,-1
 1106 967 l 1,6,7
 1084 904 1084 904 1059.5 838 c 128,-1,8
 1035 772 1035 772 733 0 c 1,9,-1
 645 0 l 1,10,-1
 344 764 l 2,11,12
 325 810 325 810 308.5 861 c 128,-1,13
 292 912 292 912 272 971 c 1,14,-1
 272 0 l 1,15,-1
 182 0 l 1,16,-1
 182 1087 l 1,17,-1
 313 1087 l 1,18,-1
 627 287 l 2,19,20
 664 190 664 190 688 106 c 1,0,-1
EndSplineSet
EndChar

StartChar: afii10079
Encoding: 1085 1085 471
Width: 1251
GlyphClass: 2
Flags: W
LayerCount: 2
Fore
SplineSet
281 1087 m 1,0,-1
 281 610 l 1,1,-1
 971 610 l 1,2,-1
 971 1087 l 1,3,-1
 1069 1087 l 1,4,-1
 1069 0 l 1,5,-1
 971 0 l 1,6,-1
 971 524 l 1,7,-1
 281 524 l 1,8,-1
 281 0 l 1,9,-1
 182 0 l 1,10,-1
 182 1087 l 1,11,-1
 281 1087 l 1,0,-1
EndSplineSet
EndChar

StartChar: afii10081
Encoding: 1087 1087 473
Width: 1231
GlyphClass: 2
Flags: W
LayerCount: 2
Fore
SplineSet
281 0 m 1,0,-1
 182 0 l 1,1,-1
 182 1087 l 1,2,-1
 1049 1087 l 1,3,-1
 1049 0 l 1,4,-1
 950 0 l 1,5,-1
 950 993 l 1,6,-1
 281 993 l 1,7,-1
 281 0 l 1,0,-1
EndSplineSet
EndChar

StartChar: afii10084
Encoding: 1090 1090 476
Width: 913
GlyphClass: 2
Flags: W
LayerCount: 2
Fore
SplineSet
872 1001 m 1,0,-1
 510 1001 l 1,1,-1
 510 0 l 1,2,-1
 412 0 l 1,3,-1
 412 1001 l 1,4,-1
 41 1001 l 1,5,-1
 41 1087 l 1,6,-1
 872 1087 l 1,7,-1
 872 1001 l 1,0,-1
EndSplineSet
EndChar

StartChar: afii10086
Encoding: 1092 1092 478
Width: 1372
GlyphClass: 2
Flags: W
LayerCount: 2
Fore
SplineSet
1253 545 m 256,0,1
 1253 294 1253 294 1117.5 146 c 128,-1,2
 982 -2 982 -2 737 -20 c 1,3,-1
 737 -492 l 1,4,-1
 639 -492 l 1,5,-1
 639 -20 l 1,6,7
 395 -6 395 -6 257 142 c 128,-1,8
 119 290 119 290 119 545 c 0,9,10
 119 796 119 796 255 943 c 128,-1,11
 391 1090 391 1090 639 1108 c 1,12,-1
 639 1556 l 1,13,-1
 737 1556 l 1,14,-1
 737 1108 l 1,15,16
 983 1090 983 1090 1118 943 c 128,-1,17
 1253 796 1253 796 1253 545 c 256,0,1
223 545 m 0,18,19
 223 332 223 332 331.5 209.5 c 128,-1,20
 440 87 440 87 639 72 c 1,21,-1
 639 1016 l 1,22,23
 434 999 434 999 328.5 877.5 c 128,-1,24
 223 756 223 756 223 545 c 0,18,19
1149 545 m 0,25,26
 1149 754 1149 754 1042 876.5 c 128,-1,27
 935 999 935 999 737 1016 c 1,28,-1
 737 72 l 1,29,30
 937 89 937 89 1043 214 c 128,-1,31
 1149 339 1149 339 1149 545 c 0,25,26
EndSplineSet
EndChar

StartChar: afii10088
Encoding: 1094 1094 480
Width: 1223
GlyphClass: 2
Flags: W
LayerCount: 2
Fore
SplineSet
1174 -369 m 1,0,-1
 1075 -369 l 1,1,-1
 1075 0 l 1,2,-1
 182 0 l 1,3,-1
 182 1087 l 1,4,-1
 281 1087 l 1,5,-1
 281 94 l 1,6,-1
 930 94 l 1,7,-1
 930 1087 l 1,8,-1
 1028 1087 l 1,9,-1
 1028 94 l 1,10,-1
 1174 94 l 1,11,-1
 1174 -369 l 1,0,-1
EndSplineSet
EndChar

StartChar: afii10089
Encoding: 1095 1095 481
Width: 1188
GlyphClass: 2
Flags: W
LayerCount: 2
Fore
SplineSet
262 1087 m 1,0,-1
 262 723 l 2,1,2
 262 585 262 585 329 524 c 128,-1,3
 396 463 396 463 535 463 c 0,4,5
 633 463 633 463 722 498 c 128,-1,6
 811 533 811 533 907 610 c 1,7,-1
 907 1087 l 1,8,-1
 1006 1087 l 1,9,-1
 1006 0 l 1,10,-1
 907 0 l 1,11,-1
 907 516 l 1,12,13
 807 439 807 439 710.5 406 c 128,-1,14
 614 373 614 373 502 373 c 0,15,16
 335 373 335 373 249.5 460 c 128,-1,17
 164 547 164 547 164 711 c 2,18,-1
 164 1087 l 1,19,-1
 262 1087 l 1,0,-1
EndSplineSet
EndChar

StartChar: afii10090
Encoding: 1096 1096 482
Width: 1745
GlyphClass: 2
Flags: W
LayerCount: 2
Fore
SplineSet
922 94 m 1,0,-1
 1464 94 l 1,1,-1
 1464 1087 l 1,2,-1
 1563 1087 l 1,3,-1
 1563 0 l 1,4,-1
 182 0 l 1,5,-1
 182 1087 l 1,6,-1
 281 1087 l 1,7,-1
 281 94 l 1,8,-1
 823 94 l 1,9,-1
 823 1087 l 1,10,-1
 922 1087 l 1,11,-1
 922 94 l 1,0,-1
EndSplineSet
EndChar

StartChar: afii10091
Encoding: 1097 1097 483
Width: 1757
GlyphClass: 2
Flags: W
LayerCount: 2
Fore
SplineSet
922 94 m 1,0,-1
 1464 94 l 1,1,-1
 1464 1087 l 1,2,-1
 1563 1087 l 1,3,-1
 1563 94 l 1,4,-1
 1708 94 l 1,5,-1
 1708 -369 l 1,6,-1
 1610 -369 l 1,7,-1
 1610 0 l 1,8,-1
 182 0 l 1,9,-1
 182 1087 l 1,10,-1
 281 1087 l 1,11,-1
 281 94 l 1,12,-1
 823 94 l 1,13,-1
 823 1087 l 1,14,-1
 922 1087 l 1,15,-1
 922 94 l 1,0,-1
EndSplineSet
EndChar

StartChar: afii10092
Encoding: 1098 1098 484
Width: 1323
GlyphClass: 2
Flags: W
LayerCount: 2
Fore
SplineSet
469 629 m 1,0,-1
 821 629 l 2,1,2
 1204 629 1204 629 1204 328 c 0,3,4
 1204 173 1204 173 1097 86.5 c 128,-1,5
 990 0 990 0 791 0 c 2,6,-1
 371 0 l 1,7,-1
 371 1001 l 1,8,-1
 41 1001 l 1,9,-1
 41 1087 l 1,10,-1
 469 1087 l 1,11,-1
 469 629 l 1,0,-1
469 535 m 1,12,-1
 469 94 l 1,13,-1
 807 94 l 2,14,15
 951 94 951 94 1025.5 156 c 128,-1,16
 1100 218 1100 218 1100 332 c 0,17,18
 1100 438 1100 438 1033 486.5 c 128,-1,19
 966 535 966 535 801 535 c 2,20,-1
 469 535 l 1,12,-1
EndSplineSet
EndChar

StartChar: afii10093
Encoding: 1099 1099 485
Width: 1481
GlyphClass: 2
Flags: W
LayerCount: 2
Fore
SplineSet
281 629 m 1,0,-1
 627 629 l 2,1,2
 1010 629 1010 629 1010 328 c 0,3,4
 1010 173 1010 173 903 86.5 c 128,-1,5
 796 0 796 0 596 0 c 2,6,-1
 182 0 l 1,7,-1
 182 1087 l 1,8,-1
 281 1087 l 1,9,-1
 281 629 l 1,0,-1
281 535 m 1,10,-1
 281 94 l 1,11,-1
 612 94 l 2,12,13
 753 94 753 94 829 153 c 128,-1,14
 905 212 905 212 905 330 c 0,15,16
 905 438 905 438 838 486.5 c 128,-1,17
 771 535 771 535 606 535 c 2,18,-1
 281 535 l 1,10,-1
1298 0 m 1,19,-1
 1200 0 l 1,20,-1
 1200 1087 l 1,21,-1
 1298 1087 l 1,22,-1
 1298 0 l 1,19,-1
EndSplineSet
EndChar

StartChar: afii10094
Encoding: 1100 1100 486
Width: 1165
GlyphClass: 2
Flags: W
LayerCount: 2
Fore
SplineSet
281 629 m 1,0,-1
 664 629 l 2,1,2
 1047 629 1047 629 1047 328 c 0,3,4
 1047 173 1047 173 940 86.5 c 128,-1,5
 833 0 833 0 633 0 c 2,6,-1
 182 0 l 1,7,-1
 182 1087 l 1,8,-1
 281 1087 l 1,9,-1
 281 629 l 1,0,-1
281 535 m 1,10,-1
 281 94 l 1,11,-1
 649 94 l 2,12,13
 791 94 791 94 866.5 154 c 128,-1,14
 942 214 942 214 942 330 c 0,15,16
 942 438 942 438 875 486.5 c 128,-1,17
 808 535 808 535 643 535 c 2,18,-1
 281 535 l 1,10,-1
EndSplineSet
EndChar

StartChar: afii10095
Encoding: 1101 1101 487
Width: 1006
GlyphClass: 2
Flags: W
LayerCount: 2
Fore
SplineSet
358 -20 m 0,0,1
 266 -20 266 -20 187 -5 c 128,-1,2
 108 10 108 10 68 31 c 1,3,-1
 68 123 l 1,4,5
 195 70 195 70 352 70 c 0,6,7
 548 70 548 70 665 194.5 c 128,-1,8
 782 319 782 319 784 530 c 1,9,-1
 164 530 l 1,10,-1
 164 618 l 1,11,-1
 780 618 l 1,12,13
 763 815 763 815 660.5 916.5 c 128,-1,14
 558 1018 558 1018 379 1018 c 0,15,16
 273 1018 273 1018 113 958 c 1,17,-1
 84 1047 l 1,18,19
 140 1070 140 1070 224 1089 c 128,-1,20
 308 1108 308 1108 377 1108 c 0,21,22
 621 1108 621 1108 754 964 c 128,-1,23
 887 820 887 820 887 557 c 0,24,25
 887 288 887 288 745.5 134 c 128,-1,26
 604 -20 604 -20 358 -20 c 0,0,1
EndSplineSet
EndChar

StartChar: afii10096
Encoding: 1102 1102 488
Width: 1634
GlyphClass: 2
Flags: W
LayerCount: 2
Fore
SplineSet
1516 545 m 0,0,1
 1516 279 1516 279 1396.5 129.5 c 128,-1,2
 1277 -20 1277 -20 1069 -20 c 0,3,4
 873 -20 873 -20 753.5 127 c 128,-1,5
 634 274 634 274 631 524 c 1,6,-1
 281 524 l 1,7,-1
 281 0 l 1,8,-1
 182 0 l 1,9,-1
 182 1087 l 1,10,-1
 281 1087 l 1,11,-1
 281 610 l 1,12,-1
 633 610 l 1,13,14
 647 845 647 845 763.5 976.5 c 128,-1,15
 880 1108 880 1108 1075 1108 c 0,16,17
 1279 1108 1279 1108 1397.5 957.5 c 128,-1,18
 1516 807 1516 807 1516 545 c 0,0,1
735 545 m 0,19,20
 735 321 735 321 823.5 195.5 c 128,-1,21
 912 70 912 70 1073 70 c 256,22,23
 1234 70 1234 70 1322.5 196 c 128,-1,24
 1411 322 1411 322 1411 545 c 0,25,26
 1411 769 1411 769 1322 893.5 c 128,-1,27
 1233 1018 1233 1018 1071 1018 c 0,28,29
 910 1018 910 1018 822.5 894.5 c 128,-1,30
 735 771 735 771 735 545 c 0,19,20
EndSplineSet
EndChar

StartChar: afii10097
Encoding: 1103 1103 489
Width: 1083
GlyphClass: 2
Flags: W
LayerCount: 2
Fore
SplineSet
166 0 m 1,0,-1
 41 0 l 1,1,-1
 369 469 l 1,2,3
 219 497 219 497 152.5 573 c 128,-1,4
 86 649 86 649 86 768 c 0,5,6
 86 916 86 916 185.5 1001.5 c 128,-1,7
 285 1087 285 1087 453 1087 c 2,8,-1
 901 1087 l 1,9,-1
 901 0 l 1,10,-1
 803 0 l 1,11,-1
 803 457 l 1,12,-1
 471 457 l 1,13,-1
 166 0 l 1,0,-1
190 772 m 0,14,15
 190 660 190 660 262.5 605.5 c 128,-1,16
 335 551 335 551 481 551 c 2,17,-1
 803 551 l 1,18,-1
 803 993 l 1,19,-1
 451 993 l 2,20,21
 327 993 327 993 258.5 936.5 c 128,-1,22
 190 880 190 880 190 772 c 0,14,15
EndSplineSet
EndChar

StartChar: afii10099
Encoding: 1106 1106 491
Width: 1208
GlyphClass: 2
Flags: W
LayerCount: 2
Fore
SplineSet
795 -492 m 0,0,1
 716 -492 716 -492 659 -467 c 1,2,-1
 659 -381 l 1,3,4
 728 -401 728 -401 788 -401 c 0,5,6
 940 -401 940 -401 940 -225 c 2,7,-1
 940 674 l 2,8,9
 940 838 940 838 871.5 912.5 c 128,-1,10
 803 987 803 987 657 987 c 0,11,12
 460 987 460 987 370.5 888.5 c 128,-1,13
 281 790 281 790 281 569 c 2,14,-1
 281 0 l 1,15,-1
 182 0 l 1,16,-1
 182 1272 l 1,17,-1
 27 1272 l 1,18,-1
 27 1354 l 1,19,-1
 182 1354 l 1,20,-1
 182 1556 l 1,21,-1
 281 1556 l 1,22,-1
 281 1354 l 1,23,-1
 754 1354 l 1,24,-1
 754 1272 l 1,25,-1
 281 1272 l 1,26,-1
 281 1030 l 1,27,-1
 276 891 l 1,28,-1
 283 891 l 1,29,30
 344 989 344 989 437 1033 c 128,-1,31
 530 1077 530 1077 668 1077 c 0,32,33
 1038 1077 1038 1077 1038 680 c 2,34,-1
 1038 -211 l 2,35,36
 1038 -345 1038 -345 975.5 -418.5 c 128,-1,37
 913 -492 913 -492 795 -492 c 0,0,1
EndSplineSet
EndChar

StartChar: afii10101
Encoding: 1108 1108 493
Width: 993
GlyphClass: 2
Flags: W
LayerCount: 2
Fore
SplineSet
627 -20 m 0,0,1
 390 -20 390 -20 254.5 129.5 c 128,-1,2
 119 279 119 279 119 537 c 0,3,4
 119 802 119 802 259.5 955 c 128,-1,5
 400 1108 400 1108 641 1108 c 0,6,7
 703 1108 703 1108 783.5 1095 c 128,-1,8
 864 1082 864 1082 922 1059 c 1,9,-1
 893 971 l 1,10,11
 834 992 834 992 760.5 1005 c 128,-1,12
 687 1018 687 1018 639 1018 c 0,13,14
 454 1018 454 1018 348 913 c 128,-1,15
 242 808 242 808 225 618 c 1,16,-1
 850 618 l 1,17,-1
 850 530 l 1,18,-1
 221 530 l 1,19,20
 223 313 223 313 332 191.5 c 128,-1,21
 441 70 441 70 625 70 c 0,22,23
 782 70 782 70 909 123 c 1,24,-1
 909 31 l 1,25,26
 863 8 863 8 788 -6 c 128,-1,27
 713 -20 713 -20 627 -20 c 0,0,1
EndSplineSet
EndChar

StartChar: afii10106
Encoding: 1113 1113 498
Width: 1655
GlyphClass: 2
Flags: W
LayerCount: 2
Fore
SplineSet
862 621 m 1,0,-1
 1147 621 l 2,1,2
 1352 621 1352 621 1444 549.5 c 128,-1,3
 1536 478 1536 478 1536 324 c 0,4,5
 1536 0 1536 0 1116 0 c 2,6,-1
 764 0 l 1,7,-1
 764 995 l 1,8,-1
 451 995 l 1,9,10
 422 601 422 601 378.5 392 c 128,-1,11
 335 183 335 183 265 86.5 c 128,-1,12
 195 -10 195 -10 84 -10 c 0,13,14
 47 -10 47 -10 20 -2 c 1,15,-1
 20 88 l 1,16,17
 40 82 40 82 72 82 c 0,18,19
 186 82 186 82 255 313 c 128,-1,20
 324 544 324 544 362 1087 c 1,21,-1
 862 1087 l 1,22,-1
 862 621 l 1,0,-1
862 526 m 1,23,-1
 862 94 l 1,24,-1
 1133 94 l 2,25,26
 1287 94 1287 94 1359.5 151.5 c 128,-1,27
 1432 209 1432 209 1432 328 c 0,28,29
 1432 402 1432 402 1404 444.5 c 128,-1,30
 1376 487 1376 487 1317.5 506.5 c 128,-1,31
 1259 526 1259 526 1126 526 c 2,32,-1
 862 526 l 1,23,-1
EndSplineSet
EndChar

StartChar: afii10107
Encoding: 1114 1114 499
Width: 1759
GlyphClass: 2
Flags: W
LayerCount: 2
Fore
SplineSet
967 1087 m 1,0,-1
 967 621 l 1,1,-1
 1262 621 l 2,2,3
 1458 621 1458 621 1549 550 c 128,-1,4
 1640 479 1640 479 1640 324 c 0,5,6
 1640 163 1640 163 1535.5 81.5 c 128,-1,7
 1431 0 1431 0 1231 0 c 2,8,-1
 868 0 l 1,9,-1
 868 526 l 1,10,-1
 281 526 l 1,11,-1
 281 0 l 1,12,-1
 182 0 l 1,13,-1
 182 1087 l 1,14,-1
 281 1087 l 1,15,-1
 281 621 l 1,16,-1
 868 621 l 1,17,-1
 868 1087 l 1,18,-1
 967 1087 l 1,0,-1
967 526 m 1,19,-1
 967 94 l 1,20,-1
 1247 94 l 2,21,22
 1389 94 1389 94 1462.5 148.5 c 128,-1,23
 1536 203 1536 203 1536 326 c 0,24,25
 1536 401 1536 401 1508 444.5 c 128,-1,26
 1480 488 1480 488 1421.5 507 c 128,-1,27
 1363 526 1363 526 1241 526 c 2,28,-1
 967 526 l 1,19,-1
EndSplineSet
EndChar

StartChar: afii10193
Encoding: 1119 1119 503
Width: 1231
GlyphClass: 2
Flags: W
LayerCount: 2
Fore
SplineSet
567 0 m 1,0,-1
 182 0 l 1,1,-1
 182 1087 l 1,2,-1
 281 1087 l 1,3,-1
 281 94 l 1,4,-1
 950 94 l 1,5,-1
 950 1087 l 1,6,-1
 1049 1087 l 1,7,-1
 1049 0 l 1,8,-1
 666 0 l 1,9,-1
 666 -369 l 1,10,-1
 567 -369 l 1,11,-1
 567 0 l 1,0,-1
EndSplineSet
EndChar

StartChar: afii10050
Encoding: 1168 1168 504
Width: 1028
GlyphClass: 2
Flags: W
LayerCount: 2
Fore
SplineSet
909 1462 m 1,0,-1
 909 1763 l 1,1,-1
 1008 1763 l 1,2,-1
 1008 1368 l 1,3,-1
 309 1368 l 1,4,-1
 309 0 l 1,5,-1
 207 0 l 1,6,-1
 207 1462 l 1,7,-1
 909 1462 l 1,0,-1
EndSplineSet
EndChar

StartChar: afii10098
Encoding: 1169 1169 505
Width: 862
GlyphClass: 2
Flags: W
LayerCount: 2
Fore
SplineSet
821 1001 m 1,0,-1
 281 1001 l 1,1,-1
 281 0 l 1,2,-1
 182 0 l 1,3,-1
 182 1087 l 1,4,-1
 725 1087 l 1,5,-1
 725 1417 l 1,6,-1
 821 1417 l 1,7,-1
 821 1001 l 1,0,-1
EndSplineSet
EndChar

StartChar: endash
Encoding: 8211 8211 514
Width: 1024
GlyphClass: 2
Flags: W
LayerCount: 2
Fore
SplineSet
82 512 m 1,0,-1
 82 594 l 1,1,-1
 942 594 l 1,2,-1
 942 512 l 1,3,-1
 82 512 l 1,0,-1
EndSplineSet
EndChar

StartChar: emdash
Encoding: 8212 8212 515
Width: 2048
GlyphClass: 2
Flags: W
LayerCount: 2
Fore
SplineSet
82 512 m 1,0,-1
 82 594 l 1,1,-1
 1966 594 l 1,2,-1
 1966 512 l 1,3,-1
 82 512 l 1,0,-1
EndSplineSet
EndChar

StartChar: quoteleft
Encoding: 8216 8216 518
Width: 297
GlyphClass: 2
Flags: W
LayerCount: 2
Fore
SplineSet
41 961 m 1,0,-1
 29 981 l 1,1,2
 61 1093 61 1093 110.5 1232 c 128,-1,3
 160 1371 160 1371 203 1462 c 1,4,-1
 268 1462 l 1,5,6
 238 1361 238 1361 203.5 1205 c 128,-1,7
 169 1049 169 1049 158 961 c 1,8,-1
 41 961 l 1,0,-1
EndSplineSet
EndChar

StartChar: quoteright
Encoding: 8217 8217 519
Width: 297
GlyphClass: 2
Flags: W
LayerCount: 2
Fore
SplineSet
256 1462 m 1,0,-1
 268 1442 l 1,1,2
 193 1177 193 1177 94 961 c 1,3,-1
 29 961 l 1,4,5
 58 1057 58 1057 90 1202.5 c 128,-1,6
 122 1348 122 1348 139 1462 c 1,7,-1
 256 1462 l 1,0,-1
EndSplineSet
EndChar

StartChar: quotereversed
Encoding: 8219 8219 521
Width: 297
GlyphClass: 2
Flags: W
LayerCount: 2
Fore
SplineSet
158 1462 m 1,0,1
 169 1375 169 1375 203.5 1219 c 128,-1,2
 238 1063 238 1063 268 961 c 1,3,-1
 203 961 l 1,4,5
 163 1045 163 1045 113.5 1181.5 c 128,-1,6
 64 1318 64 1318 29 1442 c 1,7,-1
 41 1462 l 1,8,-1
 158 1462 l 1,0,1
EndSplineSet
EndChar

StartChar: quotedblleft
Encoding: 8220 8220 522
Width: 614
GlyphClass: 2
Flags: W
LayerCount: 2
Fore
SplineSet
358 961 m 1,0,-1
 346 981 l 1,1,2
 380 1101 380 1101 429 1236 c 128,-1,3
 478 1371 478 1371 520 1462 c 1,4,-1
 586 1462 l 1,5,6
 556 1364 556 1364 523 1213.5 c 128,-1,7
 490 1063 490 1063 475 961 c 1,8,-1
 358 961 l 1,0,-1
41 961 m 1,9,-1
 29 981 l 1,10,11
 61 1093 61 1093 110.5 1232 c 128,-1,12
 160 1371 160 1371 203 1462 c 1,13,-1
 268 1462 l 1,14,15
 238 1361 238 1361 203.5 1205 c 128,-1,16
 169 1049 169 1049 158 961 c 1,17,-1
 41 961 l 1,9,-1
EndSplineSet
EndChar

StartChar: quotedblright
Encoding: 8221 8221 523
Width: 614
GlyphClass: 2
Flags: W
LayerCount: 2
Fore
SplineSet
256 1462 m 1,0,-1
 268 1442 l 1,1,2
 193 1177 193 1177 94 961 c 1,3,-1
 29 961 l 1,4,5
 58 1057 58 1057 90 1202.5 c 128,-1,6
 122 1348 122 1348 139 1462 c 1,7,-1
 256 1462 l 1,0,-1
573 1462 m 1,8,-1
 586 1442 l 1,9,10
 550 1314 550 1314 501 1181 c 128,-1,11
 452 1048 452 1048 412 961 c 1,12,-1
 346 961 l 1,13,14
 376 1059 376 1059 409 1209.5 c 128,-1,15
 442 1360 442 1360 457 1462 c 1,16,-1
 573 1462 l 1,8,-1
EndSplineSet
EndChar

StartChar: dagger
Encoding: 8224 8224 525
Width: 1006
GlyphClass: 2
Flags: W
LayerCount: 2
Fore
SplineSet
883 1055 m 1,0,-1
 524 1075 l 1,1,-1
 551 0 l 1,2,-1
 434 0 l 1,3,-1
 461 1075 l 1,4,-1
 123 1055 l 1,5,-1
 123 1167 l 1,6,-1
 461 1139 l 1,7,-1
 434 1556 l 1,8,-1
 551 1556 l 1,9,-1
 524 1139 l 1,10,-1
 883 1167 l 1,11,-1
 883 1055 l 1,0,-1
EndSplineSet
EndChar

StartChar: daggerdbl
Encoding: 8225 8225 526
Width: 1006
GlyphClass: 2
Flags: W
LayerCount: 2
Fore
SplineSet
524 461 m 1,0,-1
 883 485 l 1,1,-1
 883 373 l 1,2,-1
 524 397 l 1,3,-1
 551 0 l 1,4,-1
 434 0 l 1,5,-1
 461 397 l 1,6,-1
 123 373 l 1,7,-1
 123 485 l 1,8,-1
 461 461 l 1,9,-1
 444 786 l 1,10,-1
 461 1079 l 1,11,-1
 123 1055 l 1,12,-1
 123 1167 l 1,13,-1
 461 1143 l 1,14,-1
 434 1556 l 1,15,-1
 551 1556 l 1,16,-1
 524 1143 l 1,17,-1
 883 1167 l 1,18,-1
 883 1055 l 1,19,-1
 524 1079 l 1,20,-1
 541 786 l 1,21,-1
 524 461 l 1,0,-1
EndSplineSet
EndChar

StartChar: bullet
Encoding: 8226 8226 527
Width: 770
GlyphClass: 2
Flags: W
LayerCount: 2
Fore
SplineSet
231 748 m 0,0,1
 231 837 231 837 271.5 882.5 c 128,-1,2
 312 928 312 928 385 928 c 256,3,4
 458 928 458 928 498.5 881 c 128,-1,5
 539 834 539 834 539 748 c 0,6,7
 539 663 539 663 498 615 c 128,-1,8
 457 567 457 567 385 567 c 256,9,10
 313 567 313 567 272 614 c 128,-1,11
 231 661 231 661 231 748 c 0,0,1
EndSplineSet
EndChar

StartChar: perthousand
Encoding: 8240 8240 529
Width: 2331
GlyphClass: 2
Flags: W
LayerCount: 2
Fore
SplineSet
211 1026 m 0,0,1
 211 840 211 840 256 746.5 c 128,-1,2
 301 653 301 653 397 653 c 0,3,4
 590 653 590 653 590 1026 c 0,5,6
 590 1210 590 1210 540.5 1302.5 c 128,-1,7
 491 1395 491 1395 397 1395 c 0,8,9
 301 1395 301 1395 256 1302.5 c 128,-1,10
 211 1210 211 1210 211 1026 c 0,0,1
688 1026 m 0,11,12
 688 800 688 800 613 682.5 c 128,-1,13
 538 565 538 565 397 565 c 0,14,15
 264 565 264 565 188.5 685.5 c 128,-1,16
 113 806 113 806 113 1026 c 0,17,18
 113 1249 113 1249 185 1366 c 128,-1,19
 257 1483 257 1483 397 1483 c 0,20,21
 536 1483 536 1483 612 1362.5 c 128,-1,22
 688 1242 688 1242 688 1026 c 0,11,12
1063 438 m 0,23,24
 1063 253 1063 253 1108 160.5 c 128,-1,25
 1153 68 1153 68 1249 68 c 0,26,27
 1442 68 1442 68 1442 438 c 0,28,29
 1442 807 1442 807 1249 807 c 0,30,31
 1153 807 1153 807 1108 715.5 c 128,-1,32
 1063 624 1063 624 1063 438 c 0,23,24
1540 438 m 0,33,34
 1540 212 1540 212 1466 94.5 c 128,-1,35
 1392 -23 1392 -23 1251 -23 c 0,36,37
 1115 -23 1115 -23 1040 98.5 c 128,-1,38
 965 220 965 220 965 438 c 0,39,40
 965 663 965 663 1038.5 779 c 128,-1,41
 1112 895 1112 895 1251 895 c 0,42,43
 1388 895 1388 895 1464 775 c 128,-1,44
 1540 655 1540 655 1540 438 c 0,33,34
1280 1462 m 1,45,-1
 469 0 l 1,46,-1
 373 0 l 1,47,-1
 1184 1462 l 1,48,-1
 1280 1462 l 1,45,-1
1741 438 m 0,49,50
 1741 253 1741 253 1786 160.5 c 128,-1,51
 1831 68 1831 68 1927 68 c 0,52,53
 2120 68 2120 68 2120 438 c 0,54,55
 2120 807 2120 807 1927 807 c 0,56,57
 1831 807 1831 807 1786 715.5 c 128,-1,58
 1741 624 1741 624 1741 438 c 0,49,50
2218 438 m 0,59,60
 2218 212 2218 212 2144 94.5 c 128,-1,61
 2070 -23 2070 -23 1929 -23 c 0,62,63
 1794 -23 1794 -23 1718 97.5 c 128,-1,64
 1642 218 1642 218 1642 438 c 0,65,66
 1642 663 1642 663 1715.5 779 c 128,-1,67
 1789 895 1789 895 1929 895 c 0,68,69
 2066 895 2066 895 2142 775 c 128,-1,70
 2218 655 2218 655 2218 438 c 0,59,60
EndSplineSet
EndChar

StartChar: guilsinglleft
Encoding: 8249 8249 532
Width: 524
GlyphClass: 2
Flags: W
LayerCount: 2
Fore
SplineSet
82 543 m 1,0,-1
 391 936 l 1,1,-1
 453 893 l 1,2,-1
 199 530 l 1,3,-1
 453 168 l 1,4,-1
 391 125 l 1,5,-1
 82 516 l 1,6,-1
 82 543 l 1,0,-1
EndSplineSet
EndChar

StartChar: guilsinglright
Encoding: 8250 8250 533
Width: 524
GlyphClass: 2
Flags: W
LayerCount: 2
Fore
SplineSet
442 518 m 1,0,-1
 133 125 l 1,1,-1
 72 168 l 1,2,-1
 326 530 l 1,3,-1
 72 893 l 1,4,-1
 133 936 l 1,5,-1
 442 545 l 1,6,-1
 442 518 l 1,0,-1
EndSplineSet
EndChar

StartChar: fraction
Encoding: 8260 8260 535
Width: 246
GlyphClass: 2
Flags: W
LayerCount: 2
Fore
SplineSet
573 1462 m 1,0,-1
 -238 0 l 1,1,-1
 -332 0 l 1,2,-1
 479 1462 l 1,3,-1
 573 1462 l 1,0,-1
EndSplineSet
EndChar

StartChar: nsuperior
Encoding: 8319 8319 536
Width: 766
GlyphClass: 2
Flags: W
LayerCount: 2
Fore
SplineSet
573 813 m 1,0,-1
 573 1227 l 2,1,2
 573 1320 573 1320 530.5 1360.5 c 128,-1,3
 488 1401 488 1401 403 1401 c 0,4,5
 295 1401 295 1401 249 1346 c 128,-1,6
 203 1291 203 1291 203 1167 c 2,7,-1
 203 813 l 1,8,-1
 113 813 l 1,9,-1
 113 1468 l 1,10,-1
 188 1468 l 1,11,-1
 199 1378 l 1,12,-1
 205 1378 l 1,13,14
 275 1479 275 1479 416 1479 c 0,15,16
 664 1479 664 1479 664 1229 c 2,17,-1
 664 813 l 1,18,-1
 573 813 l 1,0,-1
EndSplineSet
EndChar

StartChar: franc
Encoding: 8355 8355 537
Width: 1169
GlyphClass: 2
Flags: W
LayerCount: 2
Fore
SplineSet
387 381 m 1,0,-1
 760 381 l 1,1,-1
 760 299 l 1,2,-1
 387 299 l 1,3,-1
 387 0 l 1,4,-1
 285 0 l 1,5,-1
 285 299 l 1,6,-1
 104 299 l 1,7,-1
 104 381 l 1,8,-1
 285 381 l 1,9,-1
 285 1462 l 1,10,-1
 1044 1462 l 1,11,-1
 1044 1368 l 1,12,-1
 387 1368 l 1,13,-1
 387 758 l 1,14,-1
 1006 758 l 1,15,-1
 1006 664 l 1,16,-1
 387 664 l 1,17,-1
 387 381 l 1,0,-1
EndSplineSet
EndChar

StartChar: afii08941
Encoding: 8356 8356 538
Width: 1169
GlyphClass: 2
Flags: W
LayerCount: 2
Fore
SplineSet
412 799 m 1,0,-1
 412 584 l 1,1,-1
 823 584 l 1,2,-1
 823 502 l 1,3,-1
 412 502 l 1,4,-1
 412 420 l 2,5,6
 412 304 412 304 377 224 c 128,-1,7
 342 144 342 144 264 96 c 1,8,-1
 1073 96 l 1,9,-1
 1073 0 l 1,10,-1
 78 0 l 1,11,-1
 78 84 l 1,12,13
 188 105 188 105 249.5 194 c 128,-1,14
 311 283 311 283 311 418 c 2,15,-1
 311 502 l 1,16,-1
 100 502 l 1,17,-1
 100 584 l 1,18,-1
 311 584 l 1,19,-1
 311 799 l 1,20,-1
 100 799 l 1,21,-1
 100 881 l 1,22,-1
 311 881 l 1,23,-1
 311 1055 l 2,24,25
 311 1259 311 1259 409 1370 c 128,-1,26
 507 1481 507 1481 690 1481 c 0,27,28
 865 1481 865 1481 1020 1413 c 1,29,-1
 985 1327 l 1,30,31
 828 1393 828 1393 690 1393 c 0,32,33
 549 1393 549 1393 480.5 1312 c 128,-1,34
 412 1231 412 1231 412 1059 c 2,35,-1
 412 881 l 1,36,-1
 823 881 l 1,37,-1
 823 799 l 1,38,-1
 412 799 l 1,0,-1
EndSplineSet
EndChar

StartChar: peseta
Encoding: 8359 8359 539
Width: 1501
GlyphClass: 2
Flags: W
LayerCount: 2
Fore
SplineSet
1319 66 m 0,0,1
 1377 66 1377 66 1427 78 c 1,2,-1
 1427 -4 l 1,3,4
 1379 -20 1379 -20 1296 -20 c 0,5,6
 1069 -20 1069 -20 1069 233 c 2,7,-1
 1069 760 l 1,8,-1
 909 760 l 1,9,-1
 909 819 l 1,10,-1
 1069 862 l 1,11,-1
 1108 1057 l 1,12,-1
 1169 1057 l 1,13,-1
 1169 846 l 1,14,-1
 1403 846 l 1,15,-1
 1403 760 l 1,16,-1
 1169 760 l 1,17,-1
 1169 258 l 2,18,19
 1169 152 1169 152 1204 109 c 128,-1,20
 1239 66 1239 66 1319 66 c 0,0,1
872 1042 m 0,21,22
 872 594 872 594 317 594 c 2,23,-1
 272 594 l 1,24,-1
 272 0 l 1,25,-1
 170 0 l 1,26,-1
 170 1462 l 1,27,-1
 365 1462 l 2,28,29
 872 1462 872 1462 872 1042 c 0,21,22
272 682 m 1,30,-1
 330 682 l 2,31,32
 555 682 555 682 659.5 767 c 128,-1,33
 764 852 764 852 764 1038 c 0,34,35
 764 1210 764 1210 666 1290 c 128,-1,36
 568 1370 568 1370 358 1370 c 2,37,-1
 272 1370 l 1,38,-1
 272 682 l 1,30,-1
EndSplineSet
EndChar

StartChar: Euro
Encoding: 8364 8364 540
Width: 1169
GlyphClass: 2
Flags: W
LayerCount: 2
Fore
SplineSet
803 1397 m 0,0,1
 629 1397 629 1397 515 1271.5 c 128,-1,2
 401 1146 401 1146 360 907 c 1,3,-1
 862 907 l 1,4,-1
 862 825 l 1,5,-1
 352 825 l 1,6,-1
 348 721 l 1,7,-1
 348 697 l 2,8,9
 348 632 348 632 352 610 c 1,10,-1
 801 610 l 1,11,-1
 801 528 l 1,12,-1
 358 528 l 1,13,14
 388 311 388 311 505.5 189.5 c 128,-1,15
 623 68 623 68 807 68 c 0,16,17
 955 68 955 68 1094 133 c 1,18,-1
 1094 39 l 1,19,20
 1013 5 1013 5 943.5 -7.5 c 128,-1,21
 874 -20 874 -20 803 -20 c 0,22,23
 575 -20 575 -20 435.5 120 c 128,-1,24
 296 260 296 260 254 528 c 1,25,-1
 74 528 l 1,26,-1
 74 610 l 1,27,-1
 246 610 l 1,28,29
 242 648 242 648 242 723 c 1,30,-1
 246 825 l 1,31,-1
 74 825 l 1,32,-1
 74 907 l 1,33,-1
 258 907 l 1,34,35
 297 1179 297 1179 441 1332 c 128,-1,36
 585 1485 585 1485 803 1485 c 0,37,38
 891 1485 891 1485 964 1468 c 128,-1,39
 1037 1451 1037 1451 1112 1411 c 1,40,-1
 1073 1325 l 1,41,42
 941 1397 941 1397 803 1397 c 0,0,1
EndSplineSet
EndChar

StartChar: afii61248
Encoding: 8453 8453 541
Width: 1645
GlyphClass: 2
Flags: W
LayerCount: 2
Fore
SplineSet
1501 334 m 0,0,1
 1501 174 1501 174 1422.5 83 c 128,-1,2
 1344 -8 1344 -8 1202 -8 c 0,3,4
 1062 -8 1062 -8 984.5 83.5 c 128,-1,5
 907 175 907 175 907 334 c 0,6,7
 907 496 907 496 987.5 586 c 128,-1,8
 1068 676 1068 676 1208 676 c 256,9,10
 1348 676 1348 676 1424.5 584.5 c 128,-1,11
 1501 493 1501 493 1501 334 c 0,0,1
1006 334 m 256,12,13
 1006 210 1006 210 1057.5 145 c 128,-1,14
 1109 80 1109 80 1206 80 c 0,15,16
 1301 80 1301 80 1352 146 c 128,-1,17
 1403 212 1403 212 1403 334 c 0,18,19
 1403 458 1403 458 1352.5 523 c 128,-1,20
 1302 588 1302 588 1206 588 c 0,21,22
 1107 588 1107 588 1056.5 523 c 128,-1,23
 1006 458 1006 458 1006 334 c 256,12,13
475 788 m 0,24,25
 315 788 315 788 229 878 c 128,-1,26
 143 968 143 968 143 1128 c 0,27,28
 143 1287 143 1287 236.5 1380 c 128,-1,29
 330 1473 330 1473 489 1473 c 0,30,31
 589 1473 589 1473 682 1442 c 1,32,-1
 653 1354 l 1,33,34
 568 1384 568 1384 492 1384 c 0,35,36
 371 1384 371 1384 306.5 1319 c 128,-1,37
 242 1254 242 1254 242 1130 c 0,38,39
 242 999 242 999 301 938 c 128,-1,40
 360 877 360 877 485 877 c 0,41,42
 585 877 585 877 670 909 c 1,43,-1
 670 825 l 1,44,45
 584 788 584 788 475 788 c 0,24,25
1272 1462 m 1,46,-1
 461 0 l 1,47,-1
 367 0 l 1,48,-1
 1178 1462 l 1,49,-1
 1272 1462 l 1,46,-1
EndSplineSet
EndChar

StartChar: afii61289
Encoding: 8467 8467 542
Width: 1024
GlyphClass: 2
Flags: W
LayerCount: 2
Fore
SplineSet
602 72 m 0,0,1
 773 72 773 72 799 301 c 1,2,-1
 877 301 l 1,3,4
 872 155 872 155 794.5 68.5 c 128,-1,5
 717 -18 717 -18 590 -18 c 0,6,7
 447 -18 447 -18 380 64.5 c 128,-1,8
 313 147 313 147 313 311 c 2,9,-1
 313 596 l 1,10,11
 209 553 209 553 115 532 c 1,12,-1
 115 616 l 1,13,14
 221 644 221 644 313 682 c 1,15,-1
 313 1188 l 2,16,17
 313 1332 313 1332 375.5 1407.5 c 128,-1,18
 438 1483 438 1483 553 1483 c 0,19,20
 669 1483 669 1483 734 1406.5 c 128,-1,21
 799 1330 799 1330 799 1190 c 0,22,23
 799 1002 799 1002 700 859.5 c 128,-1,24
 601 717 601 717 412 631 c 1,25,-1
 412 330 l 2,26,27
 412 196 412 196 456 134 c 128,-1,28
 500 72 500 72 602 72 c 0,0,1
705 1188 m 0,29,30
 705 1293 705 1293 664.5 1346 c 128,-1,31
 624 1399 624 1399 553 1399 c 0,32,33
 480 1399 480 1399 446 1351 c 128,-1,34
 412 1303 412 1303 412 1188 c 2,35,-1
 412 725 l 1,36,37
 564 802 564 802 634.5 915 c 128,-1,38
 705 1028 705 1028 705 1188 c 0,29,30
EndSplineSet
EndChar

StartChar: afii61352
Encoding: 8470 8470 543
Width: 2073
GlyphClass: 2
Flags: W
LayerCount: 2
Fore
SplineSet
1208 0 m 1,0,-1
 1104 0 l 1,1,-1
 301 1296 l 1,2,-1
 293 1296 l 1,3,4
 305 1064 305 1064 305 948 c 2,5,-1
 305 0 l 1,6,-1
 207 0 l 1,7,-1
 207 1462 l 1,8,-1
 309 1462 l 1,9,-1
 1112 172 l 1,10,-1
 1118 172 l 1,11,12
 1110 404 1110 404 1110 508 c 2,13,-1
 1110 1462 l 1,14,-1
 1208 1462 l 1,15,-1
 1208 0 l 1,0,-1
1958 610 m 0,16,17
 1958 444 1958 444 1878.5 359 c 128,-1,18
 1799 274 1799 274 1661 274 c 0,19,20
 1526 274 1526 274 1448 359 c 128,-1,21
 1370 444 1370 444 1370 610 c 0,22,23
 1370 774 1370 774 1449 863 c 128,-1,24
 1528 952 1528 952 1667 952 c 0,25,26
 1805 952 1805 952 1881.5 862 c 128,-1,27
 1958 772 1958 772 1958 610 c 0,16,17
1468 610 m 0,28,29
 1468 487 1468 487 1518 424.5 c 128,-1,30
 1568 362 1568 362 1665 362 c 0,31,32
 1759 362 1759 362 1809.5 425.5 c 128,-1,33
 1860 489 1860 489 1860 610 c 0,34,35
 1860 734 1860 734 1810.5 799 c 128,-1,36
 1761 864 1761 864 1665 864 c 0,37,38
 1468 864 1468 864 1468 610 c 0,28,29
1425 0 m 1,39,-1
 1425 86 l 1,40,-1
 1898 86 l 1,41,-1
 1898 0 l 1,42,-1
 1425 0 l 1,39,-1
EndSplineSet
EndChar

StartChar: trademark
Encoding: 8482 8482 544
Width: 1485
GlyphClass: 2
Flags: W
LayerCount: 2
Fore
SplineSet
313 741 m 1,0,-1
 227 741 l 1,1,-1
 227 1384 l 1,2,-1
 10 1384 l 1,3,-1
 10 1462 l 1,4,-1
 532 1462 l 1,5,-1
 532 1384 l 1,6,-1
 313 1384 l 1,7,-1
 313 741 l 1,0,-1
913 741 m 1,8,-1
 692 1350 l 1,9,-1
 686 1350 l 1,10,-1
 690 1149 l 1,11,-1
 690 741 l 1,12,-1
 608 741 l 1,13,-1
 608 1462 l 1,14,-1
 733 1462 l 1,15,-1
 954 856 l 1,16,-1
 1178 1462 l 1,17,-1
 1303 1462 l 1,18,-1
 1303 741 l 1,19,-1
 1217 741 l 1,20,-1
 1217 1139 l 1,21,-1
 1221 1346 l 1,22,-1
 1214 1346 l 1,23,-1
 987 741 l 1,24,-1
 913 741 l 1,8,-1
EndSplineSet
EndChar

StartChar: estimated
Encoding: 8494 8494 546
Width: 1268
GlyphClass: 2
Flags: W
LayerCount: 2
Fore
SplineSet
633 -35 m 0,0,1
 476 -35 476 -35 355.5 38.5 c 128,-1,2
 235 112 235 112 168.5 242.5 c 128,-1,3
 102 373 102 373 102 530 c 0,4,5
 102 701 102 701 171 828.5 c 128,-1,6
 240 956 240 956 362 1026 c 128,-1,7
 484 1096 484 1096 633 1096 c 0,8,9
 785 1096 785 1096 906.5 1025 c 128,-1,10
 1028 954 1028 954 1095.5 824.5 c 128,-1,11
 1163 695 1163 695 1163 530 c 1,12,-1
 336 530 l 1,13,-1
 336 174 l 1,14,15
 385 121 385 121 468 86 c 128,-1,16
 551 51 551 51 633 51 c 0,17,18
 764 51 764 51 855.5 103.5 c 128,-1,19
 947 156 947 156 1028 285 c 1,20,-1
 1100 244 l 1,21,22
 1002 89 1002 89 893.5 27 c 128,-1,23
 785 -35 785 -35 633 -35 c 0,0,1
932 616 m 1,24,-1
 932 893 l 1,25,26
 882 946 882 946 800.5 979 c 128,-1,27
 719 1012 719 1012 631 1012 c 0,28,29
 458 1012 458 1012 336 895 c 1,30,-1
 336 616 l 1,31,-1
 932 616 l 1,24,-1
EndSplineSet
EndChar

StartChar: partialdiff
Encoding: 8706 8706 551
Width: 1169
GlyphClass: 2
Flags: W
LayerCount: 2
Fore
SplineSet
463 -20 m 0,0,1
 298 -20 298 -20 208.5 82.5 c 128,-1,2
 119 185 119 185 119 367 c 0,3,4
 119 542 119 542 187.5 697 c 128,-1,5
 256 852 256 852 369 931 c 128,-1,6
 482 1010 482 1010 627 1010 c 0,7,8
 832 1010 832 1010 928 784 c 1,9,10
 936 859 936 859 936 928 c 0,11,12
 936 1164 936 1164 863 1278.5 c 128,-1,13
 790 1393 790 1393 635 1393 c 0,14,15
 574 1393 574 1393 508 1376.5 c 128,-1,16
 442 1360 442 1360 393 1335 c 1,17,-1
 393 1434 l 1,18,19
 521 1485 521 1485 649 1485 c 0,20,21
 1038 1485 1038 1485 1038 936 c 0,22,23
 1038 670 1038 670 961 439.5 c 128,-1,24
 884 209 884 209 755.5 94.5 c 128,-1,25
 627 -20 627 -20 463 -20 c 0,0,1
465 72 m 0,26,27
 624 72 624 72 743.5 238 c 128,-1,28
 863 404 863 404 907 666 c 1,29,30
 868 789 868 789 798 853.5 c 128,-1,31
 728 918 728 918 633 918 c 0,32,33
 515 918 515 918 422.5 847.5 c 128,-1,34
 330 777 330 777 274.5 644 c 128,-1,35
 219 511 219 511 219 367 c 0,36,37
 219 228 219 228 283 150 c 128,-1,38
 347 72 347 72 465 72 c 0,26,27
EndSplineSet
EndChar

StartChar: Delta
Encoding: 8710 8710 552
Width: 1169
GlyphClass: 2
Flags: W
LayerCount: 2
Fore
SplineSet
20 59 m 1,0,-1
 541 1462 l 1,1,-1
 621 1462 l 1,2,-1
 1149 57 l 1,3,-1
 1149 0 l 1,4,-1
 20 0 l 1,5,-1
 20 59 l 1,0,-1
580 1315 m 1,6,7
 527 1162 527 1162 139 96 c 1,8,-1
 1028 96 l 1,9,10
 637 1150 637 1150 580 1315 c 1,6,7
EndSplineSet
EndChar

StartChar: product
Encoding: 8719 8719 553
Width: 1501
GlyphClass: 2
Flags: W
LayerCount: 2
Fore
SplineSet
1192 -510 m 1,0,-1
 1192 1366 l 1,1,-1
 309 1366 l 1,2,-1
 309 -510 l 1,3,-1
 207 -510 l 1,4,-1
 207 1462 l 1,5,-1
 1294 1462 l 1,6,-1
 1294 -510 l 1,7,-1
 1192 -510 l 1,0,-1
EndSplineSet
EndChar

StartChar: summation
Encoding: 8721 8721 554
Width: 1272
GlyphClass: 2
Flags: W
LayerCount: 2
Fore
SplineSet
86 -510 m 1,0,-1
 86 -440 l 1,1,-1
 750 530 l 1,2,-1
 102 1393 l 1,3,-1
 102 1462 l 1,4,-1
 1143 1462 l 1,5,-1
 1143 1368 l 1,6,-1
 246 1368 l 1,7,-1
 874 539 l 1,8,-1
 225 -416 l 1,9,-1
 1210 -416 l 1,10,-1
 1210 -510 l 1,11,-1
 86 -510 l 1,0,-1
EndSplineSet
EndChar

StartChar: minus
Encoding: 8722 8722 555
Width: 1169
GlyphClass: 2
Flags: W
LayerCount: 2
Fore
SplineSet
111 682 m 1,0,-1
 111 764 l 1,1,-1
 1059 764 l 1,2,-1
 1059 682 l 1,3,-1
 111 682 l 1,0,-1
EndSplineSet
EndChar

StartChar: radical
Encoding: 8730 8730 556
Width: 1124
GlyphClass: 2
Flags: W
LayerCount: 2
Fore
SplineSet
610 -14 m 1,0,-1
 500 -14 l 1,1,-1
 219 784 l 1,2,-1
 37 784 l 1,3,-1
 37 872 l 1,4,-1
 287 872 l 1,5,-1
 557 104 l 1,6,-1
 1098 1665 l 1,7,-1
 1192 1665 l 1,8,-1
 610 -14 l 1,0,-1
EndSplineSet
EndChar

StartChar: infinity
Encoding: 8734 8734 557
Width: 1434
GlyphClass: 2
Flags: W
LayerCount: 2
Fore
SplineSet
416 1034 m 0,0,1
 507 1034 507 1034 579.5 980.5 c 128,-1,2
 652 927 652 927 717 805 c 1,3,4
 780 925 780 925 852 979.5 c 128,-1,5
 924 1034 924 1034 1018 1034 c 0,6,7
 1145 1034 1145 1034 1228 945.5 c 128,-1,8
 1311 857 1311 857 1311 723 c 0,9,10
 1311 588 1311 588 1227.5 500 c 128,-1,11
 1144 412 1144 412 1018 412 c 0,12,13
 924 412 924 412 852 466.5 c 128,-1,14
 780 521 780 521 717 641 c 1,15,16
 651 518 651 518 578.5 465 c 128,-1,17
 506 412 506 412 416 412 c 0,18,19
 289 412 289 412 206 500.5 c 128,-1,20
 123 589 123 589 123 723 c 0,21,22
 123 858 123 858 206.5 946 c 128,-1,23
 290 1034 290 1034 416 1034 c 0,0,1
1018 938 m 0,24,25
 938 938 938 938 880.5 884 c 128,-1,26
 823 830 823 830 768 723 c 1,27,28
 823 616 823 616 880.5 562 c 128,-1,29
 938 508 938 508 1018 508 c 0,30,31
 1106 508 1106 508 1158 567.5 c 128,-1,32
 1210 627 1210 627 1210 723 c 0,33,34
 1210 820 1210 820 1157.5 879 c 128,-1,35
 1105 938 1105 938 1018 938 c 0,24,25
416 938 m 0,36,37
 329 938 329 938 276 879 c 128,-1,38
 223 820 223 820 223 723 c 256,39,40
 223 626 223 626 276 567 c 128,-1,41
 329 508 329 508 416 508 c 0,42,43
 490 508 490 508 547.5 557 c 128,-1,44
 605 606 605 606 666 723 c 1,45,46
 606 839 606 839 548 888.5 c 128,-1,47
 490 938 490 938 416 938 c 0,36,37
EndSplineSet
EndChar

StartChar: integral
Encoding: 8747 8747 558
Width: 745
GlyphClass: 2
Flags: W
LayerCount: 2
Fore
SplineSet
315 1169 m 2,0,1
 315 1556 315 1556 608 1556 c 0,2,3
 656 1556 656 1556 698 1544 c 1,4,-1
 698 1454 l 1,5,6
 652 1466 652 1466 608 1466 c 0,7,8
 511 1466 511 1466 462.5 1398 c 128,-1,9
 414 1330 414 1330 414 1174 c 2,10,-1
 414 -104 l 2,11,12
 414 -302 414 -302 342.5 -397 c 128,-1,13
 271 -492 271 -492 125 -492 c 0,14,15
 59 -492 59 -492 4 -473 c 1,16,-1
 4 -383 l 1,17,18
 56 -401 56 -401 129 -401 c 0,19,20
 315 -401 315 -401 315 -113 c 2,21,-1
 315 1169 l 2,0,1
EndSplineSet
EndChar

StartChar: approxequal
Encoding: 8776 8776 559
Width: 1169
GlyphClass: 2
Flags: W
LayerCount: 2
Fore
SplineSet
334 940 m 0,0,1
 286 940 286 940 228.5 911 c 128,-1,2
 171 882 171 882 111 819 c 1,3,-1
 111 913 l 1,4,5
 218 1024 218 1024 344 1024 c 0,6,7
 408 1024 408 1024 465 1009 c 128,-1,8
 522 994 522 994 614 952 c 0,9,10
 738 895 738 895 834 895 c 0,11,12
 944 895 944 895 1059 1020 c 1,13,-1
 1059 924 l 1,14,15
 951 811 951 811 825 811 c 0,16,17
 709 811 709 811 555 883 c 0,18,19
 431 940 431 940 334 940 c 0,0,1
334 571 m 0,20,21
 285 571 285 571 226 540.5 c 128,-1,22
 167 510 167 510 111 451 c 1,23,-1
 111 545 l 1,24,25
 219 655 219 655 344 655 c 0,26,27
 405 655 405 655 459 641.5 c 128,-1,28
 513 628 513 628 614 584 c 1,29,30
 740 526 740 526 834 526 c 0,31,32
 890 526 890 526 943.5 556.5 c 128,-1,33
 997 587 997 587 1059 651 c 1,34,-1
 1059 555 l 1,35,36
 951 442 951 442 825 442 c 0,37,38
 709 442 709 442 555 514 c 0,39,40
 431 571 431 571 334 571 c 0,20,21
EndSplineSet
EndChar

StartChar: notequal
Encoding: 8800 8800 560
Width: 1169
GlyphClass: 2
Flags: W
LayerCount: 2
Fore
SplineSet
514 477 m 1,0,-1
 375 178 l 1,1,-1
 299 215 l 1,2,-1
 422 477 l 1,3,-1
 111 477 l 1,4,-1
 111 559 l 1,5,-1
 461 559 l 1,6,-1
 614 885 l 1,7,-1
 111 885 l 1,8,-1
 111 967 l 1,9,-1
 653 967 l 1,10,-1
 797 1272 l 1,11,-1
 870 1233 l 1,12,-1
 745 967 l 1,13,-1
 1059 967 l 1,14,-1
 1059 885 l 1,15,-1
 707 885 l 1,16,-1
 553 559 l 1,17,-1
 1059 559 l 1,18,-1
 1059 477 l 1,19,-1
 514 477 l 1,0,-1
EndSplineSet
EndChar

StartChar: lozenge
Encoding: 9674 9674 563
Width: 1188
GlyphClass: 2
Flags: W
LayerCount: 2
Fore
SplineSet
119 735 m 1,0,-1
 569 1475 l 1,1,-1
 618 1475 l 1,2,-1
 1069 735 l 1,3,-1
 618 0 l 1,4,-1
 569 0 l 1,5,-1
 119 735 l 1,0,-1
969 735 m 1,6,-1
 594 1356 l 1,7,-1
 219 735 l 1,8,-1
 594 121 l 1,9,-1
 969 735 l 1,6,-1
EndSplineSet
EndChar

StartChar: cyrillicbreve
Encoding: 65555 -1 566
Width: 1182
GlyphClass: 2
Flags: W
LayerCount: 2
Fore
SplineSet
590 1241 m 0,0,1
 441 1241 441 1241 363 1307.5 c 128,-1,2
 285 1374 285 1374 272 1522 c 1,3,-1
 360 1522 l 1,4,5
 375 1412 375 1412 428 1366.5 c 128,-1,6
 481 1321 481 1321 592 1321 c 0,7,8
 702 1321 702 1321 755.5 1368 c 128,-1,9
 809 1415 809 1415 821 1522 c 1,10,-1
 909 1522 l 1,11,12
 888 1241 888 1241 590 1241 c 0,0,1
EndSplineSet
EndChar

StartChar: dotlessj
Encoding: 567 567 567
Width: 463
GlyphClass: 2
Flags: W
LayerCount: 2
Fore
SplineSet
37 -492 m 0,0,1
 -43 -492 -43 -492 -98 -467 c 1,2,-1
 -98 -381 l 1,3,4
 -29 -401 -29 -401 31 -401 c 0,5,6
 182 -401 182 -401 182 -225 c 2,7,-1
 182 1087 l 1,8,-1
 281 1087 l 1,9,-1
 281 -211 l 2,10,11
 281 -346 281 -346 217.5 -419 c 128,-1,12
 154 -492 154 -492 37 -492 c 0,0,1
EndSplineSet
EndChar

StartChar: caroncommaaccent
Encoding: 65556 -1 568
Width: 1024
GlyphClass: 2
Flags: W
LayerCount: 2
Fore
SplineSet
412 1245 m 1,0,1
 433 1290 433 1290 460 1384.5 c 128,-1,2
 487 1479 487 1479 498 1556 c 1,3,-1
 610 1556 l 1,4,-1
 610 1542 l 1,5,6
 595 1482 595 1482 556.5 1395 c 128,-1,7
 518 1308 518 1308 465 1229 c 1,8,-1
 412 1229 l 1,9,-1
 412 1245 l 1,0,1
EndSplineSet
EndChar

StartChar: commaaccent
Encoding: 65557 -1 569
Width: 1024
GlyphClass: 2
Flags: W
LayerCount: 2
Fore
SplineSet
395 -436 m 1,0,1
 420 -382 420 -382 445 -291 c 128,-1,2
 470 -200 470 -200 481 -125 c 1,3,-1
 594 -125 l 1,4,-1
 594 -139 l 1,5,6
 571 -221 571 -221 530.5 -306.5 c 128,-1,7
 490 -392 490 -392 449 -453 c 1,8,-1
 395 -453 l 1,9,-1
 395 -436 l 1,0,1
EndSplineSet
EndChar

StartChar: commaaccentrotate
Encoding: 65558 -1 570
Width: 1024
GlyphClass: 2
Flags: W
LayerCount: 2
Fore
SplineSet
606 1552 m 1,0,1
 579 1494 579 1494 552.5 1393 c 128,-1,2
 526 1292 526 1292 520 1241 c 1,3,-1
 408 1241 l 1,4,-1
 408 1255 l 1,5,6
 428 1332 428 1332 469.5 1420 c 128,-1,7
 511 1508 511 1508 553 1569 c 1,8,-1
 606 1569 l 1,9,-1
 606 1552 l 1,0,1
EndSplineSet
EndChar

StartChar: zerosuperior
Encoding: 8304 8304 571
Width: 688
GlyphClass: 2
Flags: W
LayerCount: 2
Fore
SplineSet
147 1028 m 0,0,1
 147 838 147 838 192.5 746.5 c 128,-1,2
 238 655 238 655 344 655 c 0,3,4
 448 655 448 655 494.5 746 c 128,-1,5
 541 837 541 837 541 1028 c 0,6,7
 541 1215 541 1215 494.5 1306 c 128,-1,8
 448 1397 448 1397 344 1397 c 0,9,10
 238 1397 238 1397 192.5 1306 c 128,-1,11
 147 1215 147 1215 147 1028 c 0,0,1
639 1026 m 0,12,13
 639 796 639 796 566.5 682.5 c 128,-1,14
 494 569 494 569 346 569 c 0,15,16
 192 569 192 569 120.5 681.5 c 128,-1,17
 49 794 49 794 49 1026 c 0,18,19
 49 1483 49 1483 346 1483 c 0,20,21
 495 1483 495 1483 567 1371 c 128,-1,22
 639 1259 639 1259 639 1026 c 0,12,13
EndSplineSet
EndChar

StartChar: foursuperior
Encoding: 8308 8308 572
Width: 688
GlyphClass: 2
Flags: W
LayerCount: 2
Fore
SplineSet
657 827 m 1,0,-1
 528 827 l 1,1,-1
 528 586 l 1,2,-1
 438 586 l 1,3,-1
 438 827 l 1,4,-1
 25 827 l 1,5,-1
 25 887 l 1,6,-1
 432 1468 l 1,7,-1
 528 1468 l 1,8,-1
 528 905 l 1,9,-1
 657 905 l 1,10,-1
 657 827 l 1,0,-1
438 905 m 1,11,-1
 438 1126 l 2,12,13
 438 1258 438 1258 446 1358 c 1,14,15
 440 1346 440 1346 424.5 1322.5 c 128,-1,16
 409 1299 409 1299 129 905 c 1,17,-1
 438 905 l 1,11,-1
EndSplineSet
EndChar

StartChar: fivesuperior
Encoding: 8309 8309 573
Width: 688
GlyphClass: 2
Flags: W
LayerCount: 2
Fore
SplineSet
324 1122 m 0,0,1
 469 1122 469 1122 553 1050.5 c 128,-1,2
 637 979 637 979 637 856 c 0,3,4
 637 724 637 724 550 646.5 c 128,-1,5
 463 569 463 569 311 569 c 0,6,7
 246 569 246 569 178 585 c 128,-1,8
 110 601 110 601 68 627 c 1,9,-1
 68 721 l 1,10,11
 188 655 188 655 313 655 c 0,12,13
 420 655 420 655 479.5 706.5 c 128,-1,14
 539 758 539 758 539 854 c 0,15,16
 539 939 539 939 480.5 987.5 c 128,-1,17
 422 1036 422 1036 309 1036 c 0,18,19
 235 1036 235 1036 147 1012 c 1,20,-1
 96 1051 l 1,21,-1
 127 1462 l 1,22,-1
 602 1462 l 1,23,-1
 602 1374 l 1,24,-1
 213 1374 l 1,25,-1
 195 1108 l 1,26,27
 251 1122 251 1122 324 1122 c 0,0,1
EndSplineSet
EndChar

StartChar: sixsuperior
Encoding: 8310 8310 574
Width: 688
GlyphClass: 2
Flags: W
LayerCount: 2
Fore
SplineSet
647 874 m 0,0,1
 647 743 647 743 563.5 656 c 128,-1,2
 480 569 480 569 352 569 c 0,3,4
 210 569 210 569 126.5 661.5 c 128,-1,5
 43 754 43 754 43 913 c 0,6,7
 43 1124 43 1124 168 1266 c 128,-1,8
 293 1408 293 1408 547 1487 c 1,9,-1
 582 1407 l 1,10,11
 388 1350 388 1350 284 1261.5 c 128,-1,12
 180 1173 180 1173 145 1038 c 1,13,-1
 152 1038 l 1,14,15
 241 1151 241 1151 379 1151 c 0,16,17
 498 1151 498 1151 572.5 1075.5 c 128,-1,18
 647 1000 647 1000 647 874 c 0,0,1
352 655 m 0,19,20
 440 655 440 655 494.5 716 c 128,-1,21
 549 777 549 777 549 872 c 0,22,23
 549 963 549 963 499 1014 c 128,-1,24
 449 1065 449 1065 358 1065 c 0,25,26
 266 1065 266 1065 204.5 1014.5 c 128,-1,27
 143 964 143 964 143 889 c 0,28,29
 143 780 143 780 201 717.5 c 128,-1,30
 259 655 259 655 352 655 c 0,19,20
EndSplineSet
EndChar

StartChar: sevensuperior
Encoding: 8311 8311 575
Width: 688
GlyphClass: 2
Flags: W
LayerCount: 2
Fore
SplineSet
164 586 m 1,0,-1
 528 1374 l 1,1,-1
 61 1374 l 1,2,-1
 61 1462 l 1,3,-1
 637 1462 l 1,4,-1
 637 1395 l 1,5,-1
 274 586 l 1,6,-1
 164 586 l 1,0,-1
EndSplineSet
EndChar

StartChar: eightsuperior
Encoding: 8312 8312 576
Width: 688
GlyphClass: 2
Flags: W
LayerCount: 2
Fore
SplineSet
344 1483 m 0,0,1
 465 1483 465 1483 537.5 1421 c 128,-1,2
 610 1359 610 1359 610 1257 c 0,3,4
 610 1121 610 1121 438 1051 c 1,5,6
 538 1013 538 1013 587.5 953 c 128,-1,7
 637 893 637 893 637 817 c 0,8,9
 637 706 637 706 557.5 637.5 c 128,-1,10
 478 569 478 569 342 569 c 256,11,12
 206 569 206 569 128.5 633.5 c 128,-1,13
 51 698 51 698 51 811 c 0,14,15
 51 886 51 886 95.5 947 c 128,-1,16
 140 1008 140 1008 227 1049 c 1,17,18
 141 1096 141 1096 108.5 1141.5 c 128,-1,19
 76 1187 76 1187 76 1253 c 0,20,21
 76 1354 76 1354 150.5 1418.5 c 128,-1,22
 225 1483 225 1483 344 1483 c 0,0,1
150 811 m 0,23,24
 150 740 150 740 202.5 697.5 c 128,-1,25
 255 655 255 655 344 655 c 0,26,27
 437 655 437 655 486 696.5 c 128,-1,28
 535 738 535 738 535 811 c 0,29,30
 535 870 535 870 492.5 914 c 128,-1,31
 450 958 450 958 342 999 c 1,32,-1
 322 1008 l 1,33,34
 229 973 229 973 189.5 925 c 128,-1,35
 150 877 150 877 150 811 c 0,23,24
342 1397 m 0,36,37
 267 1397 267 1397 222.5 1358.5 c 128,-1,38
 178 1320 178 1320 178 1255 c 0,39,40
 178 1201 178 1201 214.5 1162 c 128,-1,41
 251 1123 251 1123 344 1090 c 1,42,43
 430 1120 430 1120 470 1160.5 c 128,-1,44
 510 1201 510 1201 510 1257 c 0,45,46
 510 1320 510 1320 465 1358.5 c 128,-1,47
 420 1397 420 1397 342 1397 c 0,36,37
EndSplineSet
EndChar

StartChar: ninesuperior
Encoding: 8313 8313 577
Width: 688
GlyphClass: 2
Flags: W
LayerCount: 2
Fore
SplineSet
641 1108 m 0,0,1
 641 826 641 826 537.5 697.5 c 128,-1,2
 434 569 434 569 223 569 c 0,3,4
 147 569 147 569 94 586 c 1,5,-1
 94 676 l 1,6,7
 148 655 148 655 225 655 c 0,8,9
 373 655 373 655 456.5 745.5 c 128,-1,10
 540 836 540 836 549 1020 c 1,11,-1
 541 1020 l 1,12,13
 504 968 504 968 443 937.5 c 128,-1,14
 382 907 382 907 315 907 c 0,15,16
 185 907 185 907 111 982 c 128,-1,17
 37 1057 37 1057 37 1186 c 0,18,19
 37 1321 37 1321 118 1401 c 128,-1,20
 199 1481 199 1481 330 1481 c 0,21,22
 421 1481 421 1481 492.5 1436.5 c 128,-1,23
 564 1392 564 1392 602.5 1307 c 128,-1,24
 641 1222 641 1222 641 1108 c 0,0,1
324 1397 m 0,25,26
 233 1397 233 1397 181 1341.5 c 128,-1,27
 129 1286 129 1286 129 1192 c 0,28,29
 129 1101 129 1101 175.5 1047 c 128,-1,30
 222 993 222 993 319 993 c 0,31,32
 414 993 414 993 477.5 1043 c 128,-1,33
 541 1093 541 1093 541 1163 c 0,34,35
 541 1265 541 1265 481.5 1331 c 128,-1,36
 422 1397 422 1397 324 1397 c 0,25,26
EndSplineSet
EndChar

StartChar: uniFFFC
Encoding: 65532 65532 591
Width: 2048
GlyphClass: 2
Flags: W
LayerCount: 2
Fore
SplineSet
84 1214 m 1,0,-1
 84 1518 l 1,1,-1
 387 1518 l 1,2,-1
 387 1407 l 1,3,-1
 195 1407 l 1,4,-1
 195 1214 l 1,5,-1
 84 1214 l 1,0,-1
1681 1407 m 1,6,-1
 1681 1518 l 1,7,-1
 1985 1518 l 1,8,-1
 1985 1214 l 1,9,-1
 1876 1214 l 1,10,-1
 1876 1407 l 1,11,-1
 1681 1407 l 1,6,-1
84 -383 m 1,12,-1
 84 -80 l 1,13,-1
 195 -80 l 1,14,-1
 195 -274 l 1,15,-1
 387 -274 l 1,16,-1
 387 -383 l 1,17,-1
 84 -383 l 1,12,-1
1681 -383 m 1,18,-1
 1681 -274 l 1,19,-1
 1876 -274 l 1,20,-1
 1876 -80 l 1,21,-1
 1985 -80 l 1,22,-1
 1985 -383 l 1,23,-1
 1681 -383 l 1,18,-1
1290 -383 m 1,24,-1
 1290 -274 l 1,25,-1
 1563 -274 l 1,26,-1
 1563 -383 l 1,27,-1
 1290 -383 l 1,24,-1
508 -383 m 1,28,-1
 508 -274 l 1,29,-1
 778 -274 l 1,30,-1
 778 -383 l 1,31,-1
 508 -383 l 1,28,-1
508 1407 m 1,32,-1
 508 1518 l 1,33,-1
 778 1518 l 1,34,-1
 778 1407 l 1,35,-1
 508 1407 l 1,32,-1
1985 39 m 1,36,-1
 1876 39 l 1,37,-1
 1876 309 l 1,38,-1
 1985 309 l 1,39,-1
 1985 39 l 1,36,-1
1985 823 m 1,40,-1
 1876 823 l 1,41,-1
 1876 1094 l 1,42,-1
 1985 1094 l 1,43,-1
 1985 823 l 1,40,-1
899 -383 m 1,44,-1
 899 -274 l 1,45,-1
 1171 -274 l 1,46,-1
 1171 -383 l 1,47,-1
 899 -383 l 1,44,-1
195 39 m 1,48,-1
 84 39 l 1,49,-1
 84 309 l 1,50,-1
 195 309 l 1,51,-1
 195 39 l 1,48,-1
899 1407 m 1,52,-1
 899 1518 l 1,53,-1
 1171 1518 l 1,54,-1
 1171 1407 l 1,55,-1
 899 1407 l 1,52,-1
1290 1407 m 1,56,-1
 1290 1518 l 1,57,-1
 1563 1518 l 1,58,-1
 1563 1407 l 1,59,-1
 1290 1407 l 1,56,-1
195 430 m 1,60,-1
 84 430 l 1,61,-1
 84 702 l 1,62,-1
 195 702 l 1,63,-1
 195 430 l 1,60,-1
195 823 m 1,64,-1
 84 823 l 1,65,-1
 84 1094 l 1,66,-1
 195 1094 l 1,67,-1
 195 823 l 1,64,-1
1985 430 m 1,68,-1
 1876 430 l 1,69,-1
 1876 702 l 1,70,-1
 1985 702 l 1,71,-1
 1985 430 l 1,68,-1
864 629 m 0,72,73
 864 484 864 484 796.5 406 c 128,-1,74
 729 328 729 328 602 328 c 256,75,76
 475 328 475 328 407.5 406 c 128,-1,77
 340 484 340 484 340 629 c 0,78,79
 340 775 340 775 407.5 852.5 c 128,-1,80
 475 930 475 930 602 930 c 0,81,82
 728 930 728 930 796 853 c 128,-1,83
 864 776 864 776 864 629 c 0,72,73
467 629 m 0,84,85
 467 432 467 432 602 432 c 256,86,87
 737 432 737 432 737 629 c 0,88,89
 737 825 737 825 602 825 c 256,90,91
 467 825 467 825 467 629 c 0,84,85
948 922 m 1,92,-1
 1120 922 l 2,93,94
 1229 922 1229 922 1285 888.5 c 128,-1,95
 1341 855 1341 855 1341 772 c 0,96,97
 1341 723 1341 723 1318 689 c 128,-1,98
 1295 655 1295 655 1251 647 c 1,99,-1
 1251 643 l 1,100,101
 1310 630 1310 630 1334 596 c 128,-1,102
 1358 562 1358 562 1358 506 c 0,103,104
 1358 425 1358 425 1303.5 380.5 c 128,-1,105
 1249 336 1249 336 1155 336 c 2,106,-1
 948 336 l 1,107,-1
 948 922 l 1,92,-1
1071 690 m 1,108,-1
 1137 690 l 2,109,110
 1183 690 1183 690 1201 707 c 128,-1,111
 1219 724 1219 724 1219 756 c 0,112,113
 1219 790 1219 790 1198 804.5 c 128,-1,114
 1177 819 1177 819 1130 819 c 2,115,-1
 1071 819 l 1,116,-1
 1071 690 l 1,108,-1
1071 592 m 1,117,-1
 1071 438 l 1,118,-1
 1145 438 l 2,119,120
 1194 438 1194 438 1212.5 459.5 c 128,-1,121
 1231 481 1231 481 1231 518 c 0,122,123
 1231 592 1231 592 1141 592 c 2,124,-1
 1071 592 l 1,117,-1
1491 330 m 0,125,126
 1439 330 1439 330 1411 340 c 1,127,-1
 1411 442 l 1,128,129
 1454 434 1454 434 1479 434 c 0,130,131
 1565 434 1565 434 1565 520 c 2,132,-1
 1565 922 l 1,133,-1
 1690 922 l 1,134,-1
 1690 524 l 2,135,136
 1690 429 1690 429 1637.5 379.5 c 128,-1,137
 1585 330 1585 330 1491 330 c 0,125,126
EndSplineSet
EndChar

StartChar: uniFFFD
Encoding: 65533 65533 592
Width: 2048
GlyphClass: 2
Flags: W
LayerCount: 2
Fore
SplineSet
1022 1556 m 1,0,-1
 1962 618 l 1,1,-1
 1022 -319 l 1,2,-1
 84 618 l 1,3,-1
 1022 1556 l 1,0,-1
1087 367 m 1,4,-1
 1087 414 l 2,5,6
 1087 464 1087 464 1109 496.5 c 128,-1,7
 1131 529 1131 529 1196 578 c 1,8,9
 1299 660 1299 660 1335.5 723 c 128,-1,10
 1372 786 1372 786 1372 874 c 0,11,12
 1372 1009 1372 1009 1278.5 1086 c 128,-1,13
 1185 1163 1185 1163 1020 1163 c 0,14,15
 941 1163 941 1163 848 1135 c 128,-1,16
 755 1107 755 1107 684 1065 c 1,17,-1
 766 887 l 1,18,19
 926 967 926 967 1016 967 c 0,20,21
 1079 967 1079 967 1110 938 c 128,-1,22
 1141 909 1141 909 1141 862 c 0,23,24
 1141 809 1141 809 1116.5 771.5 c 128,-1,25
 1092 734 1092 734 1020 680 c 1,26,27
 936 612 936 612 906.5 556 c 128,-1,28
 877 500 877 500 877 426 c 2,29,-1
 877 367 l 1,30,-1
 1087 367 l 1,4,-1
850 92 m 0,31,32
 850 29 850 29 885.5 -7 c 128,-1,33
 921 -43 921 -43 991 -43 c 0,34,35
 1057 -43 1057 -43 1093.5 -6.5 c 128,-1,36
 1130 30 1130 30 1130 92 c 0,37,38
 1130 156 1130 156 1094 192.5 c 128,-1,39
 1058 229 1058 229 991 229 c 0,40,41
 919 229 919 229 884.5 193 c 128,-1,42
 850 157 850 157 850 92 c 0,31,32
EndSplineSet
EndChar

StartChar: uni03D1
Encoding: 977 977 595
Width: 1208
GlyphClass: 2
Flags: W
LayerCount: 2
Fore
SplineSet
1042 862 m 1,0,1
 1047 797 1047 797 1047 758 c 0,2,3
 1047 383 1047 383 917 181.5 c 128,-1,4
 787 -20 787 -20 545 -20 c 0,5,6
 366 -20 366 -20 273 67.5 c 128,-1,7
 180 155 180 155 180 330 c 0,8,9
 180 392 180 392 196 512 c 0,10,11
 211 631 211 631 211 668 c 0,12,13
 211 723 211 723 188.5 747.5 c 128,-1,14
 166 772 166 772 131 772 c 0,15,16
 92 772 92 772 37 750 c 1,17,-1
 10 825 l 1,18,19
 72 856 72 856 145 856 c 0,20,21
 225 856 225 856 269 808.5 c 128,-1,22
 313 761 313 761 313 668 c 0,23,24
 313 616 313 616 298 510 c 0,25,26
 283 403 283 403 283 324 c 0,27,28
 283 70 283 70 541 70 c 0,29,30
 942 70 942 70 942 756 c 0,31,32
 942 812 942 812 938 864 c 1,33,34
 606 867 606 867 427 972 c 128,-1,35
 248 1077 248 1077 248 1272 c 0,36,37
 248 1415 248 1415 333.5 1497 c 128,-1,38
 419 1579 419 1579 565 1579 c 0,39,40
 752 1579 752 1579 874 1417.5 c 128,-1,41
 996 1256 996 1256 1036 952 c 1,42,-1
 1178 952 l 1,43,-1
 1178 862 l 1,44,-1
 1042 862 l 1,0,1
930 952 m 1,45,46
 898 1204 898 1204 802.5 1346.5 c 128,-1,47
 707 1489 707 1489 571 1489 c 0,48,49
 463 1489 463 1489 403.5 1434 c 128,-1,50
 344 1379 344 1379 344 1278 c 0,51,52
 344 1121 344 1121 495.5 1037.5 c 128,-1,53
 647 954 647 954 930 952 c 1,45,46
EndSplineSet
EndChar

StartChar: uni03D2
Encoding: 978 978 596
Width: 1104
GlyphClass: 2
Flags: W
LayerCount: 2
Fore
SplineSet
543 662 m 1,0,-1
 593 775 l 1,1,2
 733 1095 733 1095 803 1236 c 128,-1,3
 873 1377 873 1377 924 1426 c 128,-1,4
 975 1475 975 1475 1042 1475 c 0,5,6
 1073 1475 1073 1475 1104 1464 c 1,7,-1
 1104 1374 l 1,8,9
 1078 1380 1078 1380 1053 1380 c 0,10,11
 1011 1380 1011 1380 974.5 1336.5 c 128,-1,12
 938 1293 938 1293 878.5 1174.5 c 128,-1,13
 819 1056 819 1056 748.5 900 c 128,-1,14
 678 744 678 744 594 543 c 1,15,-1
 594 0 l 1,16,-1
 489 0 l 1,17,-1
 489 557 l 1,18,-1
 0 1462 l 1,19,-1
 117 1462 l 1,20,-1
 543 662 l 1,0,-1
EndSplineSet
EndChar

StartChar: uni03D6
Encoding: 982 982 597
Width: 1587
GlyphClass: 2
Flags: W
LayerCount: 2
Fore
SplineSet
1059 -20 m 0,0,1
 953 -20 953 -20 884.5 29 c 128,-1,2
 816 78 816 78 776 188 c 1,3,-1
 772 188 l 1,4,5
 735 81 735 81 669 30.5 c 128,-1,6
 603 -20 603 -20 489 -20 c 0,7,8
 318 -20 318 -20 229.5 94.5 c 128,-1,9
 141 209 141 209 141 432 c 0,10,11
 141 574 141 574 182.5 703.5 c 128,-1,12
 224 833 224 833 322 1001 c 1,13,-1
 20 1001 l 1,14,-1
 20 1059 l 1,15,-1
 188 1087 l 1,16,-1
 1522 1087 l 1,17,-1
 1522 1001 l 1,18,-1
 1255 1001 l 1,19,20
 1336 858 1336 858 1371.5 728 c 128,-1,21
 1407 598 1407 598 1407 432 c 0,22,23
 1407 211 1407 211 1318.5 95.5 c 128,-1,24
 1230 -20 1230 -20 1059 -20 c 0,0,1
1303 432 m 0,25,26
 1303 587 1303 587 1270.5 728 c 128,-1,27
 1238 869 1238 869 1155 1001 c 1,28,-1
 418 1001 l 1,29,30
 246 708 246 708 246 432 c 0,31,32
 246 247 246 247 308.5 158.5 c 128,-1,33
 371 70 371 70 502 70 c 0,34,35
 611 70 611 70 668 146 c 128,-1,36
 725 222 725 222 725 354 c 2,37,-1
 725 575 l 1,38,-1
 823 575 l 1,39,-1
 823 354 l 2,40,41
 823 220 823 220 883.5 145 c 128,-1,42
 944 70 944 70 1051 70 c 0,43,44
 1303 70 1303 70 1303 432 c 0,25,26
EndSplineSet
EndChar

StartChar: uni02F3
Encoding: 755 755 603
Width: 682
GlyphClass: 2
Flags: W
LayerCount: 2
Fore
SplineSet
557 -338 m 0,0,1
 557 -435 557 -435 497 -493 c 128,-1,2
 437 -551 437 -551 340 -551 c 256,3,4
 243 -551 243 -551 183 -493 c 128,-1,5
 123 -435 123 -435 123 -338 c 0,6,7
 123 -244 123 -244 183 -185.5 c 128,-1,8
 243 -127 243 -127 340 -127 c 256,9,10
 437 -127 437 -127 497 -186 c 128,-1,11
 557 -245 557 -245 557 -338 c 0,0,1
203 -338 m 0,12,13
 203 -404 203 -404 240.5 -441.5 c 128,-1,14
 278 -479 278 -479 340 -479 c 256,15,16
 402 -479 402 -479 439.5 -441.5 c 128,-1,17
 477 -404 477 -404 477 -338 c 0,18,19
 477 -274 477 -274 438 -236.5 c 128,-1,20
 399 -199 399 -199 340 -199 c 0,21,22
 278 -199 278 -199 240.5 -237 c 128,-1,23
 203 -275 203 -275 203 -338 c 0,12,13
EndSplineSet
EndChar

